<?xml version="1.0" encoding="utf-8"?>
<!-- Generator: Adobe Illustrator 21.0.2, SVG Export Plug-In . SVG Version: 6.00 Build 0)  -->
<svg version="1.1" id="Ritningslager_8_" xmlns="http://www.w3.org/2000/svg" xmlns:xlink="http://www.w3.org/1999/xlink" x="0px"
	 y="0px" viewBox="0 0 2698.2 1960" style="enable-background:new 0 0 2698.2 1960;" xml:space="preserve">
<style type="text/css">
	.st0{stroke:#161616;stroke-width:0.5;stroke-miterlimit:10;}
</style>
<g>
	<path class="st0" d="M416.1,1702C416.1,1702,416.1,1702,416.1,1702c0.5-0.2,0.9-0.4,1.4-0.6c0,0,0,0,0,0
		C417,1701.6,416.5,1701.8,416.1,1702z"/>
	<path class="st0" d="M2292.5,1003.6C2292.5,1003.6,2292.5,1003.5,2292.5,1003.6c-0.4,0-0.7,0.1-1.1,0.1c0,0,0,0,0,0.1
		C2291.8,1003.7,2292.1,1003.6,2292.5,1003.6z"/>
	<path class="st0" d="M2005.2,1600.6c-20.8-5.6-41.6-10.9-62.6-15.9c9.7-14,19.1-28.3,28.1-42.8c8.9-14.3,17.5-28.7,25.8-43.4
		c0.4-0.8,0.8-1.6,1-2.3c2-3.5,4.1-7,6-10.5c3.1-5.6,6.1-11.3,8.9-17.1c1.5-3,3.1-6.1,4.5-9.2c2.1-4.8,4.2-9.7,6.3-14.5
		c0.4-0.9,0.7-1.8,1.1-2.7c2.4,0,4.8,0,7.2,0c4.3,0,8.6,0.1,12.9,0.1c1.2,10.7,2.4,21.4,3.3,32.1c0.6,6.9,1,13.9,1.2,20.8
		c0.2,2.4,0.3,4.7,0.4,7.1l0,0c0,0.1,0,0.1,0,0.2c0,0.2,0,0.3,0,0.5c0,0.2,0,0.3,0,0.5c0,0,0,0.1,0.1,0.1c0.1,0.1,0.1,0.2,0.2,0.4
		c0.3,0.9,0.3,1.9,0.4,2.8c0.1,0.7,0.1,1.4,0.2,2.1c0.1,0.7,0.1,1.3,0.1,2c0,0.4,0,0.7,0.1,1.1c0,0.4,0,0.8,0,1.2c0,0.1,0,0.2,0,0.3
		c0,0,0,0.1,0,0.1c0,0,0-0.1,0-0.1c0.2,2.6,0.5,5.1,0.2,7.7c-0.3,1-0.5,1.9-0.8,2.9c0,0,0,0,0,0c4.1-3.4,7.7-7.3,11-11.5
		c0.7-0.6,1.3-1.1,2-1.7c0,0,0,0.1,0,0.1c0,0.2,0,0.5,0.1,0.7c0,0,0,0,0,0c0.3-0.5,0.6-1.1,0.8-1.7c2-1.9,4-3.8,5.7-6
		c1.9-2.3,3.8-4.7,5.5-7.1c1.7-2.4,3.5-4.8,4.9-7.3c4.2-7.6,8.1-15.6,10.2-24.2c0.2-1,0.5-1.9,0.7-2.9c0.4-0.4,0.6-0.9,0.8-1.4l0,0
		c0,0,0,0,0,0c0.1-0.2,0.1-0.4,0.2-0.6c0.3-1.1,0.7-2.2,1.1-3.2c0.6-1.4,1.2-2.8,1.8-4.2c0.7-1.7,1.4-3.5,2.1-5.3
		c0.6-1.4,1.2-2.9,1.6-4.4c86.3,2.3,172.6,8,258.6,16.4c108.2,10.6,216,25.7,323.1,44.3c-106.9-19.9-214.5-36.2-322.7-48.1
		c-85.3-9.4-171-16-256.9-19.4c1.1-3,2.1-6.1,3.1-9.1c2.6-7.8,4.9-15.6,7-23.5c3.5-12.8,6.7-25.7,8.8-38.8c1-6.3,1.8-12.6,3.2-18.8
		c1.5-6.4,3.4-12.6,4.9-18.9c3.2-13.3,5-26.9,5.7-40.5c29.2-1,58.5-1.4,87.7-1.3c94.1,0.3,188.1,6.1,281.8,15.9
		c-93.5-11.1-187.5-18.1-281.7-19.7c-29.2-0.5-58.3-0.5-87.5,0.1c0.2-6.4-0.1-12.9-0.4-19.3c-0.2-3-0.4-6-0.6-8.9
		c-0.2-2.3-0.4-4.5-0.7-6.8c0.1-3.9,0.2-7.8,0.1-11.9c-0.1-6.6-0.6-13.3-1.5-20.4c0.2-7,0.1-14-0.4-21c-0.3-3.9-0.7-7.8-1.2-11.7
		c0-0.1,0.1-0.2,0.1-0.3c0.4-1.7,0.2-3.6,0.1-5.3c-0.2-1.6-0.4-3.2-0.7-4.7c-0.1-0.8-0.3-1.6-0.5-2.4c0.1-4.2-0.8-8.5-1.5-12.4
		c-0.2-1.1-0.4-2.2-0.6-3.2c1.3,2.3,2.5,4.5,3.8,6.6c0.5,0.9,1,1.8,1.4,2.7c0.3,0.6,0.6,1.2,0.9,1.8c2.4,4.5,4.7,8.3,7,11.6
		c5.2,7.6,11,15.3,17.9,23.5c4.5,5.4,8.3,9.7,12,13.7c2.4,2.6,4.8,5.1,7.3,7.6c0.7,0.7,1.4,1.4,2.1,2.1c1.3-8.3,2.6-16.6,3.9-24.9
		c0.8-4.7,1.6-9.3,2.4-14c0.1-0.7,0.1-1.4,0.2-2.1c0.5-6,0.7-12.5,0.8-21c0.1-11-0.5-23.1-1.9-37.9c-0.9-9.9-2.1-19.7-3.5-29.1
		c-0.7-4.5-1.6-9.1-2.5-13.5c-0.4-2-0.8-4-1.2-6l-0.2-0.9c-1.1-5.6-2.2-11.3-3.5-16.9c-0.4-1.9-0.9-3.7-1.3-5.6
		c-1.1-4.7-2.2-9.5-3.5-14.2l-1.8-6.6c-1.5-5.6-3-11.2-4.5-16.9c-1.3-4.8-2.8-9.6-4.2-14.3c-0.7-2.4-1.5-4.8-2.2-7.2
		c-3.5-11.6-7.3-23.3-11.1-34.6l-1.7-5.1c-1.8-5.6-3.9-11.1-5.9-16.5l-0.5-1.4l-0.7-2c-2.1-5.8-4.4-11.8-6.9-17.5l-10.9-24.6
		c-0.6-1.3-1.3-2.6-2-3.9l-3.8-7.1l-2.5-4.6l-2-3.8c-1.6-3.1-3.3-6.1-4.9-9.2c-0.3-0.5-0.5-1-0.8-1.5c-0.3-0.5-0.5-1-0.8-1.5
		c-0.9-1.7-1.7-3.4-2.5-5.2c-0.4-0.9-0.9-1.9-1.4-2.8c-0.1-0.2-0.2-0.4-0.4-0.7c-0.5-0.9-1-1.7-1.5-2.6c0,0,0,0,0-0.1
		c-0.4-0.7-0.8-1.3-1.2-2c-0.1-0.2-0.2-0.4-0.4-0.6c-0.2-0.4-0.5-0.7-0.7-1.1c-0.7-1-1.4-2.1-2-3.1c-1.2-1.8-2.2-3.6-3.2-5.5
		c-1-1.6-2-3.2-3-4.8c-0.1-0.2-0.2-0.3-0.3-0.5c-0.4-0.8-0.9-1.5-1.3-2.3c-0.4-0.6-0.7-1.2-1.1-1.9c-0.3-0.6-0.7-1.2-1-1.9
		c-0.4-0.7-0.8-1.4-1.1-2.1c-0.7-1.3-1.2-2.6-1.8-3.9c-0.8-1.1-1.6-2.3-2.3-3.4c-2.3-3.6-4.7-7.1-6.1-11.2c0-0.1,0-0.1-0.1-0.2
		c-0.7-1-1.4-1.9-2-2.9c-0.2-0.3-0.5-0.6-0.7-1c-0.9-1.5-1.7-3-2.6-4.5c-0.9-1.4-1.9-2.9-2.9-4.2c0,0,0,0,0-0.1
		c-0.2-0.3-0.4-0.6-0.6-0.9c-0.6-0.9-1.1-1.9-1.7-2.8c0.3-0.8,0.5-1.6,0.8-2.4c1.2-3.3,2.3-6.7,3.5-10c1.5-3.6,3-7.1,4.4-10.8
		c1.3-3.6,2.6-7.1,3.9-10.7c2.2-4.6,4.2-9.3,6.2-14c2.9-6.7,5.9-13.5,8.4-20.3c2.3-6.3,4.6-12.7,6.9-19c2.4-6.3,4.4-12.7,6.1-19.2
		c1.7-6.5,3.5-13,5.6-19.4c2.1-6.3,4.6-12.4,7-18.6c2.5-6.2,5-12.4,7.4-18.5c5-12.4,9.9-24.8,13.7-37.7c3.8-13.1,7.6-26.2,11.7-39.3
		c2.2-7,4.3-14,6.4-21c1.9-6.4,3.3-12.9,4.7-19.4c3-13.3,5.4-26.6,7.7-40c1.4-8,2.6-16,3.6-24c0.9-6.7,1.3-13.5,1.9-20.2
		c0.6-6.8,1.3-13.5,2-20.3c0.7-6.7,1.1-13.4,1.4-20.1c0.7-13.3,0.8-26.6,0.5-39.9c-0.1-5.8-0.4-11.6-0.8-17.4
		c-0.7-2.7-0.9-5.5-1.3-9.3c-0.1-0.7-0.2-1.5-0.2-2.2c-0.1-1.6-0.3-3.2-0.3-4.9c-0.1-1.2-0.1-2.4-0.2-3.6c-0.2-2-0.5-3.9-0.8-5.9
		c0.2,0,0.4,0,0.5-0.1c-0.2-1.9-0.4-3.9-0.6-5.8c-0.6-6.6-1-13.2-1.7-19.8c-1-6.8-2.2-13.5-3.1-20.3c-0.2-1.5-0.4-2.9-0.5-4.4
		c-0.2-1.6-0.3-3.1-0.4-4.7c-0.2-2.2-0.4-4.4-0.5-6.5c-0.1-1.4-0.2-2.8-0.3-4.3h0c-0.3-4.2-0.4-8.3-0.3-12.5c0-0.2,0-0.5,0-0.7
		c-1.8-12.9-3.6-25.8-5.9-38.6c-2.8-15.8-6.5-31.4-9.1-47.3c-1.8-10.6-3.4-21.3-5.9-31.8c-1.2-5.2-2.4-10.5-4.2-15.6
		c-2.2-5.9-4.9-11.7-7.5-17.4c-0.2-0.6-0.5-1.1-0.7-1.7c-0.1-0.2-0.3-0.4-0.4-0.5c-0.5-1.1-1-2.2-1.5-3.3
		c-3.8-8.4-7.9-16.6-11.7-24.9c-0.5-1.2-1-2.3-1.6-3.5c-1.1,0.5-2.3,1.1-3.4,1.6c-0.5,0.2-0.9,0.4-1.4,0.7c-1.2,0.5-2.4,1.1-3.7,1.6
		c-0.2,0.1-0.4,0.2-0.5,0.2c-1.6,0.7-3.2,1.3-4.9,1.9c-0.3,0.1-0.7,0.3-1,0.4c-0.3,0.1-0.7,0.3-1,0.4c-1.3,0.5-2.6,0.9-3.9,1.4
		c-0.8-0.2-1.7-0.3-2.5-0.3c-0.9,0-1.8,0.1-2.7,0.3c-3.9,0.9-7.8,1.7-11.7,2.9c-3.5,1.1-6.9,2.2-10.4,3.4c-7,2.3-14,4.5-20.9,7.1
		c-15.3,5.6-30.2,12-45.2,18.4c-6.6,2.8-13.2,5.8-19.7,8.9c-5,2.3-9.9,4.7-14.9,7.2c-6.3,0.6-12.4,3.2-18,5.9
		c-5.4,2.6-10.1,6.3-14,10.8c-3,1.7-6.1,3.4-9.1,5.1c-0.1,0.1-0.2,0.2-0.3,0.3c-0.1,0.2-0.3,0.3-0.4,0.5c-0.7,0.9-1.4,1.8-2.1,2.7
		c-1.3,1.7-2.6,3.4-3.9,5c-2.6,3.2-5.3,6.4-8.3,9.2c-2.6,2.4-5.5,4.6-8.4,6.7c-0.3,0.4-0.6,0.8-0.9,1.1c-0.2,0.1-0.4,0.2-0.6,0.3
		c0.5-0.6,1-1.3,1.6-1.9c2.9-2.1,5.7-4.3,8.4-6.7c3.1-2.8,5.7-6,8.3-9.2c1.4-1.6,2.7-3.3,3.9-5c0.7-0.9,1.4-1.8,2.1-2.7
		c0.2-0.1,0.4-0.2,0.7-0.4c1-1.2,2-2.3,3.1-3.5c0,0,0,0,0,0c-0.3,0-0.6,0-0.9,0c0.1-0.1,0.1-0.1,0.2-0.2c0.3-0.4,0.7-0.7,1-1.1
		c1.2-0.7,2.4-1.3,3.6-1.9c0.8-0.3,1.6-0.6,2.4-0.9c0,0,0,0,0,0c-0.1,0-0.2,0-0.2,0c-1.1,0-2.3,0.1-3.4,0.2c0.7-0.8,1.5-1.5,2.3-2.2
		c0.6-0.5,1.2-0.8,1.9-1.1c0,0,0,0,0,0c0,0,0,0,0,0c-0.5,0.1-1.1,0.2-1.6,0.4c-1,0.5-2,1.1-2.9,1.8c-0.7,0.5-1.3,1-2,1.6
		c-2,0.4-3.9,1.2-5.7,2.1c1.3-0.9,2.7-1.8,4-2.7c2.1-1.4,4.2-2.8,6.3-4.1c0,0,0,0,0,0c0,0,0,0,0,0c-2.5,0.9-5,1.9-7.4,3
		c-1.4,0.6-2.8,1.3-4.2,1.9c-3.3,1.5-6.3,3.6-9.3,5.7c-1.2,0.9-2.3,1.7-3.5,2.7c-0.1,0-0.1,0-0.2,0.1c-0.6,0.3-1.2,0.6-1.8,0.9
		c-0.3,0-0.6,0-0.8,0.1c-7.6,0.8-14,4.8-19.7,9.6c-0.1,0.1-0.2,0.2-0.3,0.3c3.5-4.4,6.9-8.8,10.7-13c0,0,0,0,0,0c0,0,0,0,0,0
		c-13.1,5.8-25.1,14.1-35.8,23.5c-5.5,4.8-10.1,10.1-14.6,15.9c-2.1,2.6-4.3,5.3-6.1,8.1c-1.9,3.1-3.8,6.3-5.6,9.5
		c-0.2,0.4-0.5,0.9-0.7,1.3c-1.9,3.5-3.7,7.1-5.3,10.7c0.8-0.7,1.7-1.3,2.5-2c0.2,0,0.4,0,0.5,0c-1.1,0.9-2.2,1.8-3.3,2.7
		c0,0,0,0,0,0c0.1-0.2,0.2-0.4,0.3-0.6c-0.1,0.1-0.2,0.1-0.3,0.2c0,0,0,0,0,0c1.7-3.9,3.6-7.7,5.6-11.4c-0.7,0.5-1.4,1-2.1,1.6
		c-3,2.3-6,4.7-9,7c5.5-7.3,10.6-14.9,16.1-22.2c4.3-5.4,9.3-10.2,13.9-15.4c2.5-2.7,4.9-5.5,7.7-7.8c0,0,0,0,0,0c0,0,0,0,0,0
		c-4.7,0.4-9.2,1.7-13.7,3.1c-4.2,1.3-8.5,2.7-12.5,4.5c-6.4,2.8-12,7-17.3,11.5c-8,6.8-14.5,15.3-19.6,24.5
		c0.9-2.4,1.9-4.8,2.8-7.2c0.3-0.6,0.5-1.1,0.8-1.6c0,0,0,0,0,0c0,0,0,0,0,0c-8.4,4.2-16,10.6-22.9,16.9c-7.5,6.9-14.1,15-18.1,24.4
		c-2.7,6.3-4.6,12.7-5.8,19.2c-1.1,1.6-2.1,3.2-3.2,4.9c0.1-0.7,0.3-1.3,0.4-2c0.9-4.3,1.5-8.8,3.1-12.9c0.2-0.5,0.5-0.9,0.7-1.4
		c0,0,0,0,0,0c0,0,0,0,0,0c-4.3,2.2-7.4,6.2-10.4,9.9c-2.2,2.7-4,5.6-5.8,8.5c-3.9,6.2-7,13-8.5,20.3c-0.2,1-0.4,1.9-0.6,2.9
		c-1.3,0.9-2.4,2.3-3.4,3.4c-1.4,1.5-2.6,3.2-3.8,4.9c-1.7,2.4-3.3,4.9-4.9,7.4c-1.2,2-2.4,4.1-3.5,6.2c-0.2,0.3-0.4,0.7-0.6,1
		c4.1-8.3,7.1-17.1,10.5-25.7c1.4-3.2,3-6.1,5.1-8.9c1.6-2,3.1-3.8,4.9-5.6c0,0,0,0,0,0c-0.7,0-1.3,0-2,0c-4.4,0-8.9,0.6-13.1,1.9
		c-10,3.2-18.1,10.8-24.2,19.1c-2.3,3.1-4.1,6.7-5.5,10.4c-7.5,6.7-12.7,16.1-15.7,25.7c0.4-2,0.8-3.9,1.3-5.9
		c1-3.9,2.6-7.7,4.1-11.4c0.3-0.6,0.6-1.3,0.9-1.9c0,0,0,0,0,0c0,0,0,0,0,0c-2.8,1.5-5.5,3.2-8.1,5c-6.1,4.2-10.7,9.5-14.8,15.6
		c-1.3,2-2.5,4-3.6,6.2c-1.7,2.5-3.3,5.2-4.8,7.8c-1.8,3-3.5,6.2-5.1,9.3c-3.6,6.7-6.7,13.6-9.5,20.7c-0.5,1.3-1,2.6-1.5,4
		c-1.5-8.1-3.7-16.1-6.1-24c0,0,0,0,0,0c0,0,0,0,0,0c-1.7,9.5-2.5,19.2-2.1,28.8c-1.9-5-4.1-9.8-6.4-14.6
		c-2.5-5.2-5.4-10.2-7.9-15.4c0,0,0,0,0,0c0,0,0,0,0,0c0.1,5.7,0.7,11.4,1.5,17.1c0.2,1.6,0.4,3.1,0.7,4.7c-3.8-5.6-7.9-11-12.3-16
		c0,0,0,0,0,0c0,0,0,0,0,0c3.1,7.4,5.8,14.9,9,22.2c-0.7-0.4-1.5-0.9-2.2-1.3c-5.6-3.1-11.5-5.6-17.6-7.7
		c-5.5-1.9-11.3-3.1-16.8-4.9c0,0,0,0,0,0c0,0,0,0,0,0c3.1,10.9,8.7,21.5,15.4,30.6c1.9,2.6,3.9,5.2,6,7.7c-2.6-1.1-5.2-2.1-7.8-3
		c-0.9-0.3-1.9-0.4-2.9-0.4c-2.1,0-4.3,0.7-6.1,1.8c0,0,0,0,0,0c-2.7-1.1-5.3-2.3-7.9-3.5c-3.3-1.6-6.5-3.2-9.8-4.8
		c-6.6-3.2-13.2-6.2-19.9-9.1c-6.3-2.6-12.7-4.9-19.3-6.5c-6.6-1.7-13.2-3.1-19.9-4.6c-6.5-1.5-13-2.9-19.5-4.1
		c-7.5-1.4-15-2.5-22.5-3.5c-9.3-1.2-18.7-1.9-28.1-1.9c-4.1,0-8.1,0.1-12.2,0.4c-0.8,0.1-1.7,0.1-2.5,0.2
		c-5.7-1.3-11.4-2.4-17.2-3.4c-14.2-2.4-28.6-4.4-43-4.5c-1.7,0-3.4,0-5,0c-2,0-3.9,0-5.9,0.1c-3.6,0.2-7.2,0.4-10.8,0.6
		c-1.2,0.1-2.5,0.2-3.7,0.3c1.5-0.6,3-1.1,4.6-1.7c0,0,0,0,0,0c-12.1-1-24.2-1.5-36.4-1.5c-14.9,0-29.9,0.7-44.8,1.9
		c-16.1,1.3-32.2,3.4-47.9,7c-2.1,0.5-4.2,1-6.3,1.5c3.1-2.2,6.2-4.4,9.4-6.4c5.5-3.5,10.9-7.2,16.8-10.1c0,0,0,0,0,0
		c-4.4-0.8-8.9-1.1-13.4-1.1c-10.2,0-20.5,1.7-30.4,3.8c-6.8,1.4-13.5,3.5-20,5.9c-6.1,2.3-12,4.9-17.7,8.2
		c-13.2,7.8-25.4,17.2-36.5,27.8c-0.1,0.1-0.1,0.1-0.2,0.2c0,0,0,0-0.1,0c0.1-0.1,0.2-0.2,0.2-0.2c-0.3,0.1-0.6,0.1-0.9,0.2
		c-3.2-0.2-6.4-0.1-9.5,0.1c1.3-0.8,2.6-1.6,3.9-2.5c5.5-3.5,10.8-7.2,16.3-10.7c4.3-2.8,8.6-5.6,13.2-7.7c0,0,0,0,0,0
		c-6.5-1.6-13.4-2-20.1-2.1c-0.5,0-1,0-1.5,0c-6.8,0-13.5,0.4-20.3,1c-8,0.8-16.1,2.7-23.9,4.7c-8.1,2.1-16,5.5-23.4,9.3
		c-6.5,3.4-12.7,7.5-18.5,12c-0.1-5.2-1.8-10.3-4.2-14.8c-3.1-5.9-8.6-9.4-14.8-10.6c-0.8-5.3-2-10.5-3.1-15.7c0,0,0,0,0,0
		c0,0,0,0,0,0c-4.5,9.6-8.4,19.7-10,30.2c-0.4,2.7-0.6,5.4-0.7,8.1c-0.3-1.1-0.6-2.3-1-3.4c-2.4-7.1-5.9-13.7-10.5-19.5
		c-1.5-1.8-3.1-3.6-4.7-5.2c-1.2-4.5-2.5-9-4.1-13.4c-2.4-6.8-5.2-13.4-8.7-19.6c-5.7-10.1-12.4-19.7-20.3-28.2
		c-7.7-8.2-16.1-15.6-25.3-22.2c0,0,0,0,0,0c0,0,0,0,0,0c2.2,6.7,4,13.6,5.9,20.4c1.8,6.2,3.7,12.4,5.6,18.6c0.9,3,2.1,6,3,9
		c1.1,4,2.4,8,3.7,11.9c0.5,1.6,1.1,3.2,1.7,4.7c-0.5-0.1-0.9-0.1-1.4-0.2c0,0,0,0,0,0c0.5,0.6,1.1,1.2,1.6,1.9
		c0.3,0.3,0.5,0.7,0.8,1c1.2,3.1,2.4,6.3,3.6,9.3c-1.1-1.2-2.2-2.4-3.3-3.6c-0.9-0.9-1.7-1.9-2.6-2.8c-4.9-16.2-11-32-18.5-47.2
		c-6.1-12.4-13.8-23.6-22.2-34.5c-4.6-6-9.4-11.9-14.4-17.6c-5.5-6.4-11.3-12.5-16.9-18.9c0,0,0,0,0,0c0,0,0,0,0,0
		c3.3,13.1,7.4,26.1,12.2,38.8c2.8,7.4,5.9,14.7,9.3,21.9c-0.7-1.1-1.4-2.3-2.1-3.4c-2.6-4.1-5.4-8.1-8.3-12.1
		c-1.1-1.5-2.3-3-3.4-4.6c-4.1-5.8-8.4-11.5-12.8-17.2c-3.1-4-6.2-8-9.4-12c-0.1-0.2-0.1-0.3-0.2-0.5c-2.3-4.7-5.4-9-8.6-13.1
		c-6.3-8-14-14.9-21.7-21.6c-11.2-9.8-21.7-20.5-32-31.3c-3.1-3.3-6.3-6.5-9.5-9.6c-0.9-0.9-1.9-1.9-2.7-2.9
		c2.1,3.2,4.2,6.5,6.3,9.7c5.6,8.5,11.1,17,16.4,25.6c0.4,0.6,0.8,1.2,1.1,1.9c1.7,2.7,3.3,5.4,4.9,8.2c0.1,0.1,0.1,0.2,0.2,0.3
		c-2-2.1-4-4.1-6.1-6c-5.2-4.8-11.3-8.6-17.7-11.6c-5.5-2.7-11.3-4.5-17-6.9c-1.2-0.5-2.4-1.1-3.6-1.6c0,0,0,0,0,0c0,0,0,0,0,0
		c1.3,2.7,2.7,5.3,4.2,7.8c-6.5-6.9-14.7-12.2-23.2-16.1c0,0,0,0,0,0c0,0,0,0,0,0c0.6,2.7,1.3,5.4,2.2,8c-1.4-2.5-3.3-4.7-5.1-6.8
		c-3-3.4-6.6-6.3-10.5-8.7c0,0,0,0,0,0c0,0,0,0,0,0c0.4,4.3,1.2,8.5,2.6,12.6c0.4,1.2,0.9,2.4,1.4,3.6c-2.3-2.3-4.6-4.5-7.1-6.5
		c-6.1-4.9-13.3-8.6-20.5-11.7c0,0,0,0,0,0c0,0,0,0,0,0c3,3.6,6.1,7.2,9.6,10.4c-8.8-3.7-17.6-7.1-26.4-10.8c-14-6-28-12-42.1-17.9
		c-13.8-5.7-27.8-11-42.3-14.6c-7.2-1.7-14.5-3.2-21.7-4.8c-7.7-1.7-15.3-3.4-23-4.9c-4-0.8-8.1-1.6-12.1-2.1
		c-3.4-0.4-6.8-1-10.3-1.2c-2.2-0.1-4.4-0.3-6.6-0.4c-1.2-0.1-2.3-0.1-3.5-0.1c-0.5,0-1,0-1.6,0c-1.2,0-2.3,0-3.5,0
		c-2.6,0-5.1,0-7.7,0.1c-4.8,0.2-9.6,0.3-14.4,0.5c-2.4,0.1-4.5,0.9-6.2,2.6c-1.6,1.6-2.6,3.9-2.6,6.2c0,1.2,0.3,2.4,0.8,3.6
		c-1.6,3.4-3.1,7.1-4.6,11.4c-0.6,1.3-1.1,2.5-1.6,3.8c-1.3,3-2.5,6.2-3.6,9.5c-0.1,0.4-0.3,0.8-0.4,1.2c-2.2,4.5-4.3,9.1-6.3,13.7
		c-0.6,1.4-1.2,2.9-1.8,4.3c-0.7,1.6-1.3,3.2-1.8,4.9c-1.4,4.1-3,8.2-4.1,12.4c-0.9,3.2-1.9,6.4-2.8,9.6c-1.4,4.4-2.4,9-3.6,13.5
		c-0.7,2.9-1.4,5.8-2,8.7c-0.7,3.5-1.6,7.1-2.2,10.6c-1.3,8.3-2.7,16.5-3.8,24.8c-1,8.2-2,16.5-2.9,24.7c-0.8,7.7-1.4,15.3-2.1,23
		c-1.3,15.2-1.9,30.4-2.5,45.7c-0.2,6.7-0.4,13.4-0.4,20c0,3.7-0.1,7.3,0,11c0.1,4.1,0.2,8.3,0.3,12.4c0.1,7.3,0.5,14.6,0.9,22
		c0.5,8.4,0.9,16.8,1.6,25.2c1.1,15.1,2.7,30.2,4.4,45.2c1.8,16,3.7,31.9,6,47.8c2.1,15,4.9,29.8,7.6,44.7c2.6,14.5,5,29,8.1,43.3
		c3.2,14.6,6.5,29.2,10.5,43.7c0.3,0.9,0.5,1.9,0.8,2.8c0.3,1.3,0.6,2.7,0.9,4c1,4.3,2,8.7,3,13c0.2,0.8,0.4,1.5,0.7,2.3
		c0.1,0.4,0.3,0.7,0.4,1.1c0.8,1.9,1.6,3.9,2.4,5.8c0.4,1.3,0.8,2.7,1.3,4c1.3,3.7,2.4,7.4,3.8,11c5.8,14.8,11.7,29.6,18.1,44.1
		c3.7,8.3,7.3,16.6,11.1,24.9c1.6,3.5,3.2,7,4.9,10.5c0.9,1.9,1.8,3.8,2.8,5.7c0.4,0.9,0.9,1.8,1.4,2.6c0.3,0.5,0.6,1,0.9,1.5
		c0,0.7,0.2,1.4,0.5,2.1c0.2,0.4,0.4,0.8,0.6,1.3c-0.9,1.6-1.7,3.2-2.6,4.7c-1.7,3.1-3.2,6.2-4.7,9.4c-0.1,0.1-0.1,0.3-0.2,0.4
		c-0.3,0.2-0.5,0.4-0.8,0.7c0,0,0,0,0,0c-0.2,0.2-0.3,0.4-0.5,0.6c-0.1,0.1-0.1,0.2-0.2,0.3c-2.2,2.9-3.9,6.1-5.7,9.3
		c-1.9,3.3-3.9,6.7-5.9,10c-0.8,1.3-1.6,2.7-2.4,4.1c-0.2,0.2-0.3,0.5-0.5,0.7c-1.4,2.2-2.9,4.4-4.3,6.6c-0.7,1.1-1.4,2.2-2,3.3
		c-0.9,1.5-1.9,3.1-2.4,4.7c0,0.1,0,0.2-0.1,0.3c-0.7,1.3-1.5,2.6-2.2,3.9c-0.1,0.1-0.2,0.3-0.2,0.4c-0.2,0.2-0.3,0.4-0.5,0.7
		c-0.9,1.3-1.8,2.5-2.6,3.8c-0.5,0.7-0.9,1.5-1.3,2.2c0,0,0,0,0,0.1c-2.2,3.1-4.2,6.2-6.3,9.3c-0.8,1.2-1.5,2.5-2.1,3.7
		c-0.3,0.5-0.5,1-0.8,1.5c-1.7,3-3.3,6.1-4.9,9.2l-2,3.8l-2.5,4.6l-3.8,7.1c-0.7,1.3-1.4,2.6-2,3.9L459.3,915
		c-2.6,5.8-4.8,11.7-6.9,17.5l-0.7,2l-0.5,1.4c-2,5.4-4.1,11-5.9,16.5l-1.7,5.1c-3.8,11.3-7.6,23-11.1,34.6
		c-0.7,2.4-1.5,4.8-2.2,7.2c-1.4,4.7-2.9,9.5-4.2,14.3c-1.5,5.6-3,11.2-4.5,16.9l-1.8,6.6c-1.3,4.7-2.4,9.5-3.5,14.2
		c-0.4,1.9-0.9,3.7-1.3,5.6c-1.3,5.6-2.4,11.4-3.5,16.9l-0.2,0.9c-0.4,2-0.8,4-1.2,6c-0.9,4.4-1.8,9-2.5,13.5
		c-1.4,9.3-2.6,19.1-3.5,29.1c-1.4,14.9-2,26.9-1.9,37.9c0.1,8.5,0.3,15,0.8,21c0,0.7,0.1,1.4,0.2,2.1c0.9,4.7,1.7,9.3,2.4,14
		c1.4,8.3,2.7,16.6,3.9,24.9c0.7-0.7,1.4-1.4,2.1-2.1c2.4-2.5,4.9-5,7.3-7.6c3.7-3.9,7.5-8.3,12-13.7c6.9-8.2,12.8-15.9,17.9-23.5
		c2.3-3.4,4.6-7.2,7-11.6c0.3-0.6,0.6-1.2,0.9-1.8c0.5-0.9,0.9-1.8,1.4-2.7c1.3-2.2,2.6-4.4,3.8-6.6c-0.2,1.1-0.5,2.2-0.6,3.2
		c-0.7,3.9-1.6,8.2-1.5,12.4c-0.2,0.8-0.4,1.6-0.5,2.4c-0.3,1.6-0.5,3.1-0.7,4.7c-0.2,1.7-0.3,3.6,0.1,5.3c0,0.1,0.1,0.2,0.1,0.3
		c-0.5,3.9-0.9,7.8-1.2,11.7c-0.5,7-0.6,14-0.4,21c-0.9,7.1-1.4,13.9-1.5,20.4c-0.1,4.1,0,8,0.1,11.9c-0.2,2.3-0.5,4.5-0.7,6.8
		c-0.2,3-0.5,6-0.6,8.9c-0.4,7-0.7,14.1-0.4,21.1c0.6,14.7,2.5,29.4,5.9,43.7c0.5,2.3,1.1,4.5,1.7,6.7c-14.5,1.3-29,2.7-43.5,4.3
		c-85.7,9.4-170.7,24.3-254.7,43.2c84.3-17.6,169.4-31.2,255.1-39.4c14.8-1.4,29.5-2.6,44.3-3.7c0.7,2.6,1.4,5.2,2,7.8
		c1.4,6.2,2.2,12.5,3.2,18.8c2.1,13.1,5.3,26,8.8,38.8c2,7.4,4.2,14.8,6.6,22.1c-57.5,3.7-114.9,9.1-172.2,16.1
		c-98.5,11.9-196.4,28.3-293.5,48.1c97.4-18.6,195.4-33.7,293.9-44.3c57.8-6.2,115.7-10.9,173.7-13.9c0.7,2,1.4,4.1,2.1,6.1
		c0.4,1.2,0.9,2.5,1.3,3.7c0.2,2.1,1.1,4.1,1.8,6c0.7,1.8,1.4,3.5,2.1,5.3c0.6,1.4,1.2,2.8,1.8,4.2c0.4,1.1,0.8,2.1,1.1,3.2
		c0.1,0.2,0.1,0.4,0.2,0.6c0,0,0,0,0,0l0,0c0.2,0.5,0.4,1,0.8,1.4c0.2,1,0.4,1.9,0.7,2.9c2.1,8.5,6,16.5,10.2,24.2
		c1.4,2.5,3.2,4.9,4.9,7.3c1.7,2.5,3.6,4.8,5.5,7.1c1.7,2.2,3.7,4.1,5.7,6c0.2,0.6,0.5,1.2,0.8,1.7c0,0,0,0,0,0c0-0.2,0-0.5,0.1-0.7
		c0,0,0-0.1,0-0.1c0.6,0.6,1.3,1.1,2,1.7c3.3,4.1,6.9,8.1,11,11.5c0,0,0,0,0,0c-0.3-1-0.6-1.9-0.8-2.9c-0.2-2.6,0-5.1,0.2-7.7
		c0,0,0,0.1,0,0.1c0,0,0-0.1,0-0.1c0-0.1,0-0.2,0-0.3c0-0.4,0-0.8,0-1.2c0-0.4,0-0.7,0.1-1.1c0-0.7,0.1-1.3,0.1-2
		c0.1-0.7,0.1-1.4,0.2-2.1c0.1-0.9,0.1-1.9,0.4-2.8c0-0.1,0.1-0.2,0.2-0.3c0,0,0-0.1,0.1-0.1c0-0.2,0-0.3,0-0.5c0-0.2,0-0.3,0-0.5
		c0-0.1,0-0.1,0-0.2l0,0c0.1-2.4,0.3-4.7,0.4-7.1c0.2-7,0.6-13.9,1.2-20.8c1.1-13,2.7-26,4-39c0.3-2,0.5-3.9,0.8-5.9
		c4.6-0.1,9.2-0.3,13.8-0.4c1.7,5.3,3.7,10.6,5.8,15.8c2.1,4.9,4.1,9.7,6.3,14.5c1.4,3.1,2.9,6.1,4.5,9.2c2.8,5.7,5.8,11.5,8.9,17.1
		c2,3.5,4,7,6.1,10.5c0.2,0.8,0.6,1.5,1,2.3c17.3,28.9,36.2,56.8,56.5,83.5c-6.3,1.8-12.7,3.7-19,5.6
		c-84,25.1-166.1,56.2-245.4,93.3c-79.3,37.1-155.8,80.1-228.7,128.4c73.6-47.3,150.6-89.1,230.3-125c79.7-35.9,162-65.7,246-89.5
		c7.4-2.1,14.7-4.1,22.1-6.1c45.7,58.7,98.9,111.5,158.6,156.5c94.8,71.4,204.3,121.3,318.2,153.7c31.6,9,63.5,16.6,95.7,23.1
		c14.1,2.8,28.5,6.2,42.8,7.7c9.5,1,19.2,1.1,28.8,1.4c10.9,0.3,21.8,0.5,32.7,0.3c10.7-0.1,21.2-1.8,31.8-3.2
		c27.1-3.7,54-8.1,80.8-13.5c102.8-20.9,202.7-57.6,290-116.6c81.1-54.8,148.7-126.3,204.8-206c22,4.9,44,10.2,65.9,15.8
		c92.1,23.6,182.7,53.2,270.7,89.2c88.1,35.9,173.7,78.1,255.9,126.2c-81.6-49.2-166.6-92.5-254.4-129.7
		C2187.7,1656.4,2097.2,1625.4,2005.2,1600.6z M2152.5,357.5c0,0.1,0,0.3,0,0.4c0.1,2.7,0.2,5.4,0.2,8.1c0,3.5,0.1,6.9-0.1,10.3
		c0,0.6,0,1.2-0.1,1.8l-0.2-0.7c0-3.1,0-6.3,0.1-9.4C2152.5,364.5,2152.5,361,2152.5,357.5z M2152.4,379.7c0,0.1,0.1,0.2,0.1,0.4
		c0,0.9-0.1,1.8-0.1,2.7C2152.4,381.8,2152.4,380.8,2152.4,379.7z M2031.5,1434.6c-1.5,0-2.9,0-4.4-0.1c3.2-9.1,5.8-18.3,8.1-27.6
		c0.2-0.5,0.3-1,0.4-1.5c0.1-0.3,0.2-0.5,0.3-0.8c0.3-0.7,0.6-1.5,1-2.2c0.2,0.5,0.4,1.1,0.5,1.6c0,0.1,0.1,0.2,0.1,0.4
		c-0.2-0.5-0.4-1.1-0.5-1.7c0,0,0,0,0,0c0,0,0,0,0,0c1,3.4,2,6.8,3,10.2c0,0.3,0.1,0.6,0.1,0.8c0-0.1,0-0.1,0.1-0.2
		c0,0.1,0.1,0.2,0.1,0.3c0.4,1.5,0.9,2.9,1.3,4.4c0.2,1.5,0.4,2.9,0.6,4.4c0,0,0,0,0,0c0.4,4,0.9,8.1,1.4,12.1
		C2039.5,1434.8,2035.5,1434.7,2031.5,1434.6z M2071.4,1443.5C2071.4,1443.5,2071.4,1443.5,2071.4,1443.5c0,0,0,0.1,0,0.1
		c0,0,0,0,0,0c0,0,0,0.1,0,0.1c-0.7,2-1.5,4-2.2,6c-0.3-1.9-0.6-3.8-0.9-5.6c-0.1-0.5-0.2-1-0.3-1.5c1.3,0,2.5,0,3.8,0.1
		C2071.6,1443,2071.5,1443.2,2071.4,1443.5z M2142,435c0.3,0.2,0.5,0.4,0.8,0.6c0.5,0.5,1,1,1.4,1.6c0.1,0.1,0.2,0.3,0.3,0.4
		c-0.1,0.6-0.2,1.2-0.2,1.7c0,0,0-0.1-0.1-0.1c-0.1-0.2-0.3-0.4-0.4-0.6c-0.4-0.6-0.9-1.1-1.4-1.6c-0.2-0.2-0.5-0.4-0.3-0.6v0
		C2142,436.4,2142,435,2142,435z M1897.1,139.9c0.2-0.1,0.4-0.3,0.6-0.5c-0.1,0.2-0.2,0.3-0.3,0.5c-0.7,0.4-1.4,0.7-2.1,1.1
		C1896,140.7,1896.6,140.3,1897.1,139.9z M1893.8,146.8C1893.8,146.8,1893.8,146.8,1893.8,146.8c0.1-0.3,0.3-0.6,0.4-0.9
		c0.1-0.1,0.2-0.2,0.4-0.3c0,0.1-0.1,0.2-0.1,0.3c0.1-0.1,0.2-0.2,0.3-0.4c0.2-0.2,0.5-0.3,0.7-0.5c-0.5,0.7-1.1,1.4-1.6,2.2
		c0,0,0,0,0,0c0.2-0.4,0.5-0.9,0.7-1.3C1894.2,146.2,1894,146.5,1893.8,146.8z M1883.5,146.4c0.7-0.6,1.4-1.2,2.1-1.8
		c0,0.1,0,0.1,0,0.2c0,0,0.1-0.1,0.1-0.1c-0.2,0.7-0.3,1.4-0.4,2c0,0-0.1,0-0.1,0.1c0.1-0.7,0.3-1.3,0.4-2c-1.3,1.3-2.7,2.7-4,4.1
		c-0.3,0.2-0.6,0.4-1,0.6C1881.6,148.4,1882.5,147.4,1883.5,146.4z M1871.5,160c0.1,0.3,0.1,0.5,0.2,0.8c0,0,0,0,0,0
		c0.2-0.5,0.5-0.9,0.8-1.4c0.2-0.1,0.3-0.2,0.5-0.3c-0.5,0.7-0.9,1.4-1.3,2.1c0,0,0,0,0,0C1871.5,160.9,1871.5,160.5,1871.5,160
		C1871.4,160.1,1871.4,160,1871.5,160z M1831.9,179.2c0.1,0,0.2,0,0.3,0c-0.2,0.1-0.3,0.2-0.5,0.3c0,0,0,0,0,0
		C1831.8,179.3,1831.8,179.3,1831.9,179.2z M1709.5,289.9c0.4-1,0.8-1.9,1.2-2.9c0-0.1,0.1-0.2,0.1-0.2
		C1710.3,287.8,1709.9,288.9,1709.5,289.9c-0.1,0.3-0.1,0.5-0.1,0.6C1709.3,290.3,1709.4,290.1,1709.5,289.9z M1700.6,307.1
		c0.1,0.5,0.2,1.1,0.3,1.6c1-1.4,2.1-2.7,3.1-4c1.4-1.8,3-3.4,4.6-5c0,0,0,0,0,0c0,0,0,0,0,0c0,0,0,0,0,0.1c-1.6,1.6-3.2,3.2-4.6,5
		c-1,1.3-2.1,2.6-3.1,4C1700.8,308.2,1700.7,307.7,1700.6,307.1C1700.6,307.2,1700.6,307.1,1700.6,307.1z M1640.5,387.2
		c0.1,0.4,0.3,0.8,0.4,1.2c0.5,1.6,1,3.2,1.3,4.8c0,0,0,0,0,0c-0.4-1.6-0.8-3.2-1.3-4.8C1640.7,388.1,1640.6,387.7,1640.5,387.2
		C1640.4,387.3,1640.4,387.3,1640.5,387.2z M1093.4,366.2l5.2-0.5c-2.2,0.4-4.3,0.9-6.5,1.3C1092.5,366.8,1092.9,366.5,1093.4,366.2
		z M996.8,392.7l0.2,0.3c-0.1,0.1-0.2,0.2-0.3,0.3c0-0.1-0.1-0.2-0.1-0.3C996.7,393,996.7,392.8,996.8,392.7z M989.8,381.1
		c0.1-0.5,0.2-1.1,0.3-1.6c0.3,1.9,0.6,3.8,1.1,5.7c-0.6-0.7-1.1-1.5-1.8-2.2C989.6,382.5,989.7,381.8,989.8,381.1z M534.7,105.7
		C534.7,105.7,534.6,105.7,534.7,105.7c0.1-0.1,0.4-0.5,0.4-0.5h0c0,0,0,0,0,0l0,0c0,0.1,0,0.4,0,0.4c0,0,0,0.9,0,0.9h0
		c0,0-3.9,2.2-5.8,3C531.1,108.8,532.9,107.6,534.7,105.7z M522.1,1431c0,0.1-0.1,0.2-0.1,0.3c-0.9,4.3-1.7,8.6-2.4,13
		c-0.3,1.9-0.6,3.8-0.9,5.6c-0.7-2-1.5-4-2.2-6c0,0,0-0.1,0-0.1c0,0,0,0,0,0c0,0,0-0.1-0.1-0.1c0,0,0,0,0,0
		c-1.5-4.3-3.1-8.5-4.7-12.7c3.5-0.1,7-0.3,10.5-0.4C522.2,1430.5,522.1,1430.8,522.1,1431z M545.8,1422.7c0.2-1.4,0.4-2.9,0.5-4.3
		c0.4-1.5,0.9-2.9,1.3-4.4c0-0.1,0.1-0.2,0.1-0.3c0,0.1,0,0.1,0.1,0.2c0-0.3,0.1-0.6,0.1-0.8c1-3.4,2-6.8,3-10.2c0,0,0,0,0,0
		c0,0,0,0,0,0c-0.2,0.5-0.4,1.1-0.5,1.7c0-0.1,0.1-0.2,0.1-0.4c0.2-0.5,0.3-1.1,0.5-1.6c0.3,0.7,0.6,1.5,1,2.2
		c0.1,0.3,0.2,0.5,0.3,0.8c0.1,0.5,0.2,1,0.4,1.5c1.3,5.1,2.6,10.3,4.2,15.4C553,1422.4,549.4,1422.5,545.8,1422.7z M1921.8,1579.8
		c-65.1-14.9-130.9-26.8-197.1-36.1c-94.5-13.2-189.8-20.7-285.3-23.4c-0.6-0.1-1.2-0.2-1.8-0.2c-9.8,0-9.8,15.2,0,15.2
		c0.5,0,1,0,1.4-0.1l0,0.3c94.9,1.4,189.9,7.7,284.1,19.5c64.8,8.1,129.2,18.9,193,32.5c-51.6,72.2-105.5,127.8-163.6,171.8
		c-82.2,62.3-177.1,103.4-276.9,127.7c-26.1,6.3-52.4,11.6-78.9,16c-22.4,3.7-45.4,8.3-68.2,8.6c-20,0.2-40.3,0.2-60.3-1.7
		c0,0,0,0-0.1,0c-1.4-0.2-2.7-0.5-4.1-0.7c-4.5-0.8-9-1.6-13.4-2.4c-8.1-1.5-16.2-3.1-24.3-4.7c-15.9-3.2-31.7-6.8-47.5-10.6
		c-114.8-28-225.8-72.8-323.9-139.4c-68.7-46.7-129.8-103.8-181.3-168.7c70.2-18,141.5-32,213.2-41.9c86.4-12,173.5-18.4,260.7-19.8
		l0-0.3c0.1,0,0.3,0,0.4,0c9.8,0,9.8-15.2,0-15.2c-0.8,0-1.6,0.1-2.2,0.3c-87.2,2.7-174.3,10.4-260.5,23.7
		c-73.2,11.3-145.7,26.6-217.1,46.2c-13.3-17.2-26-34.9-38-53.1c-7.5-11.4-14.8-23-21.8-34.8c-0.7-1.2-1.5-2.1-2.4-2.8
		c-0.6-1-1.1-2-1.7-3c-0.8-1.4-1.6-2.9-2.4-4.3c-0.3-0.5-0.5-1-0.8-1.5c-1-1.8-2-3.6-2.9-5.4c-0.4-0.8-0.9-1.7-1.3-2.5
		c-1.3-2.5-2.6-5.1-3.8-7.6c-0.1-0.2-0.2-0.5-0.4-0.7c-1.3-2.6-2.5-5.3-3.8-7.9c-3.9-8-7.9-15.9-11.6-24c10.4-0.2,20.9-0.4,31.3-0.4
		c99-0.7,198,4,296.3,15.1c96.9,10.9,193.1,28.2,287.5,52.1c1.1,0.8,2.6,1.3,4.4,1.3c8.6,0,9.7-11.8,3.1-14.6l0.1-0.5
		c-96.7-23.5-195.1-39.8-293.9-49.7c-98.9-9.9-198.4-13.4-297.6-11.3c-11.4,0.2-22.9,0.5-34.3,0.9c-1.1-2.5-2.1-5-3.1-7.6
		c-2.5-6.4-4.7-12.8-6.5-19.4c-0.1-0.3-0.2-0.7-0.3-1c-0.3-1.1-0.6-2.3-0.9-3.4c-0.2-0.6-0.3-1.3-0.5-1.9c-0.2-0.8-0.4-1.7-0.6-2.5
		c-0.2-0.7-0.3-1.4-0.4-2.1c-0.2-0.8-0.3-1.6-0.5-2.4c-0.1-0.7-0.3-1.4-0.4-2.1c-0.2-1.3-0.5-2.7-0.7-4c0-0.1,0-0.1,0-0.2
		c0,0,0,0,0,0c0-0.3-0.1-0.6-0.1-0.8c0,0,0,0,0,0v0c-0.1-0.1-0.1-0.2-0.2-0.3c-0.5-1-0.9-2-1.4-3c0,0,0-0.1-0.1-0.1
		c-0.1-0.3-0.2-0.5-0.4-0.8c-0.5-1.2-1-2.5-1.5-3.7c0,0,0-0.1,0-0.1c-0.3-0.7-0.5-1.4-0.7-2.1c-0.2-0.5-0.4-1-0.5-1.5
		c-0.1-0.2-0.1-0.5-0.2-0.7c0-0.1-0.1-0.3-0.1-0.4c-0.2-0.1-0.3-0.2-0.4-0.4c-0.2-0.2-0.3-0.4-0.4-0.7c-0.1-0.2-0.2-0.4-0.3-0.5
		c-0.2-0.3-0.3-0.6-0.5-1c-0.4-0.8-0.7-1.6-1.1-2.4c-0.2-0.5-0.5-1-0.7-1.5c-0.1-0.2-0.2-0.5-0.3-0.7c-0.1-0.2-0.2-0.4-0.3-0.6
		c-0.1,0.1-0.1,0.1-0.2,0.2c-0.3-0.4-0.6-0.9-0.9-1.3c0,0,0,0,0,0c-0.1-0.1-0.1-0.2-0.2-0.3c-1.5,2.3-3,4.6-4.3,7
		c-0.8,1.3-1.5,2.7-2.3,4c-0.3,0.4-0.6,0.7-0.8,1.1c-0.6,1.7-1.2,3.3-1.9,5c-0.1,0.1-0.1,0.3-0.2,0.4c-0.5,1.2-0.9,2.5-1.4,3.7
		c-0.1,0.2-0.1,0.3-0.2,0.5c-0.3,0.3-0.5,0.7-0.7,1.1c-0.2,0.5-0.3,1-0.5,1.5c-0.1,0.3-0.2,0.7-0.3,1c-0.2,0.5-0.3,1-0.5,1.5
		c-0.3,0.7-0.5,1.4-0.8,2.1c0,0.1-0.1,0.1-0.1,0.2c-0.2,0.5-0.5,1-0.7,1.6c-0.7,1.7-1.4,3.3-2.1,5c-0.3,0.6-0.5,1.3-0.7,1.9
		c-0.5,1.3-1.1,2.6-1.1,4.1c0,0.1,0,0.2,0,0.2c-1.1,2.7-2.2,5.3-3.2,8.1c-1.1,3.1-2,6.3-2.8,9.5c-0.7,2.9-1.4,5.9-1.8,8.9
		c-0.2,1.1-0.3,2.3-0.5,3.4c-4.5,0.2-9.1,0.5-13.6,0.7c-0.6-1.6-1.3-3.1-1.9-4.7c-0.6-1.6-1.2-3.3-1.7-4.9c-1.2-3.1-2.3-6.1-3.4-9.2
		c-0.2-0.5-0.4-1.1-0.6-1.6c-2.4-6.4-4.4-12.9-6.4-19.5c-0.2-0.5-0.3-1-0.4-1.6c-1.1-3.9-2.1-7.9-3-12c-0.2-0.8-0.3-1.5-0.5-2.3
		c-0.1-0.7-0.2-1.5-0.4-2.2c-0.2-1-0.4-2-0.5-3.1c0,0.1,0,0.1,0,0.2c0,0,0,0,0,0v0c0,0,0,0,0,0c0,0,0,0,0,0l0,0c0,0,0,0,0,0
		c0,0,0,0,0,0c0,0,0,0,0,0c0,0,0,0,0,0c0,0,0,0,0,0c0,0,0,0,0,0c0,0,0,0,0,0c0,0,0,0,0,0c0,0,0-0.1,0-0.1c0,0,0,0,0,0c0,0,0,0,0,0
		c0,0,0,0,0,0c0,0,0,0,0,0c0,0,0,0,0,0c0,0,0-0.1,0-0.1c0,0,0,0,0,0c0,0,0,0,0,0l0,0c0,0,0,0,0,0c0,0,0-0.1,0-0.1l0,0c0,0,0,0,0,0
		c0,0,0,0,0,0c0,0,0,0,0,0c0,0,0,0,0-0.1c0,0,0-0.1,0-0.1c0,0,0-0.1,0-0.1c0,0,0,0,0,0c0,0,0,0,0,0c0,0,0,0,0,0
		c0-0.3-0.1-0.5-0.1-0.8c0,0,0,0,0,0c0,0,0,0,0-0.1c0,0,0,0.1,0,0.1c0,0,0-0.1,0-0.1c0,0,0-0.1,0-0.1c0-0.1,0-0.1,0-0.2
		c0-0.3-0.1-0.5-0.1-0.8c0,0.1,0,0.3,0.1,0.4c0-0.1,0-0.3-0.1-0.4c0,0.2,0.1,0.4,0.1,0.6c0,0,0,0,0,0c-0.1-0.5-0.2-1.1-0.2-1.6
		c-0.1-1.1-0.3-2.1-0.4-3.2c0-0.2,0-0.4,0-0.7c-0.7-2.4-1.4-4.9-2.1-7.4c-0.2-0.9-0.5-1.9-0.7-2.8c-0.1-0.5-0.3-1-0.4-1.5
		c-0.3-1.1-0.5-2.3-0.8-3.4c-0.1-0.3-0.1-0.6-0.2-0.9c-0.2-1.1-0.4-2.2-0.6-3.3c63.8-3.9,127.8-4.5,191.7-1.3
		c85.8,4.3,171.2,15.7,254.7,35.2c83.4,19.4,164.8,46.9,242.7,82.2c1.2,1,2.8,1.7,4.8,1.7c9.2,0,9.8-13.5,1.6-15.1l0.1-0.3
		c-79.4-34.7-162.2-61.3-246.7-79.6c-84.5-18.4-170.7-28.6-256.9-31.7c-64.3-2.3-128.7-0.7-192.8,4.2c-0.1-0.8-0.3-1.5-0.4-2.3
		c0-0.3-0.1-0.5-0.1-0.8c-0.2-1.2-0.3-2.4-0.5-3.5c-0.1-1-0.2-2.1-0.3-3.1c-0.1-1.3-0.3-2.5-0.3-3.8c-0.2-1.2-0.4-2.3-0.5-3.5
		c0-0.2-0.1-0.4-0.1-0.7c-0.2-1.3-0.3-2.6-0.4-3.8c-0.2-1.6-0.3-3.2-0.4-4.8c0-0.1,0-0.3,0-0.4c0-0.3,0-0.5-0.1-0.8
		c-0.1-1.3-0.1-2.5-0.2-3.8c-0.1-1.7-0.1-3.5-0.2-5.2c-0.1-4.8-0.2-9.7-0.2-14.5c0-1,0-2.1,0-3.1c0-0.5,0-0.9,0-1.4
		c0-0.6,0.4-1.7,0.4-1.7v0c0,0-0.6-3.9-0.5-5.9c-0.2-1-0.3-2.1-0.5-3.1c0-1,0-2,0-3c-0.3-1.2-0.5-2.4-0.5-3.6c0.1-1,0.3-2.1,0.4-3.1
		c-0.1-3.4-0.1-6.9-0.2-10.3c0.2-1.6,0.5-3.2,0.7-4.8c0-0.3,0-0.6,0-0.9c-0.1-3.5-0.1-6.9-0.1-10.4c0-3.3,0.1-6.6,0.3-10
		c0.3-6.4,0.9-12.8,1.7-19.1c0.4-6.4,0.9-12.9,1.3-19.3c1-14.1,1.8-28.3,3.1-42.4c0.3-3.2,0.6-6.3,1-9.5c0.1-0.8,0.2-1.7,0.3-2.5
		c0.1-0.9,0.2-1.7,0.3-2.6c0.1-0.8,0.2-1.5,0.3-2.3c0.1-1,0.3-2.1,0.4-3.1c0.1-0.4,0.1-0.7,0.2-1.1c0.2-1.6,0.5-3.3,0.8-4.9
		c0-0.3,0.1-0.6,0.1-0.8c0.3-1.6,0.5-3.1,0.8-4.7c0.1-0.4,0.2-0.8,0.2-1.3c0.3-1.3,0.5-2.6,0.8-4c0.1-0.4,0.2-0.9,0.3-1.3
		c0.4-1.6,0.7-3.3,1.1-4.9c0,0,0-0.1,0-0.1c0-0.1,0.1-0.2,0.1-0.4c0,0,0,0,0,0c0,0,0,0,0,0c0,0,0,0,0,0c0,0,0,0,0,0
		c-0.5,0.3-1,0.5-1.4,0.8l0,0c0,0,0,0,0,0c-0.6,0.5-1.2,1-1.8,1.4c-0.1,0.1-0.3,0.2-0.4,0.3c0,0,0,0,0,0c-0.3,0.2-0.6,0.5-0.9,0.7
		c0,0,0,0,0,0c-0.3,0.3-0.6,0.5-1,0.8c0,0-0.1,0.1-0.1,0.1c-0.1,0.1-0.2,0.1-0.2,0.2c0,0,0,0,0,0c-0.3,0.2-0.6,0.5-0.9,0.8
		c0,0,0,0,0,0c-0.2,0.1-0.4,0.3-0.5,0.4c0,0,0,0,0,0c-0.1,0.1-0.2,0.2-0.3,0.3c-0.1,0.1-0.1,0.1-0.2,0.2c-0.1,0.1-0.3,0.2-0.4,0.4
		c0,0,0,0,0,0c-0.5,0.5-1.1,0.9-1.6,1.4c0,0,0,0,0,0c0,0-0.1,0.1-0.1,0.1c0,0,0,0,0,0c-0.6,0.6-1.2,1.1-1.9,1.7
		c-0.5,0.4-0.9,0.8-1.4,1.3c-1.1,1.1-2.2,2.1-3.3,3.2c-0.3,0.3-0.7,0.7-1,1c-0.7,0.7-1.3,1.4-2,2.1c-0.1,0.1-0.1,0.1-0.2,0.2
		c0,0,0,0,0,0c-0.8,0.9-1.6,1.8-2.4,2.7c-1.7,2-3.4,4-5.1,6c-1.7,2.1-3.5,4.3-5.2,6.4c0,0,0,0,0,0c-0.9,1.2-1.9,2.4-2.8,3.7l0,0
		c0,0,0,0,0,0c-0.1,0.1-0.1,0.1-0.2,0.2c0,0,0,0,0,0c-0.8,1-1.6,2-2.3,3c0,0,0,0,0,0l-2.2,2.8c0,0,0,0,0-0.1
		c-1.6,2.1-3.2,4.3-4.7,6.5c-1,1.5-2,2.9-3,4.4c-1.2,1.5-2.4,3-3.6,4.6c-2.1,2.8-4,5.7-5.7,8.7c-0.9,1.1-1.7,2.2-2.5,3.3
		c-1,1.4-2,2.9-2.8,4.5c-0.2,0.1-0.3,0.2-0.5,0.3c-0.5,0.5-1,1.1-1.3,1.8c-1.9,2.5-3.7,4.9-5.4,7.5c-0.4,0.6-0.7,1.1-1.1,1.7
		c-0.1-0.1-0.2-0.3-0.2-0.4c-0.2-0.5-0.2-1.1-0.3-1.6c0,0,0,0,0.1,0c-0.4-2.2-0.6-4.5-0.8-6.7c-0.2-2.7-0.3-5.4-0.4-8.2
		c0-1.4,0-2.8,0-4.1c0-0.7,0.1-1.4,0.1-2c0.1-0.6,0.1-1.3,0.2-1.9c0.1-1.1,0.2-2.2,0.4-3.2c0.1-0.9,0.3-1.9,0.5-2.8
		c-0.2,0.3-0.3,0.5-0.5,0.8c0.4-1.5,0.7-2.9,1.1-4.4c0-0.6,0-1.3,0-1.9c0-0.6,0-1.2,0.1-1.8c0.1-0.8,0.1-1.7,0.2-2.6
		c0.1-0.7,0.2-1.5,0.3-2.3c0.4-2.8,0.9-5.5,1.4-8.3c0.5-2.6,0.9-5.1,1.4-7.7c0.3-1.4,0.5-2.7,0.8-4.1c0.3-1.4,0.6-2.8,0.9-4.2
		c0.3-1.4,0.7-2.9,1-4.3l0.6-2.2c0.1-0.3,0.2-0.6,0.2-0.9c0.1-0.6,0.2-1.2,0.4-1.8c0.3-1.4,0.6-2.8,1-4.2c0.1-0.4,0.2-0.8,0.3-1.2
		c0.2-1.2,0.5-2.4,0.7-3.7c0.2-1.3,0.5-2.7,0.8-4c0.6-2.7,1.3-5.4,2-8c0.1-0.3,0.2-0.6,0.3-0.9c0.2-1.1,0.5-2.2,0.8-3.2
		c0.2-0.7,0.4-1.4,0.5-2c0.1-0.5,0.3-1.1,0.4-1.6c0.4-1.3,0.8-2.7,1.2-4c0.2-0.6,0.4-1.2,0.6-1.8c1.9-9,4.1-18.5,6.9-29
		c0.6-2.3,1.2-4.6,1.8-6.8c1.2-4.6,2.4-9.4,3.8-14.1l6.7-22.6c3.3-11.1,7.1-22.3,10.7-33c0.9-2.7,1.8-5.4,2.7-8.1
		c2.1-6.2,4.4-12.3,6.7-18.3c1.1-2.8,2.1-5.6,3.2-8.4c1.9-4.3,3.9-8.6,5.8-12.9l2.9-6.4l1.2-2.6l2.4-5.3c0.6-1.4,1.4-2.7,2.2-4
		c0.4-0.6,0.8-1.3,1.1-2c1.3-2.3,2.5-4.6,3.8-6.8c3.1-5.7,6.4-11.6,9.4-17.4c1.5-2.8,3.1-5.6,4.7-8.3c1-1.8,2.1-3.6,3.1-5.4
		c3.8-6.8,7.7-14.4,12.1-23.1c1.7-3.5,3.6-6.9,5.5-10.3c0.8-1.4,1.6-2.9,2.4-4.4c2.8-5.1,5.4-9.8,8-14.5c2.4-4.3,5.1-8.5,7.7-12.5
		l0.9-1.4c1.6-2.5,3.2-5.1,4.9-8c-0.2-0.6-0.4-1.3-0.5-2c-0.1-0.4-0.3-0.8-0.4-1.2c-0.2,0.2-0.5,0.3-0.7,0.5c-0.7-1.3-1.5-2.6-2.2-4
		c0-0.1-0.1-0.2-0.1-0.2c-0.2-0.4-0.4-0.8-0.6-1.2c-0.7-1.4-1.4-2.8-2.1-4.2c-0.1-0.2-0.2-0.3-0.2-0.5c-1.5-3.2-3-6.5-4.5-9.7
		c-0.6-0.8-1.3-1.7-1.7-2.6c-0.6-1.2-1.1-2.4-1.7-3.5c-0.8-1.6-1.5-3.2-2.3-4.8c-1.6-3.4-3.1-6.8-4.6-10.3c-0.1-0.2-0.2-0.4-0.3-0.6
		c-0.5-0.7-0.9-1.4-1.3-2.2c-0.2-0.5-0.4-1-0.7-1.5c-0.4-0.9-0.8-1.8-1.2-2.6c-0.6-1.5-1.3-3-1.9-4.5c-1.7-4.1-3.5-8.2-5-12.4
		c-1.4-3.7-2.5-7.5-3.5-11.3c0-0.1,0-0.2-0.1-0.3c-0.8-1-1.4-2.1-1.8-3.3c-2.2-6-3.8-12.2-5.5-18.4c-1.5-5.6-2.9-11.2-4.2-16.8
		c-1.8-7.5-3.5-15-5.1-22.5c-0.5-1.4-0.9-2.8-1.4-4.2c-1.9-6.4-3-13-4-19.5c-0.1-0.4-0.1-0.8-0.2-1.2c-0.5-2.4-1-4.7-1.5-7.1
		c-0.1-0.5-0.2-1-0.3-1.5c-0.4-1-0.8-2.1-1-3.2c-0.1-0.7-0.3-1.4-0.4-2.2c-0.2-1.3-0.4-2.5-0.6-3.8c-0.3-1.4-0.6-2.7-0.9-4.1
		c-1.1-5.2-2.1-10.4-3-15.6c-0.2-1.3-0.4-2.5-0.6-3.8c-0.1-0.4-0.2-0.7-0.2-1.1c-1.3-6.1-2.5-12.3-3.1-18.6
		c-0.1-1.3-0.3-2.5-0.4-3.8c-1-4.9-1.9-9.9-2.7-14.9c-2.2-14-4.4-28.1-6.2-42.2c-1.8-13.9-3.4-27.7-5-41.6c-0.7-6.7-1.5-13.5-2-20.2
		c-0.6-7.7-1.1-15.4-1.6-23.2c-0.8-13.8-1.2-27.6-1.8-41.4c-0.6-13.1-1.1-26.2-1.1-39.3c0.1-14.5,0.4-29.1,1-43.6
		c0.3-6.2,0.6-12.4,1.3-18.6c0.4-3.6,0.7-7.2,1.2-10.8c0.1-0.8,0.1-1.6,0.2-2.3c0.4-4.5,0.6-9,1.3-13.4c0.4-2.8,0.9-5.6,1.3-8.4
		c0.1-0.5,0.1-1.1,0.2-1.6c0.5-4.4,1.3-8.8,1.9-13.2c0.4-3,1-5.9,1.6-8.8c0.7-3.2,1.3-6.4,2.2-9.6c0.9-3.3,1.8-6.6,2.9-9.9
		c0.2-0.6,0.4-1.1,0.5-1.7c0.3-1.1,0.6-2.3,0.9-3.4c0.9-3.3,1.9-6.6,2.9-9.9c0.6-1.9,1.2-3.8,1.8-5.7c0.3-0.8,0.5-1.6,0.8-2.4
		c0.2-0.6,0.4-1.2,0.6-1.8c0.1-0.5,0.2-1,0.4-1.4c0.4-1.2,0.7-2.5,1.1-3.7c0.5-1.8,1.2-3.5,1.8-5.2c0.5-1.3,0.9-2.6,1.4-3.9
		c0.1-0.4,0.2-0.7,0.3-1c0.6-2.3,1.3-4.6,2.2-6.8c0.3-1.1,0.8-2.1,1.5-2.9c0.8-4.5,1.6-9,2.5-13.5c0.2-0.1,0.4-0.2,0.5-0.3
		c0.6-0.6,0.9-1.3,1.1-2.1l0.1-0.4l0.3-1c0.6,0.3,1.3,0.6,2.1,0.8l0.6,0.2c0.7,0.2,1.4,0.4,2.2,0.4c0.5,0.2,1.1,0.4,1.6,0.6l0.2,0.1
		c0.4,0.2,0.7,0.4,1.1,0.6c0.9-0.4,2-0.7,3-0.9c2.5,1.4,5,2.8,7.4,4.2c2.4,1.4,4.9,2.6,7.2,4.1c3.1,1.9,6.2,3.9,9.2,5.8
		c5.9,7.7,13.3,14.3,21.1,20c3.9,2.9,8,5.1,12.3,7.1c4.2,2,8.5,3.8,12.9,5.4c1.7,1.5,3.4,3,5.2,4.5c0.6,0.6,1.3,1.1,1.9,1.7
		c-1.4-0.8-2.7-1.5-4.1-2.3c0,0,0,0,0,0c0,0,0,0,0,0c1.6,2.3,3.2,4.7,4.8,7c-5.5-2.5-11.1-4.8-16.8-6.7c-6.4-2.2-13-3.9-19.3-6.2
		c0,0,0,0,0,0c0,0,0,0,0,0c9.3,9.6,20.1,18.1,31.5,25.1c5.3,3.2,11,5.7,16.7,8c2.6,1.1,5.3,2.1,8,3c3.8,3.4,8,6.5,12.3,9.3
		c0.1,0.1,0.2,0.2,0.4,0.4c2.9,2.7,6.1,5.1,9.3,7.5c0.2,0.2,0.3,0.4,0.5,0.6c2.4,2.8,4.7,5.7,7.1,8.5c-2.3-1.7-4.7-3.4-7.1-5.1
		c-5.8-4.1-11.6-8-17.7-11.7c-3.5-2.1-7-4.3-10.7-6.2c0,0,0,0,0,0c0,0,0,0,0,0c3.7,3.2,7.1,6.6,10.7,10c3.8,3.7,7.7,7.3,11.7,10.9
		c6.9,6.3,14.1,12.4,21.5,18.1c0.9,6.4,4.7,12.1,8.3,17.3c2.7,3.9,5.7,7.4,9.3,10.5c5.1,4.4,10.8,7.8,16.9,10.6
		c2.4,3.1,4.7,6.2,7.1,9.3c3.8,2,7.1,4.5,10.1,7.4c0.3,0.6,0.6,1.3,0.9,1.9c-3.1-3.2-6.6-5.9-10.6-8c-0.4-0.2-0.9-0.5-1.3-0.7
		c-3.1-1.4-6.3-2.7-9.6-3.5c-5.3-1.3-11-1.4-16.1-3.5c-0.3-0.1-0.6-0.3-0.9-0.4c0,0,0,0,0,0c0,0,0,0,0,0c1.6,9.1,8.5,15.8,14.9,21.8
		c3.2,3,6.8,5.4,10.6,7.6c0.3,0.1,0.5,0.3,0.8,0.4c0.6,1.2,1.3,2.4,2,3.6c2.4,4.1,5.4,7.9,8.6,11.3c1.8,1.9,3.9,3.4,5.9,5
		c2.2,1.6,4.5,3,6.9,4.3c2.8,1.5,5.7,2.8,8.7,3.8c1.2,6,2.7,11.9,4.7,17.6c2.3,6.6,5,13.1,8.2,19.3c2,3.8,4.1,7.6,6.5,11.2
		c2,2.9,4.2,5.7,6.4,8.5c1.4,1.8,2.9,3.5,4.3,5.2l13.3,81.4c-4.1-2.8-8.4-5.3-13-7.3c0,0,0,0,0,0c0,0,0,0,0,0c2.7,7.2,5,14.5,8,21.5
		c2.3,5.5,5,10.9,8.1,15.9c0.8,1.3,1.6,2.5,2.5,3.7l0.2,1.3c-0.9-0.5-1.8-1.1-2.6-1.7c-1.2-1-2.2-2-3.2-3.2
		c-0.5-0.7-0.9-1.5-1.3-2.2c0,0,0,0,0,0c0,0,0,0,0,0c-0.1,1.7-0.1,3.3,0.1,5.1c0.3,1.8,1.1,3.6,1.9,5.3c0.9,1.8,2.1,3.4,3.3,4.9
		c0.3,0.3,0.6,0.6,0.8,1c-3.7-1.1-7.4-2-11.2-2.7c0,0,0,0,0,0c0,0,0,0,0,0c1,1.8,2.1,3.6,3.3,5.4c2.2,0,4.3,0.9,5.8,2.5
		c1.6,1.6,2.5,3.8,2.5,6c0,0.1,0,0.2,0,0.3c0.8,0.1,1.7,0.3,2.5,0.6c0.5,0.2,1.1,0.5,1.6,0.7l0.2,0.9c-1.2-0.3-2.4-0.6-3.6-0.7
		c-2.7-0.4-5.4-0.5-8-0.5c-4.1,0-8.2,0.4-12.4,0.9c0,0,0,0,0,0c5.5,3.9,11.3,7.2,17.8,9.2c1.1,0.3,2.2,0.6,3.4,0.8
		c-0.3,0.7-0.6,1.4-0.9,2.1c-3.4,0.8-6.7,1.9-9.8,3.5c-2.5,1.2-4.8,2.8-7.1,4.4c-2.9,2.1-6.1,4.4-8.3,7.3c0,0,0,0,0,0
		c2-0.7,4.2-0.9,6.3-1.3c1.5-0.3,3-0.6,4.5-1c1.3-0.3,2.7-0.7,4-1.2c-0.1,0.1-0.2,0.2-0.4,0.3c0,0,0,0,0,0c-1.5,1.1-2.9,2.2-4.4,3.3
		c-2,1.5-3.9,3.1-5.9,4.7c0.6-0.1,1.2-0.3,1.8-0.4c-2.4,1.8-4.6,3.7-6.8,5.7c-0.7,0.3-1.3,0.6-2,0.9c-1.4,1.3-2.8,2.6-4.2,3.9
		c0,0,0.1,0,0.1,0c0.4,0,0.8,0.1,1.2,0.2c0.2,0,0.4,0.1,0.6,0.1c0.3,0,0.5,0.1,0.8,0.2c0.2,0,0.4,0.1,0.6,0.1
		c0.3,0.1,0.5,0.2,0.8,0.2c0.2,0.1,0.4,0.1,0.5,0.2c0.4,0.1,0.8,0.3,1.2,0.5c0,0,0.1,0,0.1,0.1c0.9-0.3,1.9-0.7,2.8-1
		c3.2-1.2,6.4-2.4,9.5-3.6c0.8-0.3,1.5-0.6,2.3-0.9L756,601c-0.1,0.2-0.2,0.4-0.3,0.6c-0.3,0.7-0.7,1.3-1,2c0.2-0.2,0.4-0.5,0.6-0.7
		l-0.7,1.8c-0.1,0.1-0.1,0.3-0.2,0.4c-1.2,2.7-2.3,5.4-3.3,8.1c0.2-0.2,0.3-0.4,0.5-0.5l-0.6,1.5c0.3-0.7,0.7-1.4,1.2-2.1
		c1.5-1.7,3.1-3.5,4.6-5.2c-0.2,0.5-0.5,1.1-0.7,1.6c0,0,0,0,0,0c0.7-1,1.4-2,2.1-3.1c-0.1,0.4-0.1,0.8-0.2,1.2
		c0.1-0.1,0.2-0.2,0.3-0.4c-0.2,1.1-0.3,2.2-0.5,3.3c0.8-1.1,1.6-2.1,2.4-3.2c5.2-4.6,10.1-9.4,14.9-14.4c2.5-2.6,4.8-5.5,7.1-8.3
		c0.2-0.2,0.4-0.5,0.6-0.7l0.1,0.8c-0.2,0.2-0.3,0.4-0.5,0.6c-2.3,2.8-4.6,5.7-7.1,8.4c-4.8,5.1-9.8,9.9-15,14.5
		c-0.9,1.1-1.7,2.3-2.6,3.4c0,0,0,0,0,0c0-0.3,0.1-0.7,0.1-1c-0.1,0.1-0.1,0.1-0.2,0.2c0,0,0,0,0,0c0.1-1.1,0.2-2.1,0.4-3.2
		c-0.6,0.9-1.3,1.8-1.9,2.7c0,0,0,0,0,0c0.2-0.6,0.5-1.1,0.7-1.6c-2.1,2.3-4.2,4.7-6.2,7.1c0,0,0,0,0,0c0.2-0.5,0.3-0.9,0.5-1.4
		c-0.2,0.2-0.3,0.4-0.5,0.6c0,0,0,0,0,0c1.1-3.2,2.4-6.3,3.8-9.5c0.1-0.2,0.2-0.4,0.3-0.7c-1.6,1.9-3.2,3.7-4.7,5.6
		c-2.6,3.2-5.3,6.4-7.9,9.6c-3.2,4.3-6.4,8.6-9.6,12.9c-3.6,5-7.3,10-10.9,15c-1.9,2.7-3.9,5.3-5.8,8c-0.9,1.2-1.7,2.3-2.6,3.4
		c1.2-0.6,2.4-1.3,3.7-1.9c1.2-1.2,2.3-2.5,3.5-3.6c5.1-5.1,10.1-10.2,15.3-15.1c3.5-3.4,7.1-6.8,10.7-10.1
		c3.6-3.3,7.2-6.7,10.9-9.8c2.5-2.2,5.1-4.4,7.6-6.5c1.4-1.2,2.7-2.4,4.1-3.5c3.9-3.1,7.8-6.1,11.7-9.2c2.9-2,5.8-4.1,8.7-6.1
		c2.4-1.7,4.8-3.5,7.3-5.1c3.8-2.3,7.7-4.6,11.5-7c3.3-2,6.7-4,10-5.9c-1.5,0.5-2.9,0.9-4.4,1.5c-0.2,0.1-0.4,0.2-0.6,0.3
		c0,0,0,0,0,0c-0.1,0-0.1,0.1-0.2,0.1c0,0,0,0,0,0c0.1-0.4,0.3-0.7,0.4-1c0,0-0.1,0-0.1,0c-0.2,0.1-0.4,0.2-0.6,0.3c0,0,0,0,0,0
		c-0.1,0-0.1,0.1-0.2,0.1c0,0,0,0,0,0c0.6-2.2,3.1-4.3,4.9-5.5c0.8-0.5,1.5-0.9,2.3-1.2c-0.3-0.4-0.3-1.1,0.3-1.5c0,0,0,0,0.1,0
		c0.1-0.1,0.2-0.3,0.3-0.4c0.2-0.3,0.4-0.6,0.6-0.8c0,0,0,0,0,0c0,0,0,0,0,0c0,0,0,0,0,0c0,0,0-0.1,0.1-0.1c0.1-0.2,0.2-0.3,0.4-0.5
		c0.1-0.2,0.2-0.4,0.3-0.6c0,0.5,0,1,0,1.5c0,0.1-0.1,0.1-0.1,0.2c0,0,0,0.1-0.1,0.1c0,0,0,0,0,0c0,0,0,0,0,0c0,0,0,0,0,0
		c-0.2,0.3-0.4,0.6-0.6,0.8c-0.1,0.1-0.2,0.3-0.3,0.4c0,0,0,0-0.1,0c-0.5,0.4-0.6,1-0.3,1.5c-0.8,0.3-1.6,0.7-2.4,1.2
		c-1.6,1-3.5,2.7-4.5,4.5c1.4-0.5,2.8-1,4.2-1.4c0.5-0.2,0.9-0.3,1.4-0.5c1-0.6,2-1.1,3-1.6c0,0,0,0,0,0c0.1,0,0.1-0.1,0.2-0.1
		c0.3-0.1,0.6-0.3,0.8-0.4c0,0,0,0,0,0c0.1,0,0.1-0.1,0.2-0.1c0.2-0.1,0.3-0.2,0.5-0.3c0,0,0,0,0,0c0.5-0.2,0.9-0.5,1.4-0.7
		c1-0.6,1.9-1.1,2.9-1.6c0-0.2,0-0.4,0-0.6c0,0,0-0.1,0-0.1c0,0,0,0,0,0h0c0-0.2,0-0.3,0-0.5c0,0,0,0,0,0c0-0.2,0-0.4,0-0.6
		c0,0,0,0,0,0c0-0.9,0.1-1.8,0.1-2.7c0,0,0-0.1,0-0.1c0-0.3,0-0.6,0.1-0.9c0,0,0,0,0-0.1c0-0.3,0-0.6,0.1-0.8
		c-0.1-1.7-0.2-3.4-0.5-5.1c-0.4-2.2-0.9-4.3-1.8-6.4c-1.8-4.3-4.3-7.9-7-11.6c-0.2-8.2-1.1-16.3-2.5-24.4
		c-1.1-6.1-2.5-12.1-4.7-17.9c-1.6-4.3-3.5-8.6-5.5-12.8c-0.3-1.3-0.7-2.5-1-3.8c-1.6-5.7-3.5-11.3-5.6-16.9
		c-2.1-5.2-4.3-10.4-6.7-15.6c-3.3-7.3-6.9-14.4-10.7-21.4c-3.5-6.6-7.2-13.1-11-19.6c-2.6-5.9-5.5-11.7-8.8-17.2
		c-3.7-6.1-8.1-11.8-12.7-17.1c0,0-0.1-0.1-0.1-0.1c-0.7-1-1.3-2-2-3l0.1,0.9c-3.7-4.2-7.5-8.3-11.5-12.2c-0.6-0.6-1.2-1.2-1.8-1.8
		c-2.5-2.5-5-4.9-7.4-7.4c1.1,0.3,2.2,0.7,3.4,1c0.2,0.1,0.4,0.1,0.6,0.1c1.1,1.8,2.2,3.6,3.4,5.4c0.6,0.6,1.2,1.2,1.8,1.8
		c2.4,2.4,4.8,4.8,7.1,7.3l1,1.8c0-0.2,0-0.5-0.1-0.7c1.9,2,3.7,4.1,5.5,6.2c4.7,5.4,9.1,11.1,12.8,17.3c3.7,6.1,6.9,12.6,9.6,19.2
		c0.4,0.7,0.8,1.4,1.2,2c3.1,5.2,6,10.5,8.9,15.8C789,437.5,795,450,800,462.8c2.2,5.6,4,11.2,5.7,17c0.4,1.3,0.7,2.5,1,3.8
		c2,4.2,3.9,8.5,5.6,12.8c2.2,5.8,3.6,11.9,4.7,18.1c1.4,8.2,2.3,16.4,2.5,24.6c2.7,3.7,5.3,7.4,7.1,11.7c0.9,2,1.4,4.2,1.8,6.4
		c0,0,0,0,0,0c0.1-4.5-0.7-9.1-1.4-13.5c-0.5-3.5-1-7-1.6-10.4c-1.1-7.4-2.2-14.8-3.5-22.2c-2.8-14.8-6.3-29.5-10.7-44
		c-4.5-14.5-9.7-28.8-15.6-42.8c-3.1-7.4-6.3-14.8-9.9-22c-3.4-7-6.9-14.1-10.6-21c-7.1-13-14.4-26-22.3-38.5
		c-8.1-12.7-16.3-25.2-25.3-37.3c-9.6-12.9-19.4-25.8-29.3-38.5c-9.4-12.1-18.8-24.2-28.6-35.9c-4.9-6-9.9-11.9-14.9-17.8
		c-5-5.9-10.2-11.6-15.3-17.4c-5-5.6-10.2-10.9-15.5-16.2c-2.4-2.3-4.6-4.7-7.1-7c-3.3-3-6.5-5.9-9.8-8.9c-1-1-2.2-1.8-3.3-2.7
		c-2-1.7-4-3.3-6.1-5c-3.4-2.8-6.9-5.3-10.4-7.9c-5.3-4-10.9-7.7-16.5-11.3c-6.6-4.3-13.2-8.7-20-12.8c-3.6-2.2-7.2-4.5-10.8-6.7
		c-2.9-1.8-5.9-3.4-8.9-5c0.9,0.1,1.7,0.1,2.6,0.2c2.8,0.4,5.5,0.8,8.2,1.3c4.1,0.8,8.1,1.7,12.1,2.6c6.9,1.6,13.8,3.3,20.7,5
		c7.6,1.8,15.3,3.6,22.9,5.6c1.5,0.4,3,0.9,4.5,1.4c1.7,0.5,3.4,1,5.1,1.6c3.6,1.3,7.2,2.4,10.7,3.8c3.9,1.5,7.7,3,11.5,4.6
		c12.6,5.4,25.2,10.9,37.9,16.4c13.2,5.7,26.5,11.2,39.9,16.7c6.2,2.8,12.5,5.4,18.6,8.4c4.2,2.1,8.4,4.2,12.7,6.3
		c3.4,1.7,6.6,3.7,9.9,5.5c13,7.2,25.4,15.3,37.4,24c2,1.5,4,2.9,6.1,4.4c5.6,4.4,11.2,8.7,16.7,13.2c2.6,2.2,5.2,4.4,7.7,6.6
		c2.6,2.3,5.2,4.5,7.7,6.9c11.5,11,22.8,22.2,34.2,33.2c21.5,20.7,44.6,39.8,64.8,61.9c10.3,11.3,20.3,23,31.2,33.8
		c5.1,5,10.7,9.4,16,14.2c1.1,1,2.1,2,3.2,3.1c1,1,1.9,2,2.8,3c0.3,0.5,0.7,1,1,1.4c0,0,0,0,0,0c0-0.2,0-0.3,0-0.5c0,0,0,0,0,0
		c0.8,0.7,1.8,1.5,2.8,2.2c0.9,0.3,1.7,0.8,2.5,1.4c0.3,0.3,0.7,0.5,0.9,0.8c0.8,0.8,1.7,1.6,2.5,2.4c0.7,0.7,1.5,1.5,2.2,2.2
		c0.8,0.7,1.7,1.4,2.5,2.1c0.6,0.5,1.3,1,1.9,1.6c0.7-0.4,1.5-0.7,2.2-1.1c3.1-1.2,6.2-2.5,9.2-3.8c2.8-0.8,5.6-1.6,8.4-2.4
		c9.4-2.8,18.7-6,27.8-9.5c1.1-0.4,2.2-0.8,3.3-1.2c1.8-0.5,3.6-1,5.4-1.5c3.2-0.9,6.4-1.6,9.6-2.3c7.8-1.9,15.7-3.7,23.6-5.4
		c14.6-3.2,29.3-6.1,44.1-8.9c6.2-1.2,12.3-2.2,18.5-3.2c-0.8,0-1.6,0.1-2.4,0.1c-7.2,0.1-14.5,0.1-21.7,0
		c-7.8,1.7-15.7,2.9-23.7,3.8c0,0,0,0,0,0c0,0,0,0,0,0c0,0,0,0,0,0c0,0,0,0,0,0c2.9-3.1,5.9-6.2,9-9.1l0.1,0c-3.1,3-6.1,6-9,9.1
		c8-0.9,15.9-2.2,23.7-3.8c7.2,0.1,14.5,0.2,21.7,0c0.9,0,1.9-0.1,2.8-0.1c-0.1,0-0.3,0-0.4,0.1c0.1,0,0.3,0,0.4,0
		c4.9-0.1,9.7-0.3,14.6-0.5c15.5-0.4,31-1.6,46.4-3.6c1-0.1,2-0.3,3-0.4c4.1-0.5,8.2-1.1,12.2-1.8c4.3-0.3,8.6-0.7,12.9-1.1
		c16.6-1.6,33.1-4.3,49.5-7c0.2,0,0.3-0.1,0.5-0.1c-0.2,0-0.3,0-0.5,0c5.4-0.9,10.7-1.7,16.1-2.6c8.9-1.1,17.9-2.1,26.8-2.8
		c7.4,0.7,14.8,1.4,22.2,2c7,0.6,13.9,1.1,20.9,1.6c4.1,0.3,8.1,0.6,12.2,0.9c-0.4,0-0.8,0-1.2,0c0.4,0,0.8,0.1,1.2,0.1
		c2.2,0.2,4.3,0.4,6.5,0.6c12,1.2,24,2.1,36,3.4c6.1,0.9,12.2,2.1,18.2,3.6c7.1,1.8,14.1,3.9,21.1,5.7c11.5,2.9,23.3,5.2,35,7.2
		c0.2,0,0.3,0.1,0.5,0.1c4,1.2,8,2.4,11.9,3.6c14.6,4.4,29,9.2,43.4,14.1c13.9,4.8,27.8,9.8,41.5,15.3c8.4,3.4,16.9,6.8,25.3,10.2
		c1.4-1.7,2.7-3.3,4.1-4.9c1.9-2.2,3.8-4.3,5.8-6.3c0.1-0.1,0.1-0.1,0.2-0.2c0.6-0.7,1.3-1.3,1.9-2c0.1-0.1,0.2-0.2,0.2-0.3
		c5.8-8.2,11.7-16.3,17.6-24.5c2.2-3.1,4.6-6,6.9-9c2.2-2.8,4.4-5.7,6.5-8.5c4.3-5.3,8.6-10.8,13-16c5-5.8,9.9-11.6,15-17.3
		c10.4-11.6,20.8-23.3,31.6-34.6c10.9-11.5,22-22.8,33.3-33.8c11.2-11,22.6-21.7,34.2-32.3c6.5-5.9,13.1-11.7,19.6-17.6
		c5.8-5.2,11.9-10,17.8-15c2.7-2.1,5.5-4.2,8.2-6.3c2.3-1.8,4.6-3.6,7-5.3c6.3-4.4,12.6-8.8,19.1-12.9c12.9-8.3,26-16.4,39.2-24.3
		c6.7-4,13.5-7.9,20.3-11.8c7-3.9,14-7.8,21.1-11.6c7.1-3.8,14.3-7.5,21.5-11.2c2.7-1.4,5.4-2.7,8.2-4c3.3-1.6,6.6-3.3,10-4.8
		c8.2-3.7,16.3-7.3,24.6-10.8c13.9-5.6,27.8-11.3,42-16.2c6.7-2.3,13.6-4.4,20.4-6.6c1.4-0.5,2.8-0.9,4.2-1.4
		c-0.7,0.7-1.5,1.5-2.2,2.2c-2.1,2.1-4.1,4.2-6.3,6.3c-5.7,5.4-11.4,10.8-17,16.2c-5.7,5.5-11.4,11-16.9,16.7
		c-2.8,2.8-5.6,5.6-8.3,8.4c-2.7,2.7-5.3,5.7-7.9,8.5c-2.5,2.7-5,5.3-7.4,8c-2.6,3-5.3,6-7.9,9c-2.5,2.8-5,5.7-7.5,8.5
		c-2.5,2.9-4.9,5.9-7.3,8.8c-9.9,11.9-19.5,24-29.1,36.1c-9.8,12.6-19.7,25.2-29.3,37.9c-9.3,12.3-18,25.1-26.8,37.8
		c-4.2,6.2-8.3,12.4-12.5,18.6c-3.7,5.6-7.4,11.1-11,16.8c-4.1,6.5-8.3,13-12.3,19.6c-2.3,3.9-4.6,7.7-7,11.6
		c-1.9,3.2-3.6,6.5-5.4,9.7c-3.9,7-7.6,14.1-11.3,21.2c-0.9,1.8-1.8,3.5-2.7,5.3c-1.7,3-3.1,6.1-4.5,9.2c-0.2,0.3-0.3,0.7-0.5,1
		c-0.7,1.4-1.3,2.8-2,4.2c-1.6,3.4-3,6.8-4.6,10.2c-1.6,3.5-3.2,7-4.7,10.6c-1.8,4.4-3.7,8.7-5.5,13.1c-1.5,3.5-2.7,7-4.1,10.5
		c-1.6,4.1-3.1,8.3-4.6,12.5c-1.6,4.5-3.3,9.1-4.7,13.7c-1.4,4.7-2.7,9.5-3.8,14.3c-0.1,0.4-0.3,0.7-0.4,1.1c-0.4,1.2-0.7,2.3-1,3.5
		c-0.3,1.1-0.6,2.2-0.8,3.3c-0.4,1.9-0.7,3.8-0.5,5.7c-0.1,0.6-0.3,1.2-0.5,1.7c-1.1,3.3,0.3,7.2,2.9,9.5c0.3,1.1,0.7,2.1,1.2,3.2
		c0.9,1.4,2,2.6,3.5,3.5c0.4,0.2,0.8,0.4,1.2,0.6c0,0.1,0,0.2,0.1,0.3c0.8,2,1.7,3.5,3.1,5.2c1.1,1.2,2.4,2.3,3.7,3.3
		c1,0.8,1.9,1.5,2.9,2.2c0,0,0,0,0,0.1c2.3,3.3,4.9,6.4,7.4,9.6c2.2,2.9,4.4,5.9,6.8,8.7c10.3,12.7,20.7,25.2,31.1,37.8
		c3.3,4.1,6.6,8.2,9.9,12.4c1.8,2.4,3.7,4.8,5.5,7.3c0.3,0.7,0.6,1.3,1,2c1.1,1.6,2.4,3.2,3.6,4.7c0.5,0.6,1,1.3,1.5,2
		c0,0,0.1,0,0.1-0.1c0.3,0.5,0.7,0.9,1,1.4c1.9,2.8,3.9,5.5,5.8,8.4c2.5,3.8,4.9,7.6,7.3,11.3c-1.3-4.5-2.6-9-3.9-13.5
		c-1-3.3-2-6.7-3.1-10c-0.3-0.8-0.5-1.7-0.7-2.5c-3.4-5.8-6.5-11.8-9.7-17.7c-0.2-0.4-0.4-0.8-0.6-1.1c-0.2-0.7-0.4-1.4-0.5-2.2
		c-0.2-0.8-0.3-1.6-0.3-2.4c-0.5-0.8-1.2-1.6-1.5-2.4c-0.4-0.9-0.8-1.9-1.2-2.8c0-0.3-0.1-0.6-0.1-1c-3.6-5.4-7.2-10.8-10.7-16.3
		c0,0,0,0,0,0l0,0c0,0,0,0,0,0c-2.1-3.8-4.1-7.7-6.2-11.5c-1.1-1.3-2.2-2.6-3.3-3.9c2.1-0.5,4.3-1,6.4-1.5c0.1-0.1,0.1-0.1,0.2-0.2
		c0,0,0,0,0,0c0,0,0,0,0,0c1.6-1.6,3.8-2.5,6.1-2.5c1,0,2,0.2,3,0.5c0,0,0,0,0,0c0,0,0,0,0,0c0.3-0.1,0.6-0.1,0.9-0.2c0,0,0,0,0,0
		c1.1-0.3,2.2-0.5,3.2-0.8c-1.3-1-2.6-1.9-4-2.8c-3.9-2.5-8.2-4.4-12.7-5.7c7.1-0.2,14.2-2.4,20.5-5.6c0,0,0,0,0,0
		c-4.9-3-9.7-6.4-14.9-9c0.1,0,0.2,0.1,0.3,0.1c0.5-0.2,1-0.3,1.5-0.4c0.8-0.2,1.6-0.4,2.4-0.5c0.2-0.1,0.4-0.2,0.6-0.2
		c-7-4.1-14.2-7.8-21.6-11.1c-2.1-0.9-4.1-1.8-6.2-2.7c-0.4-0.8-0.7-1.6-1.1-2.4c2.4-0.2,4.8-0.4,7.1-0.7c5.1-0.7,10.2-1.7,15.2-3
		c0,0,0,0,0,0c-1-0.3-1.9-0.6-2.9-0.8c2.9-0.1,5.7-0.4,8.6-0.9c8.8-1.6,17.5-5.1,25.5-9.1c0,0,0,0,0,0c-5.9-0.7-11.8-1.2-17.7-1.2
		c-3.1,0-6.1,0.1-9.2,0.4c-8.6,0.8-17,3.3-25.1,6.5c-0.2,0-0.3-0.1-0.5-0.1c0.1-0.1,0.3-0.2,0.5-0.3c4.2-2.8,8.4-6,11.7-9.9
		c1.9-2.2,3.6-4.6,5.2-7c7.5-5.3,13.9-12.1,19.6-19.3c0,0,0,0,0,0c-3.3,0.4-6.5,1.1-9.7,1.8c0,0,0-0.1,0-0.1c0,0,0,0,0,0
		c-6.7,1.2-13.1,3.6-18.9,7.1c0,0,0,0,0,0c-1,0.5-1.9,1.1-2.9,1.7c1.5-2.7,3-5.3,4.8-7.9c0.7-0.8,1.4-1.5,2.2-2.2c0,0,0,0,0,0
		c-1.2-0.3-2.3-0.4-3.4-0.4c0,0,0,0,0,0c1.9-3.2,3.8-6.3,5.8-9.4c0,0,0,0,0,0c-1.1,0.1-2.2,0.3-3.3,0.6c3.1-5.5,5.5-11.4,7.8-17.3
		c-0.3,0.8-0.6,1.5-1,2.3c4.8-11.5,8.4-23.4,12.7-35.1c0.5-1.1,0.9-2.2,1.4-3.3c0,0.1-0.1,0.2-0.1,0.3c0.4-0.8,0.8-1.7,1.2-2.5
		c0,0,0-0.3,0-0.3h0c0,0-5.5,2.6-8.2,4c0.1-0.1,0.2-0.2,0.2-0.3c1.4-1.9,2.8-3.9,4.2-5.8c12.7-9.3,24.3-20.4,33.3-33.3
		c4.3-6.2,7.7-13.1,10.8-20c2.9-6.5,5.4-13.2,7.7-20c0.3-1,0.7-2,1-2.9c0.4-0.9,0.9-1.7,1.4-2.5c0,0,0,0,0,0
		c-3.2,1.1-6.1,3.1-8.8,5.2c-2.2,1.2-4.2,2.7-6.1,4.3c0.1-0.2,0.2-0.4,0.3-0.7c2.1-2,4.2-3.9,6.3-5.9c3.4-3.1,6.9-6.1,10.3-9.2
		c7-6.4,13.8-13,20.5-19.7c4.9-4.8,9.6-9.7,14.4-14.6c2.7-2.7,5.3-5.5,7.9-8.3c1.2-1.3,2.4-2.5,3.6-3.8c1.9-2,3.7-4,5.8-5.8
		c0,0,0,0,0,0c0,0,0,0,0,0c-3.2,1.7-6.2,4.1-9.1,6.2c-1.4,1.1-2.9,2.1-4.3,3.2c-3.5,2.7-7,5.4-10.5,8.2c-1.6,1.3-3.2,2.7-4.9,4
		c0.2-0.2,0.3-0.4,0.5-0.6c5.2-6.2,10.1-12.7,15.6-18.6c0,0,0,0,0,0c0,0,0,0,0,0c-5.6,2.7-10.8,6-16,9.4c1.6-2,3.2-4.1,4.8-6.1
		c4.4-5.7,8.4-11.6,12.7-17.2l0,0.1l0.7-0.8c0,0,0,0,0,0c0,0,0,0,0,0c-3,1.3-5.9,2.7-8.7,4.2c1-1.1,2-2.2,2.9-3.3
		c4.2-4.9,8.4-9.8,12.6-14.8c0.8-0.7,1.6-1.4,2.3-2c1.7-1.5,3.5-2.8,5.2-4.3c3.8-3.2,7.6-6.6,11.2-10c1.8-1.7,3.5-3.4,5.3-5
		c3.2-2.9,6.3-5.8,9.4-8.8c3.7-3.6,7.4-7.2,11-11c3.7-3.9,7.3-7.8,11.1-11.7c0,0,0,0,0,0c0,0,0,0,0,0c-6.6,3.1-12.9,7-18.9,11.1
		c-1.6,1.1-3.2,2.2-4.8,3.3c0.4-0.8,0.8-1.6,1.2-2.3c2.7-2.9,5.4-5.9,8.1-8.9c-0.7,1.6-1.4,3.2-1.9,4.8l2.1-5.1
		c0.8-0.9,1.5-1.7,2.3-2.6c0.3-0.3,0.6-0.7,0.9-1c0.1,0.5,0.3,1,0.8,1.3c0.8,0.5,1.8,0.1,2.3-0.6c1.9-2.8,4-5.5,6-8.3
		c1.8-2.4,3.5-4.7,5.3-7.1c1.3-1.7,2.7-3.4,4-5.2c1-1.2,1.9-2.5,2.9-3.7c3.4-4,6.8-8.1,10.2-12.1c0.9-1.1,1.9-2.3,2.8-3.4
		c0.8-0.9,1.7-1.8,2.5-2.8c4-4.4,8-8.7,12-13.1c1.8-2,3.6-3.9,5.4-5.9c1.7-1.9,3.5-3.8,5.3-5.6c0.5,0.1,1,0,1.4-0.3
		c4.4-3.2,8.5-6.9,12.6-10.5c2.5-2.1,4.9-4.3,7.4-6.5c0.1,0.3,0.2,0.5,0.3,0.8c1.2,3.1,2.5,6.2,4,9.2c2.2,4.6,4.3,9.3,6.4,14
		c0.1,0.4,0.1,0.8,0.2,1.1c0.2,1.4,0.4,2.8,0.7,4.2l1,4.6c0.6,2.6,1.2,5.2,1.9,7.8c1.3,5,2.6,10,4.1,14.9c0.7,2.4,1.4,4.8,2.2,7.1
		c1,3.6,2,7.1,2.9,10.7c1.7,6.6,3.5,13.1,4.8,19.8c1.5,7.6,3,15.2,3.9,22.8c0.9,7.3,1.7,14.5,2.5,21.8c0.9,9.1,1.5,18.2,1.9,27.3
		c0.3,0.2,0.6,0.5,0.9,0.8c0,0,0.1,0.1,0.1,0.1c0.3,4,0.6,7.9,0.9,11.9c0,0,0,0,0,0c0.2,2.4,0.4,4.7,0.6,7.1
		c0.1,0.1,0.2,0.1,0.2,0.2c-0.1,2.3-0.2,4.7-0.3,7c0,0.8,0,1.7,0,2.6c0.5,3.4,0.8,6.9,1.3,10.3c0.4,3.1,0.9,6.2,1.1,9.3
		c0.5,6.9,1.1,13.8,1.4,20.7c0.3,7.5,0.6,15,0.7,22.5c0.1,6.6,0.2,13.1,0.2,19.7c0.1,14,0.2,28.1,0.4,42.1c0,0.9-0.1,1.8-0.4,2.7
		c0,0.6,0,1.2,0,1.8c0,1.1-0.1,2.2-0.1,3.2c-0.2,0.1-0.4,0.2-0.6,0.3v0c0,0,0,0,0,0c-0.1,2.1-0.3,4.1-0.5,6.2
		c-0.2,3.8-0.3,7.7-0.5,11.5c-0.4,3.5-0.8,7-1.2,10.5c-0.1,0.1-0.2,0.2-0.3,0.3l0.3,0c-0.4,3.2-0.9,6.5-1.3,9.7
		c-0.9,6.7-1.9,13.4-3.1,20.1c-1.3,7.3-2.7,14.5-4.2,21.8c-1.2,5.8-2.5,11.5-3.8,17.3c0.9-3,1.9-6,2.8-9c0.2-0.5,0.3-1,0.5-1.6
		c3.8-12.5,7.2-25.1,10.5-37.7c0.5-1.8,0.9-3.6,1.4-5.4c0.1-0.4,0.2-0.8,0.3-1.2c0.6-2.3,1-4.5,1.3-6.9c0-1.2-0.2-2.4-0.7-3.4
		l0.2-1.9c0.6,1.2,1,2.6,1,4c-0.3,2.4-0.7,4.6-1.3,6.9c-0.1,0.4-0.2,0.8-0.3,1.2c-0.5,1.8-0.9,3.6-1.4,5.5
		c-3.2,12.7-6.7,25.4-10.5,37.9c-0.2,0.5-0.3,1-0.5,1.6c-0.9,3-1.9,6-2.8,9c-1,3.1-1.9,6.2-2.9,9.3c-1.4,6.7-3.1,13.3-4.8,19.9
		c-1.3,5-2.7,10-4.4,14.9c0,0.1-0.1,0.2-0.1,0.4c-0.6,1.9-1.2,3.8-1.8,5.8c-1.4,4.3-2.7,8.6-4.1,12.9c-2.1,6.6-4,13.3-6,20
		c-0.6,1.8-1.2,3.7-1.8,5.5c-1.6,4.7-3.3,9.4-5,14.1c-2.3,6.2-4.5,12.4-6.7,18.7c-2.1,6.1-4.1,12.3-6.1,18.5
		c-2,6.3-3.8,12.7-5.4,19.1c-0.1,0.5-0.2,1-0.3,1.5c-0.1,0.2-0.1,0.4-0.2,0.6c-0.1,0.2-0.2,0.4-0.2,0.6c0,0.1-0.1,0.2-0.1,0.3
		c-2.7,7.2-5.5,14.4-8.4,21.5c-2.6,6.4-5.2,12.8-7.6,19.2c-1.3,3.5-2.5,6.9-3.6,10.5c-0.9,2.8-1.6,5.6-1.6,8.5
		c0,0.4,0.1,0.8,0.1,1.3c0,0.1-0.1,0.2-0.1,0.3c0,0,0,0,0,0c-0.7,1.8-1.5,3.6-2.2,5.3c-1.6,3.9-3,7.9-4.4,11.9
		c-0.1,0.3-0.2,0.6-0.3,0.9c0,0,0,0,0,0c0,0.1-0.1,0.2-0.1,0.2c-0.3-0.2-0.6-0.3-0.9-0.4c-0.3-0.1-0.5-0.1-0.8-0.1
		c-0.3,0-0.5,0-0.8,0.1c-0.8,0.2-1.3,0.7-1.8,1.3c-1.3,1.8-2.2,3.9-3.2,5.9c-0.6,1.2-1.2,2.4-1.7,3.7c-0.3,0.6-0.5,1.2-0.8,1.7
		c0.1-0.3,0.2-0.6,0.4-0.9c-0.2,0.6-0.5,1.1-0.7,1.6c-0.6,1.3-1.2,2.7-1.8,4c-1.2,2.8-2.4,5.6-3.4,8.4c-0.3,0.7-0.7,1.5-1,2.2
		c-0.3,0.6-0.5,1.3-0.8,1.9c-0.4,1-0.9,2.2-1.1,3.3c0,0,0,0,0,0c-0.5,1.2-1,2.4-1.5,3.6c0,0,0,0,0,0.1c-0.1-0.1-0.2-0.2-0.4-0.3
		c-0.3,1.6-0.6,3.1-0.9,4.7c1.2,1.9,2.3,3.7,3.4,5.4l0.1,0.1c0.1,0.2,0.2,0.4,0.2,0.6c0.5,1,1,2,1.6,3c0,0,0,0,0,0
		c0.1,0.2,0.2,0.3,0.3,0.5l0,0c0,0,0,0,0,0c0,0,0,0,0,0c0.1,0.1,0.1,0.2,0.2,0.4c0,0,0,0,0,0c0.1,0.2,0.2,0.4,0.3,0.6
		c0.5,0.5,0.9,1,1.4,1.5c0.1,0.1,0.2,0.3,0.3,0.4c1.1,0.8,1.8,2,2.1,3.4c0.7,1.1,1.4,2.3,2,3.4c2.6,4.6,5.3,9.4,8.1,14.5
		c0.8,1.5,1.6,2.9,2.4,4.4c1.9,3.4,3.8,6.8,5.5,10.3c4.4,8.8,8.3,16.4,12.1,23.2c1,1.8,2.1,3.6,3.1,5.4c1.6,2.7,3.2,5.5,4.7,8.4
		c3.1,5.9,6.3,11.8,9.5,17.5c1.3,2.3,2.5,4.6,3.8,6.9c0.7,1.3,1.5,2.6,2.3,3.9c0.3,0.5,0.5,0.9,0.7,1.4l2.7,6l1.2,2.6l2.9,6.5
		c1.9,4.3,3.9,8.6,5.8,12.9c1,2.8,2.1,5.6,3.2,8.4c2.3,6,4.7,12.2,6.8,18.4c0.9,2.7,1.8,5.4,2.7,8.1c3.7,10.8,7.5,22,10.8,33.2
		l6.7,22.7c1.4,4.7,2.6,9.5,3.8,14.1c0.6,2.3,1.2,4.6,1.8,6.9c2.7,10.3,5,19.8,6.8,28.6c0.1,0.4,0.3,1,0.4,1.4
		c0.6,1.8,1.2,3.6,1.7,5.4c0.1,0.2,0.1,0.4,0.2,0.7c0.3,1.1,0.6,2.1,0.8,3.2c0.2,0.7,0.4,1.5,0.5,2.2c0.4,1.3,0.6,2.4,1.1,4
		c0.4,1.3,0.7,2.5,1,3.8c0.4,1.8,0.8,3.7,1.1,5.5c0.2,1.2,0.5,2.4,0.7,3.7c0.1,0.4,0.2,0.8,0.3,1.2c0.3,1.4,0.7,2.8,1,4.2
		c0.1,0.5,0.2,1,0.3,1.5c0,0.2,0.1,0.5,0.2,0.7l0.7,2.6c0.4,1.4,0.7,2.9,1,4.4c0.3,1.4,0.6,2.8,0.9,4.2c0.3,1.4,0.5,2.7,0.8,4.1
		c0.5,2.6,0.9,5.2,1.4,7.7c0.5,2.8,1,5.5,1.4,8.3c0.1,0.8,0.2,1.5,0.3,2.3c0.1,0.8,0.2,1.7,0.2,2.6c0,0.6,0,1.2,0.1,1.8
		c0,0.6,0,1.3,0,1.9c0.4,1.5,0.7,2.9,1.1,4.4c-0.2-0.3-0.3-0.5-0.5-0.8c0.2,0.9,0.3,1.9,0.5,2.8c0.2,1.1,0.3,2.2,0.4,3.2
		c0.1,0.6,0.2,1.3,0.2,1.9c0.1,0.7,0.1,1.4,0.1,2.1c0.1,1.4,0.1,2.8,0,4.1c0,2.7-0.2,5.5-0.4,8.2c-0.2,2.3-0.4,4.5-0.7,6.7v-1.4
		c0,0,0,0,0,0c-0.1,0.5-0.1,1.1-0.3,1.6c0,0.2-0.1,0.3-0.2,0.4c-0.3-0.6-0.7-1.2-1.1-1.7c-1.7-2.6-3.5-5.1-5.4-7.6
		c-0.4-0.7-0.8-1.3-1.3-1.8c-0.1-0.1-0.3-0.2-0.5-0.3c-0.8-1.6-1.8-3.1-2.8-4.5c-0.8-1.1-1.7-2.2-2.6-3.3c-1.7-3-3.6-6-5.7-8.8
		c-0.9-1.2-1.9-2.5-2.8-3.7c-0.9-1.2-1.8-2.5-2.7-3.7c-1.8-2.8-3.8-5.5-5.9-8.1c0,0,0,0,0,0.1c-0.7-1-1.5-1.9-2.2-2.9c0,0,0,0,0,0
		c-0.8-1-1.6-2-2.3-3c0,0,0,0,0,0c-0.1-0.1-0.1-0.1-0.2-0.2c0,0,0,0,0,0l0,0c-1-1.2-1.9-2.5-2.9-3.7c0,0,0,0,0,0
		c-1.7-2.2-3.5-4.4-5.3-6.6c-1.8-2.1-3.6-4.3-5.4-6.4c-0.7-0.8-1.4-1.6-2.1-2.4c0,0,0,0,0,0c-0.1-0.1-0.1-0.2-0.2-0.2
		c-0.7-0.7-1.4-1.4-2-2.2c-0.5-0.5-1-1.1-1.5-1.5c-0.8-0.8-1.6-1.6-2.4-2.3c-0.6-0.6-1.2-1.1-1.8-1.7c-0.6-0.6-1.2-1.1-1.9-1.7
		c-0.6-0.5-1.1-1-1.7-1.5c0,0,0,0,0,0c-0.1-0.1-0.3-0.2-0.4-0.4c-0.1-0.1-0.1-0.1-0.2-0.2c-0.1-0.1-0.2-0.2-0.3-0.3c0,0,0,0,0,0
		c-0.2-0.2-0.4-0.3-0.5-0.4c0,0,0,0,0,0c-0.3-0.3-0.6-0.5-0.9-0.8c0,0,0,0,0,0c-0.1-0.1-0.2-0.1-0.2-0.2c0,0-0.1-0.1-0.1-0.1
		c-0.3-0.3-0.7-0.5-1-0.8c0,0,0,0,0,0c-0.3-0.2-0.6-0.5-0.9-0.7c0,0,0,0,0,0c-0.1-0.1-0.3-0.2-0.4-0.3c-0.6-0.5-1.2-1-1.8-1.4
		c0,0,0,0,0,0c0,0,0,0,0,0c-0.5-0.3-1-0.5-1.5-0.8c0,0,0,0,0,0c0,0,0,0,0,0l0,0c0,0,0,0,0,0c0,0.1,0.1,0.2,0.1,0.4c0,0,0,0.1,0,0.1
		c0.4,1.6,0.8,3.3,1.1,5c0.1,0.4,0.2,0.7,0.2,1.1c0.3,1.3,0.6,2.7,0.8,4c0.1,0.5,0.2,1,0.3,1.5c0.3,1.6,0.6,3.1,0.8,4.7
		c0,0.3,0.1,0.6,0.1,0.8c0.3,1.6,0.5,3.3,0.8,4.9c0.1,0.4,0.1,0.7,0.2,1.1c0.1,1,0.3,2.1,0.4,3.1c0.1,0.8,0.2,1.5,0.3,2.3
		c0.1,0.9,0.2,1.7,0.3,2.6c0.1,0.8,0.2,1.7,0.3,2.5c0.4,3.2,0.7,6.4,1,9.6c1.4,14.2,2.1,28.4,3.2,42.7c0.5,6.5,0.9,13,1.3,19.5
		c0.8,6.4,1.4,12.8,1.7,19.3c0.2,3.3,0.3,6.7,0.3,10c0,3.5,0,7-0.1,10.5c0,0.3,0,0.6,0,0.9c0.3,1.6,0.5,3.3,0.8,4.9
		c-0.1,3.4-0.1,6.9-0.2,10.3c0.1,1,0.3,2.1,0.4,3.1c0,1.3-0.2,2.5-0.5,3.6c0,1,0,2,0,3c-0.2,1.1-0.3,2.1-0.5,3.2c0,2,0,3.9-0.1,5.9
		c0,0,0-0.5,0-0.5s-0.2,1.1-0.2,1.7c0,0.5,0,0.9,0,1.4c0,1,0,2.1,0,3.1c0,0.4,0,0.9,0,1.3c-56.4,1.8-112.7,5.8-168.8,12.2
		c-93.7,10.8-186.7,28.6-277.6,54.5c-89.9,25.6-177.6,59.3-261.4,101.1c-8.6,1.2-8.2,15.2,1.2,15.2c1.1,0,2-0.2,2.9-0.5l0.1,0.3
		c83.2-43.1,170.5-78.1,260.4-105c89.9-27,182.1-45.9,275.3-57.9c55.7-7.2,111.7-11.9,167.8-14.5c0,2.6-0.1,5.2-0.1,7.8
		c0,1.6-0.1,3.3-0.2,4.9c-0.1,1.4-0.1,2.9-0.2,4.3c0,0.2,0,0.4,0,0.6c0,0.1,0,0.2,0,0.3c-0.1,1.6-0.2,3.3-0.4,4.9
		c-0.1,1.3-0.3,2.6-0.4,3.9c0,0.1,0,0.2,0,0.4c-0.2,1.2-0.3,2.5-0.5,3.7c-0.1,1.3-0.2,2.6-0.4,3.9c-0.1,1-0.2,1.9-0.3,2.9
		c-0.2,1.3-0.3,2.5-0.5,3.8c0,0.2-0.1,0.4-0.1,0.5c-0.5,3.5-1.1,7-1.9,10.5c-0.1,0.4-0.2,0.7-0.2,1.1c-0.2,1.1-0.5,2.1-0.7,3.2
		c-0.1,0.5-0.2,1-0.4,1.5c-0.2,0.9-0.5,1.9-0.7,2.8c-0.7,2.5-1.4,4.9-2.1,7.4c0,0.2,0,0.4-0.1,0.7c-0.1,1.1-0.2,2.1-0.4,3.2
		c-0.1,0.5-0.2,1.1-0.2,1.6c0,0,0,0,0,0c0-0.2,0.1-0.4,0.1-0.6c0,0.1,0,0.3-0.1,0.4c0-0.1,0-0.3,0.1-0.4c0,0.3-0.1,0.5-0.1,0.8
		c0,0.1,0,0.1,0,0.2c0,0,0,0,0,0.1c0,0,0,0.1,0,0.1c0,0,0,0,0,0c0,0,0,0,0,0c-0.1,0.4-0.1,0.9-0.2,1.3c0-0.1,0-0.2,0-0.4
		c0-0.3,0.1-0.6,0.1-0.9c0,0.2-0.1,0.5-0.1,0.7c0,0,0,0,0,0c0,0,0,0,0,0c0,0,0,0,0,0c0,0,0,0,0,0c0,0,0,0,0,0c0,0,0,0.1,0,0.1
		c0,0,0,0.1,0,0.1c0,0,0,0,0,0.1c0,0,0,0,0,0c0,0,0,0.1,0,0.1c0,0,0-0.1,0-0.1c0,0,0,0,0,0c0,0,0,0.1,0,0.1c0,0,0,0,0,0c0,0,0,0,0,0
		c0,0,0,0,0,0c0,0,0,0,0,0c0,0,0,0,0,0c0,0,0,0,0,0c0,0,0,0,0,0c0,0,0,0.1,0,0.1c0,0,0,0,0,0l0,0c0,0,0,0,0,0c0,0,0-0.1,0-0.1
		c0,0.1,0,0.1,0,0.2h0c0,0,0,0,0,0c0,0,0,0,0,0c0,0,0,0,0,0c0,0,0,0,0,0c0,0,0,0,0,0s0,0,0,0l0,0c0,0,0,0,0.4,0l0,0v0
		c-0.4,0-0.4,0-0.4,0.1c0-0.1,0-0.1,0-0.2c-0.1,1-0.3,2-0.5,3.1c-0.1,0.7-0.2,1.5-0.4,2.2c-0.1,0.8-0.3,1.5-0.5,2.3
		c-0.8,4-1.8,8-3,11.9c-0.2,0.5-0.3,1-0.4,1.6c-2,6.5-4,13.1-6.4,19.5c-0.2,0.5-0.4,1.1-0.6,1.6c-1.1,3.1-2.3,6.1-3.4,9.2
		c-0.5,1.7-1.1,3.3-1.7,4.9c-0.7,1.8-1.4,3.6-2.1,5.3c-1.3,3.5-2.6,7-3.9,10.5c-2.6-0.1-5.1-0.2-7.7-0.2c-0.3-1.4-0.5-2.8-0.8-4.2
		c0-0.1-0.1-0.2-0.1-0.2c-0.3-3.5-0.8-7.1-1.3-10.6c-0.4-3-1.1-6-1.8-8.9c-0.8-3.2-1.6-6.4-2.8-9.5c-1-2.7-2.1-5.4-3.2-8.1
		c0-0.1,0-0.2,0-0.2c0-1.4-0.6-2.7-1.1-4.1c-0.2-0.6-0.5-1.3-0.7-1.9c-0.7-1.7-1.4-3.4-2.1-5c-0.2-0.5-0.5-1-0.7-1.6
		c0-0.1-0.1-0.1-0.1-0.2c-0.3-0.7-0.5-1.4-0.8-2.1c-0.2-0.5-0.3-1-0.5-1.5c-0.1-0.3-0.2-0.7-0.3-1c-0.2-0.5-0.3-1-0.5-1.5
		c-0.2-0.5-0.4-0.8-0.7-1.1c-0.1-0.2-0.1-0.3-0.2-0.5c-0.5-1.2-0.9-2.5-1.4-3.7c-0.1-0.1-0.1-0.3-0.2-0.4c-0.6-1.7-1.3-3.3-1.9-5
		c-0.3-0.4-0.6-0.8-0.8-1.1c-0.7-1.3-1.5-2.7-2.3-4c-1.4-2.4-2.8-4.7-4.3-7c-0.1,0.1-0.1,0.2-0.2,0.3c0,0,0,0,0,0
		c-0.3,0.4-0.6,0.9-0.9,1.3c-0.1-0.1-0.1-0.1-0.2-0.2c-0.1,0.2-0.2,0.4-0.3,0.6c-0.1,0.2-0.2,0.5-0.3,0.7c-0.2,0.5-0.4,1-0.7,1.5
		c-0.4,0.8-0.7,1.6-1.1,2.4c-0.1,0.3-0.3,0.6-0.5,1c-0.1,0.2-0.2,0.4-0.3,0.5c-0.1,0.3-0.2,0.5-0.4,0.7c-0.1,0.1-0.3,0.3-0.4,0.4
		c0,0.1-0.1,0.3-0.1,0.4c-0.1,0.2-0.1,0.4-0.2,0.7c-0.2,0.5-0.4,1-0.5,1.5c-0.2,0.7-0.5,1.4-0.7,2.1c0,0,0,0.1,0,0.1
		c-0.5,1.2-1,2.5-1.5,3.7c-0.1,0.3-0.2,0.5-0.4,0.8c0,0,0,0.1-0.1,0.1c-0.4,1-0.9,2-1.4,3l0,0.1c0,0.1-0.1,0.2-0.1,0.3
		c0,0.3-0.1,0.6-0.1,0.8l0,0c0,0.1,0,0.1,0,0.2c-0.2,1.3-0.5,2.7-0.7,4c-0.1,0.7-0.3,1.4-0.4,2.2c-0.2,0.8-0.3,1.6-0.5,2.4
		c-0.1,0.7-0.3,1.4-0.4,2.1c-0.2,0.8-0.4,1.7-0.6,2.5c-0.2,0.6-0.3,1.3-0.5,1.9c-0.3,1.1-0.6,2.3-0.9,3.4c-0.1,0.3-0.2,0.7-0.3,1
		c-1.8,6.6-4.1,13-6.5,19.4c-2.6,6.9-5.7,13.6-8.8,20.2c-101-1.1-202.1,2.5-302.8,11.6c-108.5,9.9-216.6,26.2-323.1,49.7l0.1,0.4
		c-0.1,0-0.1,0-0.2,0c-9.8,0-9.8,15.2,0,15.2c1.4,0,2.5-0.3,3.5-0.8c105.6-24.6,212.9-42.1,320.8-53.2
		c98.9-10.2,198.4-14.9,297.9-15.1c-1.7,3.5-3.5,7-5.2,10.6c-1.3,2.6-2.6,5.3-3.8,7.9c-0.1,0.2-0.2,0.5-0.3,0.7
		c-1.3,2.6-2.5,5.1-3.8,7.6c-0.4,0.8-0.9,1.7-1.3,2.5c-0.9,1.8-1.9,3.6-2.9,5.4c-0.3,0.5-0.6,1-0.8,1.5c-0.8,1.4-1.6,2.9-2.4,4.3
		c-0.6,1-1.1,2-1.7,2.9c-0.9,0.7-1.7,1.7-2.4,2.9C1961.6,1519.7,1942.5,1550.3,1921.8,1579.8z M714.5,321.5c0.1,0.2,0.3,0.4,0.4,0.5
		c0.3,0.9,0.6,1.8,0.9,2.7c1.4,1.2,2.8,2.4,4.1,3.7c1,1.2,2,2.5,3,3.7c-2.3-2.1-4.6-4.2-6.9-6.2
		C715.6,324.4,715.1,322.9,714.5,321.5z M725.1,333.2c6.1,5.7,12.2,11.3,17.8,17.5c0,0,0,0,0,0c-0.3-0.1-0.7-0.1-1-0.2
		c-4.9-5.4-10.2-10.3-15.6-15.3L725.1,333.2z M769.6,569.9c-0.2,0.5-0.4,1.1-0.6,1.6c-0.2,0.2-0.4,0.4-0.6,0.6
		c-0.1-0.3-0.3-0.5-0.4-0.8c0,0,0-0.1-0.1-0.1c0,0,0,0,0,0c0,0,0,0,0,0c-0.2-0.1-0.5-0.2-0.7-0.2C768,570.6,768.8,570.3,769.6,569.9
		z M798.1,578.4C798.1,578.4,798.1,578.5,798.1,578.4c-0.3,0.2-0.6,0.3-0.9,0.4c-0.3,0-0.7,0-1,0c0.3-0.2,0.6-0.4,0.9-0.6
		C797.5,578.3,797.8,578.3,798.1,578.4z M797.5,578c0.1-0.1,0.2-0.1,0.2-0.2c0,0,0,0,0,0c0,0,0,0,0,0
		C797.7,577.9,797.6,577.9,797.5,578z M808,571c0.1-0.1,0.1-0.2,0.2-0.2c-0.1,0-0.2-0.1-0.3-0.1c0.3-0.2,0.6-0.5,1-0.7
		c-0.2,0.3-0.4,0.6-0.7,0.8c0.4,0.2,0.8,0.4,1.2,0.6c0,0,0,0,0,0c-0.1,0-0.2,0.1-0.4,0.1c0.3,0.1,0.5,0.2,0.8,0.4c0,0,0,0,0,0
		c-1,0.4-2,0.7-3,1.1c-2.7,1.3-5.3,2.6-7.9,4c1.3-0.9,2.6-1.9,3.9-2.8c1.2-0.6,2.4-1.2,3.6-1.8c0.9-0.3,1.7-0.6,2.6-1
		C808.7,571.3,808.3,571.1,808,571z M821.7,562c-0.5-0.4-1-0.7-1.6-1.1c0,0,0-0.1,0-0.1c0.5,0.3,1,0.7,1.5,1.1
		C821.7,561.9,821.7,562,821.7,562z M821.7,563.6c-0.9,0.3-1.8,0.6-2.6,0.8c0.1-0.2,0.2-0.5,0.3-0.8c0.8-0.2,1.5-0.5,2.3-0.7
		C821.7,563.2,821.7,563.4,821.7,563.6z M821.7,558.5c-0.8-1.5-1.5-3-2-4.6c0,0.2,0,0.3,0,0.5c-0.1-0.8-0.3-1.5-0.5-2.3c0,0,0,0,0,0
		c-0.7-3-1.1-6.1-1.2-9.2c-0.5-0.7-0.9-1.3-1.4-2c0-0.2-0.1-0.3-0.1-0.5c0.7,0.9,1.3,1.9,2,2.8c0.1,3.1,0.5,6.2,1.2,9.3
		c0.5,1.9,1.2,3.7,2.1,5.4C821.7,558.2,821.7,558.4,821.7,558.5z M821.7,562c0,0,0-0.1,0-0.1c0.3,0.2,0.7,0.5,1,0.7c0,0,0,0,0,0
		c0,0-0.1,0-0.1,0c0.2,0.1,0.3,0.2,0.5,0.4c0.1-0.1,0.2-0.1,0.2-0.2c0,0.3,0,0.6,0.1,0.8c-0.7,0.6-1.2,1.5-1.5,2.3
		c-0.1,0.1-0.2,0.2-0.2,0.3c0-0.5,0-1,0-1.5c0.3-0.6,0.7-1.2,1.2-1.6c-0.4,0.1-0.8,0.2-1.2,0.4c0-0.2,0-0.4,0-0.7
		c0.3-0.1,0.6-0.2,0.9-0.3C822.3,562.4,822,562.2,821.7,562z M821.7,558.5c0-0.2,0-0.3,0-0.5c0.5,0.9,1,1.8,1.5,2.7
		c0,0.1,0,0.2,0,0.3C822.7,560.3,822.2,559.4,821.7,558.5z M823.3,561.2c0-0.1,0-0.2,0-0.3c0.1,0.2,0.2,0.3,0.3,0.5
		c0,0.1,0,0.2,0,0.3C823.5,561.5,823.4,561.3,823.3,561.2z M823.6,562.7c0,0.3,0,0.6,0,0.9c0,0-0.1,0-0.1,0.1c0-0.3,0-0.5-0.1-0.8
		C823.5,562.8,823.6,562.7,823.6,562.7z M823.8,561.9c0-0.1,0-0.2,0-0.3c0.1,0.2,0.2,0.4,0.4,0.5l0.2,1c0,0-0.1,0-0.1,0.1
		c-0.2,0.1-0.3,0.2-0.5,0.4c0-0.3,0-0.6,0-0.9c0.1-0.1,0.3-0.1,0.4-0.2C824.1,562.3,823.9,562,823.8,561.9z M2033.2,142.5
		c-0.6,0.8-1.2,1.6-1.8,2.4c-0.7,0.9-1.4,1.9-2.1,2.9c-0.2,0.1-0.5,0.2-0.7,0.4c0.7-1,1.4-2.1,2-3.1
		C2031.5,144.2,2032.3,143.4,2033.2,142.5z M2005.2,178.8c0,0.2-0.1,0.4-0.1,0.6c-0.5,0.4-1,0.7-1.5,1.1
		C2004.2,179.9,2004.7,179.3,2005.2,178.8z"/>
	<path class="st0" d="M535.1,106.5c0,0,0-0.9,0-0.9c0,0,0,0,0-0.4c-0.1,0.2-0.3,0.3-0.4,0.5C534.9,105.9,535.1,106.5,535.1,106.5
		L535.1,106.5z"/>
	<path class="st0" d="M490.6,1363.6C490.6,1363.6,490.6,1363.6,490.6,1363.6C490.6,1363.6,490.6,1363.6,490.6,1363.6
		C490.6,1363.6,490.6,1363.6,490.6,1363.6C490.6,1363.7,490.6,1363.7,490.6,1363.6C490.6,1363.7,490.6,1363.6,490.6,1363.6
		C490.6,1363.6,490.6,1363.6,490.6,1363.6C490.6,1363.6,490.6,1363.6,490.6,1363.6C490.6,1363.6,490.6,1363.6,490.6,1363.6
		C490.6,1363.7,490.6,1363.7,490.6,1363.6c0,0,0-0.1,0-0.1C490.6,1363.5,490.6,1363.6,490.6,1363.6z"/>
	<polygon class="st0" points="2097.2,1363.7 2097.2,1363.7 2097.2,1363.7 	"/>
	<path class="st0" d="M2097.2,1363.7C2097.2,1363.7,2097.2,1363.7,2097.2,1363.7L2097.2,1363.7L2097.2,1363.7
		C2097.2,1363.7,2097.2,1363.7,2097.2,1363.7C2097.2,1363.7,2097.2,1363.7,2097.2,1363.7z"/>
	<path class="st0" d="M2097.2,1363.6C2097.2,1363.6,2097.2,1363.6,2097.2,1363.6C2097.2,1363.6,2097.2,1363.6,2097.2,1363.6
		C2097.2,1363.6,2097.2,1363.6,2097.2,1363.6z"/>
	<polygon class="st0" points="2097.2,1363.6 2097.2,1363.6 2097.2,1363.6 2097.2,1363.6 2097.2,1363.6 2097.2,1363.6 2097.2,1363.6 
		2097.2,1363.6 2097.2,1363.6 2097.2,1363.6 	"/>
	<path class="st0" d="M819.2,552.2C819.2,552.2,819.2,552.2,819.2,552.2c0.1,0.6,0.3,1.2,0.5,1.8c0-0.1,0-0.1,0-0.2
		C819.7,553,819.7,552.6,819.2,552.2z"/>
	<path class="st0" d="M823.3,563.1C823.3,563.1,823.3,563.1,823.3,563.1c0-0.1-0.1-0.1-0.1-0.1c-0.1,0.1-0.2,0.1-0.3,0.2
		C823,563.2,823.1,563.2,823.3,563.1z"/>
	<path class="st0" d="M1663.5,1813.9c-0.3,0.1-0.6,0.3-0.9,0.4c0.1,0,0.2,0.1,0.3,0.1C1663.1,1814.2,1663.3,1814.1,1663.5,1813.9z"
		/>
	<path class="st0" d="M2156.8,1157c0,0,0.1,0.1,0.1,0.1C2156.9,1157.1,2156.9,1157,2156.8,1157c-0.1-0.3-0.3-0.6-0.5-0.9
		c0,0,0,0,0,0c0.1,0.2,0.2,0.5,0.3,0.7C2156.7,1156.9,2156.8,1157,2156.8,1157z"/>
	<path class="st0" d="M2121.6,1109.1C2121.6,1109.1,2121.6,1109.1,2121.6,1109.1c0,0,0,0.1,0.1,0.1
		C2121.7,1109.2,2121.6,1109.2,2121.6,1109.1z"/>
	<path class="st0" d="M1846.7,1382.9C1846.7,1382.8,1846.7,1382.8,1846.7,1382.9c-0.1-0.3-0.1-0.4,0-0.6c0-0.1,0-0.2-0.1-0.3
		c-0.1,0.1-0.1,0.1-0.2,0.2c0,0.1,0.1,0.2,0.1,0.3C1846.6,1382.5,1846.6,1382.7,1846.7,1382.9z"/>
	<path class="st0" d="M1881.4,1463.2C1881.4,1463.2,1881.4,1463.2,1881.4,1463.2c0.1-0.1,0.1-0.2,0.1-0.3
		C1881.4,1463,1881.4,1463.1,1881.4,1463.2z"/>
	<path class="st0" d="M2121.7,1109C2121.7,1109,2121.7,1109,2121.7,1109C2121.7,1109,2121.7,1109,2121.7,1109
		C2121.7,1109,2121.7,1109,2121.7,1109C2121.7,1109,2121.7,1109,2121.7,1109C2121.7,1109,2121.7,1109,2121.7,1109z"/>
	<path class="st0" d="M2152.3,1159.1C2152.2,1159.1,2152.2,1159.1,2152.3,1159.1c0,0.1,0.1,0.2,0.2,0.4
		C2152.4,1159.3,2152.3,1159.2,2152.3,1159.1z"/>
	<path class="st0" d="M2153,1160.2c-0.1-0.1-0.3-0.2-0.4-0.4c0.2,0.3,0.4,0.7,0.6,1C2153.2,1160.6,2153.1,1160.4,2153,1160.2z"/>
	<polygon class="st0" points="1979.3,1477.1 1979.3,1477.1 1979.3,1477.1 	"/>
	<path class="st0" d="M1980.1,1475.2C1980.1,1475.2,1980.1,1475.2,1980.1,1475.2c0,0,0-0.1,0.1-0.1
		C1980.1,1475.1,1980.1,1475.1,1980.1,1475.2z"/>
	<path class="st0" d="M1912.2,1468.6C1912.2,1468.6,1912.2,1468.6,1912.2,1468.6c0.1-0.1,0.1-0.2,0.1-0.3
		C1912.2,1468.4,1912.2,1468.5,1912.2,1468.6z"/>
	<polygon class="st0" points="1979.3,1477.2 1979.3,1477.2 1979.3,1477.2 	"/>
	<path class="st0" d="M1979.2,1477.2C1979.3,1477.2,1979.3,1477.2,1979.2,1477.2C1979.3,1477.2,1979.2,1477.2,1979.2,1477.2
		C1979.2,1477.2,1979.2,1477.2,1979.2,1477.2z"/>
	<path class="st0" d="M1987.1,1459.6C1987.1,1459.6,1987.1,1459.6,1987.1,1459.6L1987.1,1459.6
		C1987.1,1459.6,1987.1,1459.7,1987.1,1459.6C1987,1459.7,1987,1459.7,1987.1,1459.6C1987.1,1459.7,1987.1,1459.6,1987.1,1459.6z"/>
	<path class="st0" d="M1900.8,925.7c0,0,0-0.1,0-0.2c0,0,0,0,0,0C1900.8,925.6,1900.8,925.6,1900.8,925.7z"/>
	<path class="st0" d="M1900.8,925.8C1900.8,925.7,1900.8,925.7,1900.8,925.8C1900.8,925.7,1900.8,925.8,1900.8,925.8L1900.8,925.8z"
		/>
	<path class="st0" d="M1420.4,1113.3C1420.4,1113.4,1420.5,1113.4,1420.4,1113.3C1420.5,1113.3,1420.5,1113.3,1420.4,1113.3
		C1420.5,1113.3,1420.5,1113.3,1420.4,1113.3c1.8-6.6,3.7-13.3,6.2-19.7c0.9-2.2,1.8-4.4,2.7-6.6c0.4,0.8,0.8,1.6,1.2,2.4
		c0.4,0.8,0.8,1.5,1.2,2.3c2.5,4.9,5.4,9.9,8.6,14.6c1.8,2.7,3.8,5.5,5.8,8.3c2.6,3.6,5.3,6.9,7.6,9.8c4,4.9,8.4,9.3,11.9,12.6
		c2.2,2.1,4.6,4.2,7.5,6.8c1.5,1.3,3.2,2.6,4.7,3.8c0.7,0.5,1.4,1,2,1.6c1.8,1.4,3.6,2.6,5.7,4.1c0.4,0.3,0.8,0.5,1.1,0.8
		c0.8,0.6,1.6,1.1,2.5,1.6c0.7,0.4,1.4,0.9,2.2,1.3c1.8,1.1,3.8,2.2,5.7,3.2c6.1,3,12.6,6.2,19.5,8.7c4.9,1.8,11.3,4,18,5.6
		c4.9,1.2,11.4,2.7,18.1,3.6l3.5,0.5c5.9,0.8,12.1,1.7,18.1,2l0.8,0c3.7,0.2,7.6,0.4,11.4,0.4c2.4,0,4.6-0.1,6.6-0.3
		c6.9-0.6,14.3-1.3,21.7-2.7c5.6-1,12.1-2.3,18.4-4.1l0.3-0.1c2.9-0.8,5.6-1.6,8.3-2.6l2.3-0.8c2.9-1.1,6-2.2,8.9-3.5
		c3.5-1.5,6.9-3.1,10.3-4.6c1.9-0.9,3.9-1.8,5.8-2.8c0.9-0.5,1.8-0.9,2.7-1.4c2.6-1.3,5.2-2.7,7.2-3.7c0.7-0.4,1.4-0.7,2.1-1.1
		c1.9-1,3.8-2,5.7-3.1l5-2.9l5.1-3c8-4.6,15.3-10.5,20.8-15c13.2-11,25.6-25,36.9-41.7c10.3-15.2,18.7-31.8,25.2-49.4
		c3.1-8.5,5.5-17.6,7.1-26.9c1.4-8.1,2.2-15.8,2.5-23.1c0.2-5.8,0.3-12.1,0.2-18.3c-0.2-6.3-0.9-12.7-2.1-19.1
		c0.1,0,0.2,0.1,0.4,0.1c0,0,0,0,0,0c0.9,0.3,1.8,0.6,2.6,0.9c0.3,0.1,0.6,0.2,0.9,0.3c2.2,0.7,4.4,1.4,6.6,2.1
		c4.6,1.4,9.2,2.3,13.9,3c4.9,0.7,9.7,1.1,14.7,1.2c5.2,0.1,10.3-0.5,15.3-1.4c9-1.6,17.5-5.1,25.6-9.2c6-3,11.8-6.8,17.3-10.6
		c2.9-2,5.8-4,8.6-6.1c0.3-0.2,0.6-0.4,0.9-0.7c0.6-0.5,1.2-0.9,1.8-1.4c0,0,0.1-0.1,0.1-0.1c0.1-0.1,0.1-0.1,0.2-0.2
		c0.2-0.1,0.4-0.3,0.6-0.4c0.1-0.1,0.2-0.1,0.3-0.2c0.3-0.2,0.5-0.4,0.8-0.5c0.7-0.5,1.5-0.9,2.2-1.4c0,0,0,0,0,0c0,0,0,0,0,0
		c0,0,0,0,0,0c0.1-0.1,0.1-0.2,0.1-0.3c0.2-0.1,0.3-0.2,0.5-0.4c0,0,0,0,0,0c0,0,0,0,0,0l0,0c0,0,0,0,0,0.1c0.1-0.1,0.3-0.2,0.4-0.3
		c0.3-0.2,0.6-0.3,0.8-0.6c0.1-0.1,0.2-0.2,0.3-0.2c0.2-0.2,0.4-0.4,0.6-0.5c0,0,0,0,0,0c0,0,0.1-0.1,0.1-0.1
		c0.2-0.2,0.3-0.3,0.5-0.5c-0.5,0.1-0.9,0.5-1.3,0.9c-0.2,0.2-0.4,0.3-0.5,0.5c0,0,0,0,0,0c0,0,0-0.1-0.1-0.1c0,0,0,0,0,0
		c0.2-0.1,0.2-0.2,0.1-0.4c2.9-1.8,5.7-3.7,8.5-5.6c4.6-3.1,9.1-6.3,13.4-9.8c0,0,0,0,0,0c-5.2,2.2-10.6,3.9-16,5.5
		c-2.9,0.8-5.8,1.6-8.7,2.5c-6.9,2-14,3.4-21.1,4.4c-7.7,0.9-15.5,1-23.2,0.1c-8.7-1.3-17.4-3.4-25.7-6.4c-5-1.8-10-3.8-15-5.7
		c-6.4-2.4-12.9-4.7-19.3-7c-12.6-4.6-25-9.6-37.4-14.7c-2.5-1.1-5.1-2-7.7-3c-3-1.1-5.9-2.4-8.9-3.3c-3.7-1.1-7.4-2.2-11.1-3.3
		c-1.1-0.3-2.3-0.5-3.4-0.8c-2.3-0.5-4.6-1-6.9-1.5c-5.9-1.3-12-2.3-18-3.2c-7.4-1.2-14.9-2.3-22.4-2.4c-3.5-0.1-6.9-0.1-10.4-0.1
		c-9.9,0-19.8,0.3-29.6,1.2c-7.8,0.7-15.6,1.7-23.4,3c-6,1-12.1,2.3-17.9,4c-13.5,3.9-26.6,9.1-39.3,15.1
		c-11.9,5.6-23.3,12-34.3,19.3c-5.8,3.8-11.5,7.8-17.1,11.9c-5.8,4.2-11.5,8.7-16.8,13.5c-9.9,9.1-18.9,18.9-27.5,29.2
		c-9,10.9-16.9,22.6-23.4,35.1c-1.8,3.6-3.4,7.3-4.9,11c-1.2,2.9-2.3,5.8-3.3,8.7c-1.3,4.1-2.6,8.2-3.7,12.4
		c-0.2,0.5-0.4,1.1-0.6,1.6c-1.9,5.9-3.7,11.8-5,17.9c-1.2,5.4-1.9,10.8-2.5,16.3c-0.5,4.5-0.6,9.1-0.7,13.6
		c-0.1,4.8-0.3,9.7-0.1,14.5C1418.9,1103.2,1419.6,1108.3,1420.4,1113.3z M1900.5,925.5c-0.1,0.1-0.1,0.1-0.2,0.2c0,0,0,0,0,0
		C1900.4,925.6,1900.5,925.6,1900.5,925.5z M1893.2,929.4C1893.2,929.4,1893.2,929.4,1893.2,929.4c0.1,0,0.1,0,0.2-0.1
		c0.2-0.2,0.4-0.3,0.6-0.5c0.1,0,0.1,0,0.2,0c0,0,0,0,0.1,0c0.1,0,0.1,0.1,0.2,0.1C1894,929.1,1893.6,929.3,1893.2,929.4
		C1893.2,929.4,1893.2,929.4,1893.2,929.4z M1892.1,929.7c0.3-0.2,0.6-0.3,0.9-0.5c0,0,0,0-0.1,0.1c-0.1,0.1,0,0.2,0.1,0.3
		c-0.7,0.2-1.4,0.5-2,0.7C1891.3,930,1891.7,929.9,1892.1,929.7z M1840.4,939.7C1840.4,939.7,1840.4,939.7,1840.4,939.7
		C1840.4,939.7,1840.4,939.7,1840.4,939.7C1840.4,939.7,1840.4,939.7,1840.4,939.7z M1648,915.8c1.6,0,3.3-0.1,4.9-0.1
		c0.6,0,1.1,0,1.7,0c1.1,0,2.2,0,3.3-0.1c0.2,0,0.4,0,0.7,0c0.8,0,1.6,0,2.4,0c0.2,0,0.4,0,0.6,0c0.6,0,1.3,0,1.9-0.1
		c0.7-0.1,1.3-0.1,2,0c3.3,0.3,6.6,0.6,10,0.8c9,1.3,18,2.8,27,4.5c1,0.2,2.7,0.6,3.7,0.9c5,1.7,10.5,2.5,15.2,5
		c0.3,0.1,0.5,0.2,0.8,0.3c7.7,2.1,15,5.6,22.5,8.5c0.1,0,0.2,0.1,0.3,0.1c4.2,1.6,8.4,3.2,12.6,4.8c1.4,0.5,2.7,1,4.1,1.5
		c1.2,0.4,2.3,0.9,3.5,1.3c0.2,0.1,0.3,0.1,0.5,0.2c1.7,0.6,3.4,1.3,5.1,1.9c-0.1,1.2-0.1,2.3-0.1,3.5c0,0.7,0,1.4,0,2.1
		c-0.1,0.6-0.2,1.2-0.2,1.9c0.1,5.1-0.4,10.2-0.8,15.2c-0.2,1.8-0.3,3.6-0.4,5.3c-0.1,1.6-0.2,3.1-0.3,4.7
		c-0.4,6.2-0.9,12.6-1.7,18.8c-2,13.8-5.9,27.7-11.4,41.2c-7.2,16.5-16.4,32.2-27.3,46.8c-9,11.4-19.2,21.6-30.2,30.4
		c-10.4,7.8-21.7,14-33.4,20.1c-5,2.6-10.1,5-15.1,7.3c15-23.6,23.1-65.8,19.5-113.1c-2.5-33.6-10.5-65-22.5-88.4
		c-5.2-10.2-10.9-18.3-17-24.3C1635.8,916.4,1641.9,916,1648,915.8z M1441.9,1070.6C1441.9,1070.6,1441.9,1070.5,1441.9,1070.6
		c0-0.1,0-0.2,0-0.4C1441.9,1070.3,1441.9,1070.4,1441.9,1070.6z M1440.6,1062.1c0.4-1.1,0.8-2.2,1.3-3.3c3-5.8,6.1-11.6,9.4-17.3
		c6.1-10.8,13.4-20.8,20.6-30.9c2.1-3,4.3-5.9,6.5-8.8c5.2-6.5,10.5-13.1,16.4-19c3.1-3.2,6.3-6.5,9.6-9.5c3.3-2.9,6.6-5.7,10-8.5
		c8.4-6.4,17-12.5,26-18c5.1-3.1,10.2-6,15.4-8.8c4.8-2.5,9.7-4.8,14.6-7c1-0.4,1.9-0.8,2.9-1.2c-2.4,4.5-4.6,9.6-6.5,15.2
		c-8.8,25.1-12.2,57.8-9.7,92.2c2.5,33.6,10.5,65,22.5,88.4c7.1,13.9,15.2,24.1,23.7,30.1c-1,0.1-2,0.3-2.9,0.4
		c-0.7,0.1-1.5,0.1-2.2,0.2c-2.7,0.3-5.4,0.5-8.2,0.6l-7.1,0.1c-1.1,0-2.2,0-3.3-0.1c-0.8-0.1-1.5-0.1-2.3-0.2c-6.6-0.3-13-1-20.7-2
		c-0.9-0.2-1.9-0.3-2.8-0.5c-2.3-0.4-4.8-0.8-7.1-1.3l-1.3-0.3c-3.4-0.8-6.9-1.6-10.4-2.5l-3-0.8l-3-0.8c-1.4-0.4-2.8-0.9-4.1-1.4
		c-0.7-0.3-1.4-0.5-2.1-0.7c-2.8-1-5.6-2.1-8-3.1c-2.4-1.1-4.7-2.2-7.1-3.3c-1.6-0.8-3.2-1.7-4.8-2.6c-0.8-0.5-1.6-0.9-2.4-1.4
		c-1.6-0.9-3.2-1.9-4.7-3c-0.4-0.3-0.8-0.5-1.2-0.8c-1.5-1-4-2.7-5.4-3.8l-0.7-0.5c-2.1-1.7-4.7-3.8-7.2-6l-0.5-0.4
		c-2.3-2-4.6-4-6.7-6.2c-2.7-2.7-5-5.2-7.3-7.8c-1.9-2.2-3.8-4.6-5.4-6.6l-0.8-1.1c-1.5-2-3-4.1-4.4-6.2c-2-3-4-6.3-6.1-9.8
		c-1.3-2.3-2.5-4.6-3.7-6.9c-0.4-0.8-0.8-1.6-1.2-2.4c-0.5-0.9-0.9-1.9-1.2-2.8c-0.2-0.4-0.3-0.9-0.5-1.3l-0.5-1.3l-1-2.2l-0.1-0.1
		c0,0.1,0,0.3,0,0.4c0-0.2,0-0.5-0.1-0.7c-0.2-0.4-0.4-0.8-0.6-1.3c-0.2-0.5-0.4-1-0.6-1.5c-0.1-0.2-0.2-0.5-0.2-0.7l0-0.1
		c0-0.1,0-0.2-0.1-0.2C1440.5,1062.4,1440.5,1062.3,1440.6,1062.1z"/>
	<path class="st0" d="M1904,923.2c0-0.4,0-0.4,0-0.4c-0.2,0.1-0.3,0.3-0.4,0.4C1903.7,923.2,1903.8,923.2,1904,923.2L1904,923.2z"/>
	<path class="st0" d="M2121.5,1109C2121.5,1108.9,2121.5,1108.9,2121.5,1109C2121.5,1108.9,2121.5,1108.9,2121.5,1109
		C2121.5,1109,2121.5,1109,2121.5,1109z"/>
	<path class="st0" d="M1900.7,925.5C1900.7,925.5,1900.7,925.5,1900.7,925.5c-0.1,0.1-0.2,0.1-0.2,0.2c0,0,0,0,0,0
		C1900.6,925.6,1900.6,925.6,1900.7,925.5c-0.1,0.1-0.1,0.1-0.1,0.1c0,0,0,0,0,0C1900.7,925.6,1900.8,925.6,1900.7,925.5
		C1900.8,925.4,1900.8,925.5,1900.7,925.5z"/>
	<path class="st0" d="M1019.1,1581c0-0.2,0-0.4,0-0.5c-1,0.5-1.9,1-2.9,1.5C1017.2,1581.6,1018.1,1581.3,1019.1,1581z"/>
	<path class="st0" d="M1194.2,1413c0-0.1,0-0.2,0-0.3C1194.2,1412.8,1194.2,1412.9,1194.2,1413C1194.2,1413,1194.2,1413,1194.2,1413
		z"/>
	<path class="st0" d="M1415,1603c-8.5-1.4-16.9-3.9-24.9-7.1c-10-4.5-19.3-10.1-28.1-16.6c-6.9-5.5-13.5-11.5-19.7-17.8
		c-5.9-5.9-11.6-12.1-16.8-18.6c-7-9.3-13-19.4-18.1-29.9c0.7-16,1.3-32,2-48.1c0-0.2,0-0.4,0-0.5c0.9-0.7,1.8-1.4,2.8-2.1l6-4.7
		l2.9-2.3c4.9-3.8,10-7.8,14.9-11.8c1.2-1,2.5-2,3.7-3c3.6-2.9,7.3-6,10.8-9.1l2.2-2c2-1.8,4-3.6,6.1-5.4c1.8-1.6,3.6-3.4,5.3-5.1
		c0.9-0.9,1.7-1.7,2.6-2.6c1.6-1.6,3.2-3.4,4.7-5.1c0.6-0.7,1.2-1.4,1.8-2.1c1.9-2.1,3.7-4.4,5.4-6.6l0.7-1l1.2-1.5
		c4.4-5.6,8.9-11.4,12-18c2.7-5.7,4.2-10.5,5-14.9c0.7-3.9,0.8-7,0.5-9.8c-0.2-2.1-0.6-4.1-1-6.1c-0.4-1.9-1.2-3.6-1.9-5.2
		c-0.2-0.5-0.5-1-0.7-1.5c-0.6-1.3-2.3-3.3-3.2-4.4l-0.4-0.5c-0.7-0.8-1.3-1.4-2-2c-3.3-2.8-6.4-4.5-10.8-6c-0.5-0.2-1-0.3-1.5-0.4
		c-2.4-0.6-4.8-0.8-7.6-0.9c-0.2,0-0.4,0-0.6,0c-0.7,0-1.4,0.1-2.2,0.1l-0.1,0c-2.2,0.2-4.5,0.6-7.1,1.2c-2,0.5-4,1.3-5.9,2.1
		c-2.9,1.3-5.8,2.5-8.6,4c-5,2.8-9.6,6.3-14,9.8c-6.5,5.2-13,11.6-20.3,20.2c-2.5,3-4.7,6-6.8,8.9l-0.6-0.8l-0.3-0.5
		c-1.3-1.9-2.7-3.7-4.1-5.5c-0.7-0.9-1.3-1.7-2-2.6c-1.9-2.5-3.9-4.9-6-7.2c-0.8-0.9-1.5-1.7-2.3-2.6c-0.6-0.7-1.4-1.5-2.1-2.1
		c-0.4-0.3-0.7-0.7-1.1-1c-0.3-0.4-0.7-0.7-1-1.1c-0.7-0.8-1.5-1.5-2.2-2.2l-0.3-0.3c-4.2-3.8-8.6-7.6-13.4-10.9
		c-2.7-1.8-5.6-3-7.8-3.8c-1.6-0.6-3.2-1-5.1-1.3c-0.6-0.3-1.1-0.5-1.7-0.5c-0.5-0.4-1.2-0.7-2-0.9c-0.4-0.2-0.9-0.2-1.4-0.4l-0.2,0
		c-0.2,0-0.4-0.1-0.5-0.1c-0.7-0.1-1.4-0.2-2.1-0.3c-1-0.1-2-0.1-2.8-0.2c-0.2,0-0.4,0-0.6,0c-0.3,0-0.7,0-1,0c-0.3,0-0.7,0-1,0.1
		l-0.4,0c-1.2,0.1-2.4,0.3-3.5,0.5c-0.4,0.1-0.8,0.1-1.2,0.2l-0.4,0.1c-0.2,0-0.3,0.1-0.5,0.1l-0.2,0.1l-0.2,0
		c-0.2,0-0.4,0.1-0.5,0.2c-1,0.4-2.2,0.8-3.3,1.3c-0.6,0.3-1.3,0.6-2,1c-0.6,0.3-1.2,0.7-1.8,1.1c-0.8,0.6-1.5,1.1-2.1,1.7
		c-0.8,0.8-1.6,1.7-2.3,2.7c-0.7,0.5-1.3,1.2-1.8,1.8c-0.2,0.2-0.3,0.4-0.5,0.6l-0.2,0.2c-0.4,0.5-0.7,0.9-1,1.4
		c-0.4,0.6-0.8,1.2-1.1,1.7c-0.2,0.4-0.4,0.7-0.5,1.1c-0.3,0.6-0.6,1.3-0.8,2c0,0.1-0.1,0.3-0.1,0.4c-1.2,2.1-2.2,4.6-3,7.2
		c-0.7,2.3-0.9,4.8-1.1,7.2l-0.1,0.7c-0.1,1.8-0.1,3.7,0.3,6.2c0.7,5.3,2.1,10.4,4.2,15.2c3.1,7.2,7.3,14.3,13.3,22.4
		c1.5,2.1,3.2,4.2,4.8,6.2c0.7,0.8,1.3,1.6,2,2.5c4.1,5.2,8.3,10.3,13.1,15.9c0.8,0.9,1.6,1.9,2.4,2.8l0.3,0.3l0.1,0.1l0.6,0.5
		l1.9,1.8c0.5,0.5,1,1,1.5,1.6c0.2,0.3,0.5,0.5,0.7,0.8c0.8,0.8,1.6,1.7,2.3,2.6l0.2,0.2c0.8,0.9,1.6,1.9,2.3,2.8l0.3,0.3l0.1,0.2
		l1.1,1.3c0.8,1.1,1.7,2.2,2.5,3.3c0.5,0.6,1,1.2,1.5,1.8l0.3,0.4l0.3,0.4l0.3,0.4c0.7,1,1.3,2,1.9,3c0.3,0.5,0.6,0.9,0.9,1.4
		c0.8,1.2,1.6,2.5,2.5,3.7c0.3,0.5,0.7,0.9,1.1,1.4c0.2,0.2,0.4,0.4,0.7,0.6c0.3,0.3,0.7,0.6,1.1,0.8l0.1,0.1
		c0.2,0.5,0.5,0.9,0.8,1.2c-0.7,16.1-1.3,32.3-2,48.4c-4.7,9.2-10.1,18.1-16.4,26.4c-5.2,6.5-10.9,12.7-16.8,18.6
		c-6.3,6.3-12.8,12.2-19.7,17.8c-8.8,6.6-18.1,12.2-28.1,16.6c-8,3.2-16.4,5.7-24.9,7.1c-6.1,0.6-12.2,0.6-18.3,0
		c-6.4-1.1-12.7-2.8-18.8-5.1c-5.6-2.6-10.9-5.8-15.8-9.4c-7.2-5.8-13.4-12.6-19.1-19.8c-4.4-5.8-8.8-11.8-11.8-18.5
		c-0.6-1.6-1.2-3.3-1.5-5c0,0,0,0.1,0,0.1c-0.1-0.6-0.2-1.3-0.2-1.9c0,0,0,0,0,0c-3.3,8.1-2,17.3-0.3,25.6
		c1.9,9.4,5.4,18.4,9.9,26.8c10.3,18.9,28.8,33.2,49.8,37.6c5.6,1.2,11.5,1.7,17.2,1.8c6.2,0.1,12.3-0.7,18.4-1.5
		c9.6-1.4,19.1-4.3,28.1-8c10-4,19.5-8.7,28.5-14.6c3.9-2.6,7.7-5.3,11.5-8.2c5-3.8,9.9-7.6,14.3-11.9c3.1-3,6-6.3,8.7-9.7
		c3.6-4.5,7-9.1,9.9-14.1c2.8-4.8,5-9.9,7.1-15c1.8-4.3,3.1-8.7,4.1-13.2c0.1-0.3,0.1-0.6,0.2-0.8c0.1,0.3,0.1,0.6,0.2,0.8
		c1,4.5,2.3,8.9,4.1,13.2c2.1,5.1,4.3,10.2,7.1,15c2.9,5,6.3,9.6,9.9,14.1c2.7,3.4,5.5,6.7,8.7,9.7c4.5,4.3,9.4,8.1,14.3,11.9
		c3.7,2.8,7.5,5.6,11.5,8.2c9,5.9,18.6,10.6,28.5,14.6c9,3.6,18.5,6.6,28.1,8c6.1,0.9,12.2,1.7,18.4,1.5c5.7-0.1,11.6-0.6,17.2-1.8
		c21.1-4.4,39.6-18.8,49.8-37.6c4.6-8.4,8-17.4,9.9-26.8c1.7-8.3,3-17.5-0.3-25.6c0,0,0,0,0,0c-0.1,0.6-0.1,1.3-0.2,1.9
		c0,0,0-0.1,0-0.1c-0.4,1.7-0.9,3.4-1.5,5c-3,6.7-7.3,12.7-11.8,18.5c-5.7,7.3-11.9,14-19.1,19.8c-5,3.6-10.3,6.8-15.8,9.4
		c-6.1,2.4-12.3,4.1-18.8,5.1C1427.2,1603.6,1421.1,1603.6,1415,1603z"/>
	<polygon class="st0" points="1987.1,1459.6 1987.1,1459.6 1987.1,1459.6 	"/>
	<path class="st0" d="M430.9,1157c0,0,0,0.1-0.1,0.1C430.9,1157.1,430.9,1157.1,430.9,1157c0.1-0.1,0.1-0.1,0.2-0.2
		c0.1-0.2,0.2-0.5,0.3-0.7c0,0,0,0,0,0C431.3,1156.4,431.1,1156.7,430.9,1157z"/>
	<path class="st0" d="M1955.6,247.7c-0.2,0.3-0.5,0.6-0.7,0.9c0,0-0.1,0.1-0.1,0.1C1955,248.4,1955.3,248.1,1955.6,247.7z"/>
	<path class="st0" d="M1367.2,354.8c4.5,0.1,9,0.1,13.5,0.2c-3.7-0.3-7.3-0.5-11-0.8c-7-0.5-13.9-1.1-20.9-1.6
		c-7.4-0.6-14.8-1.3-22.2-2c-9,0.7-17.9,1.7-26.8,2.8c-5.2,0.8-10.4,1.6-15.6,2.5c22.2-0.9,44.4-1.1,66.6-1.2
		C1356.3,354.7,1361.7,354.7,1367.2,354.8z"/>
	<path class="st0" d="M435.4,1159.5c0.1-0.1,0.1-0.2,0.2-0.3c0,0,0,0,0,0C435.5,1159.2,435.4,1159.3,435.4,1159.5z"/>
	<path class="st0" d="M466.1,1109.3c0.1-0.1,0.1-0.1,0.2-0.2c0,0,0,0.1-0.1,0.1C466.1,1109.2,466.1,1109.2,466.1,1109.3z"/>
	<path class="st0" d="M434.5,1160.8c0.2-0.3,0.4-0.7,0.6-1c-0.1,0.1-0.2,0.3-0.4,0.4C434.7,1160.4,434.6,1160.6,434.5,1160.8z"/>
	<polygon class="st0" points="422.3,1179.1 422.3,1179.1 422.3,1179.1 	"/>
	<path class="st0" d="M2110.8,568.1c1.3-4.3,2.7-8.6,4-12.8c-1.2,3.6-2.5,7.2-3.8,10.7c-4.8,12.9-9.6,25.8-14.2,38.7
		c-2.4,6.7-4.8,13.4-7.2,20.1c-1.3,3.6-2.5,7.3-4.1,10.8c-1.3,3-2.7,5.9-4.2,8.8c-2.2,6.5-4.4,13-6.5,19.6
		c-9.9,29.7-19.8,59.5-31.4,88.6c-0.6,1.5-1.2,3-1.8,4.4c0.2-0.3,0.3-0.7,0.5-1c0.6-1.2,1.1-2.5,1.7-3.7c1-2,1.9-4.1,3.2-5.9
		c0.5-0.6,1-1.1,1.8-1.4c0.3-0.1,0.5-0.1,0.8-0.1c0.3,0,0.5,0,0.8,0.1c0.3,0.1,0.6,0.2,0.9,0.4c0.1-0.2,0.2-0.5,0.2-0.7
		c0-0.1,0-0.1,0.1-0.2c0,0,0,0,0,0c1.4-4.1,2.8-8.2,4.5-12.2c0.7-1.7,1.4-3.4,2.1-5.1c-0.1-0.4-0.1-0.8-0.1-1.2
		c0-2.9,0.7-5.7,1.6-8.5c0-0.1,0.1-0.2,0.1-0.3c0,0,0,0,0,0c1.2-3.7,2.4-7.2,3.7-10.8c2.4-6.5,5.1-12.9,7.6-19.3
		c2.8-7.1,5.6-14.2,8.3-21.4c0.1-0.3,0.2-0.7,0.3-1c0.1-0.4,0.2-0.7,0.3-1.1c1.6-6.4,3.4-12.7,5.3-19c2-6.4,4.1-12.8,6.3-19.1
		c2.2-6.5,4.6-13,6.9-19.4c1.6-4.4,3.3-8.9,4.8-13.4c0.5-1.5,1-3.1,1.5-4.6C2106.8,581.4,2108.7,574.8,2110.8,568.1z"/>
	<path class="st0" d="M490.6,1363.2c0,0.1,0,0.2,0,0.4c-0.1-0.5-0.1-0.9-0.2-1.4C490.5,1362.5,490.5,1362.9,490.6,1363.2z"/>
	<path class="st0" d="M1271.4,954.6c0.1,0,0.1,0,0.2-0.1c0-0.6,0.1-1.2,0.3-1.8c0.7-8.6,3.4-16.8,3.6-25.4c0-1.1,0.3-2.1,0.7-2.9
		h36.1c2.2,7.2,3.6,14.7,4.6,22.2c0.3,1.4,0.6,2.8,0.7,4.2c0.1,0,0.3,0.1,0.4,0.1c2.6,14.8,6,29.9,9.6,44.9
		c14.3,58.6,32.6,118.3,63.2,169.8c64.6,108.7,160,151.2,278.4,151.2c193.6,0,280.3-92.1,305.8-224.8
		c21.1-109.8,16.7-148.7,23.8-170.9c0.6-4.3,1.3-8.5,2.1-12.7c2.2-18.3,5.3-36.5,8.4-54.6c0.1-1.4,0.2-2.8,0.4-4.2
		c-0.2-0.8-0.2-1.6-0.1-2.4c-0.3-3.5,0.1-7,0.1-10.7c0.2-8.7-1.8-17.2-4.5-25.4c-2.9-6.1-6.5-11.9-10.6-17.5
		c-0.4-0.3-0.8-0.6-1.1-0.9c-2.6-1.6-5.3-3.2-7.9-4.7c-0.6-0.1-1.2-0.3-1.8-0.6c-191.2-39.3-385.3-47.8-577.3-7.6
		c-39.5,8.3-63.8,25.5-77.8,48.5c-0.2,0.1-0.4,0.1-0.5,0.2c-1.6,2.3-3.1,4.6-4.9,6.8c-1.8,3.6-3.8,7.1-5.9,10.7h-48.7
		c-0.5-0.6-1-1.4-1.2-2.2c-1.8-5.3-4.7-10.2-6.7-15.4c-0.1,0-0.1,0-0.2-0.1c-14.1-23.7-38.5-41.4-78.1-50
		c-192.3-41.4-386.8-32.7-578.4,7.7c-0.3,0.2-0.5,0.5-0.8,0.7c-12.6,9.2-20,22.7-24.2,37.7c-0.6,3.5-1.1,7-1.7,10.5
		c-0.2,29.5,6.8,59.2,10.9,88.8c7.4,22.8,2.7,62.6,24,176.6c25.6,136.8,112.5,231.6,306.7,231.6c118.8,0,214.4-43.8,279.3-155.8
		c30.7-53.1,49-114.6,63.4-175C1265.4,985.4,1268.8,969.8,1271.4,954.6z M1369.6,850c3.3-4.8,7-9,10.9-12.9
		c22.6-22.9,54.3-32.8,84.7-40.5c27.4-7,55.3-11.3,83.4-13.9c30-2.7,60.1-3.9,90.2-3.6c55.5,0.5,85.7,0.7,140.7,7.3
		c45.3,5.4,124.6,8.8,157.4,48c27.7,33.1,23.5,76.3,21,116.7c-2.8,44.8-9.2,89.4-18.4,133.2c-5.5,26.2-10.6,55.5-21.7,80.8
		c-4.1,9.4-9.1,18.3-15.3,26.2c-31,39.8-63.8,65.8-111.7,79.4c-48.1,13.7-99.2,13.5-148.7,11.5c-211-8.6-249.7-176.5-280.4-307
		c-0.9-3.7-1.7-7.5-2.6-11.3C1350.7,925.4,1346.2,883.8,1369.6,850z M1230.1,967.9c-0.8,3.9-1.7,7.8-2.6,11.6
		c-30.8,134.4-69.6,307.3-281.2,316.2c-49.6,2.1-100.8,2.3-149.1-11.8c-48-14-80.9-40.8-112-81.8c-6.2-8.2-11.2-17.3-15.4-27
		c-11.2-26.1-16.3-56.3-21.8-83.3c-9.2-45.2-15.6-91.1-18.4-137.3c-2.5-41.7-6.7-86.2,21-120.3c32.9-40.4,112.4-43.8,157.8-49.4
		c55.2-6.8,85.5-7,141.1-7.5c30.2-0.3,60.4,0.9,90.4,3.7c28.2,2.6,56.2,7.1,83.6,14.3c30.4,8,62.2,18.1,84.9,41.7
		c3.9,4.1,7.6,8.4,10.9,13.3C1243.1,885.3,1238.5,928.2,1230.1,967.9z"/>
	<path class="st0" d="M1173.7,1065.9c-0.6-5.5-1.4-10.9-2.5-16.3c-1.3-6-3.1-12-5-17.9c-0.9-2.8-2-5.6-3.1-8.3c-1.2-3-2.5-6-3.9-8.9
		c-0.7-1.8-1.3-3.5-2.1-5.3c-1.5-3.7-3-7.5-4.9-11c-6.5-12.5-14.3-24.3-23.4-35.1c-8.6-10.3-17.6-20.2-27.5-29.2
		c-5.3-4.8-11-9.3-16.8-13.5c-5.6-4.1-11.3-8.1-17.1-11.9c-11-7.2-22.4-13.7-34.3-19.3c-12.7-6-25.8-11.2-39.3-15.1
		c-5.9-1.7-11.9-3-17.9-4c-7.8-1.2-15.5-2.3-23.4-3c-9.8-0.8-19.7-1.2-29.6-1.2c-3.5,0-6.9,0-10.4,0.1c-7.5,0.2-15,1.3-22.4,2.4
		c-6,0.9-12.1,1.9-18,3.2c-2.3,0.5-4.6,1-6.9,1.5c-1.1,0.3-2.3,0.4-3.4,0.8c-3.7,1.1-7.4,2.2-11.1,3.3c-3,0.9-6,2.2-8.9,3.3
		c-2.6,1-5.1,2-7.6,3c-12.4,5.1-24.8,10.1-37.4,14.7c-6.4,2.3-12.9,4.6-19.3,7c-5,1.9-9.9,3.9-15,5.7c-8.3,2.9-17,5.1-25.7,6.4
		c-7.7,0.9-15.5,0.8-23.2-0.2c-7.1-1-14.2-2.4-21.1-4.4c-2.9-0.8-5.8-1.6-8.7-2.5c-5.4-1.5-10.8-3.3-16-5.5c0,0,0,0,0,0
		c4.3,3.6,8.8,6.7,13.4,9.8c4.6,3.2,9.3,6.2,14.2,9c0,0,0,0,0,0c4.1,3.4,8.4,6.4,12.8,9.4c5.6,3.8,11.3,7.6,17.3,10.6
		c8.1,4.1,16.6,7.6,25.6,9.2c5.1,0.9,10.2,1.5,15.3,1.4c4.9-0.1,9.8-0.5,14.7-1.2c4.7-0.7,9.4-1.6,13.9-3c0.1,0,0.1,0,0.2-0.1
		c1.3-0.4,2.7-0.8,4-1.2c0.1,0,0.2-0.1,0.2-0.1c0.7-0.2,1.4-0.4,2.1-0.7c1.3-0.4,2.6-0.9,3.9-1.3c-1.2,6.4-2,12.8-2.1,19.1
		c-0.2,6.2,0,12.4,0.2,18.3c0.2,7.3,1.1,15,2.5,23.1c1.6,9.3,4,18.4,7.1,26.9c6.4,17.5,14.9,34.2,25.2,49.4
		c11.2,16.7,23.7,30.7,36.9,41.7c5.5,4.6,12.8,10.4,20.8,15l5.1,3l5,2.9c1.9,1.1,3.8,2.1,5.7,3.1c0.7,0.4,1.4,0.7,2.1,1.1
		c2,1,4.6,2.4,7.2,3.7c0.9,0.5,1.8,0.9,2.7,1.4c1.9,0.9,3.8,1.9,5.8,2.8c3.5,1.5,6.9,3.1,10.3,4.6c2.9,1.3,5.9,2.4,8.9,3.5l2.3,0.8
		c2.7,1,5.4,1.8,8.3,2.6l0.3,0.1c6.3,1.8,12.8,3.1,18.4,4.1c7.4,1.4,14.8,2.1,21.7,2.7c2.1,0.2,4.2,0.3,6.6,0.3
		c3.8,0,7.7-0.2,11.4-0.4l0.8,0c6.1-0.3,12.2-1.2,18.1-2l3.5-0.5c6.7-0.9,13.1-2.4,18.1-3.6c6.7-1.6,13.1-3.8,18-5.6
		c6.9-2.5,13.5-5.6,19.5-8.7c1.9-1,3.9-2.1,5.7-3.2c0.7-0.4,1.4-0.9,2.2-1.3c0.9-0.5,1.7-1.1,2.5-1.6c0.4-0.3,0.8-0.5,1.1-0.8
		c2.1-1.4,3.9-2.7,5.7-4.1c0.7-0.5,1.4-1,2-1.6c1.6-1.2,3.2-2.4,4.7-3.8c2.9-2.6,5.3-4.8,7.5-6.8c3.5-3.3,8-7.7,11.9-12.6
		c2.3-2.8,5-6.2,7.6-9.8c2-2.7,3.9-5.6,5.8-8.3c3.2-4.8,6.1-9.7,8.6-14.6c0.4-0.8,0.8-1.5,1.2-2.3c0.4-0.7,0.7-1.5,1.1-2.2
		c0,0,0,0,0,0c0-0.1,0.1-0.1,0.1-0.2c0.9,2.2,1.8,4.4,2.7,6.6c2.6,6.4,4.4,13,6.2,19.7c0,0,0,0,0,0l0,0c0,0,0,0,0,0
		c0.8-5.1,1.5-10.2,1.8-15.3c0.2-4.8,0.1-9.7-0.1-14.5C1174.2,1075,1174.1,1070.4,1173.7,1065.9z M754.2,936.1c-0.2,0-0.3,0-0.5,0
		C753.8,936.1,754,936.1,754.2,936.1C754.2,936.1,754.2,936.1,754.2,936.1z M956.7,934.4c-14.6,22.2-26,52.8-32.1,86.2
		c-8,43.9-5.5,84.4,5,110.2c0,0,0,0,0,0c-12-6.3-23.7-12.6-34.5-20.7c-11.1-8.8-21.3-19-30.2-30.4c-11-14.6-20.2-30.3-27.3-46.8
		c-5.5-13.5-9.4-27.4-11.4-41.2c-0.8-6.3-1.2-12.7-1.7-18.8c-0.1-1.6-0.2-3.1-0.3-4.7c-0.1-1.8-0.3-3.5-0.4-5.3
		c-0.4-5-0.9-10.1-0.8-15.2c0-0.8-0.1-1.6-0.3-2.4c0.1-0.9,0-1.8,0-2.8c0-0.8,0-1.5,0-2.3c1.4-0.5,2.8-1,4.2-1.6c0,0,0.1,0,0.1,0
		c1.5-0.5,3-1.1,4.4-1.7c1.4-0.5,2.8-1,4.1-1.5c4.4-1.6,8.8-3.3,13.1-5c6.8-2.7,13.5-5.8,20.5-7.9c1.2-0.5,2.4-1,3.7-1.4
		c3.2-1.5,6.6-2.3,10-3.2c4.7-1.3,12.5-3.1,17.3-3.9c5.9-1,11.8-1.9,17.7-2.8c2.7-0.2,5.4-0.5,8.1-0.7c1.5-0.1,3-0.1,4.5-0.1
		c0.6,0,1.2,0,1.9,0c1,0,2,0,3,0c3.3,0,6.6,0.1,9.9,0.2c8.8,0.3,17.6,0.9,26.4,1.8c1.1,0.2,2.3,0.3,3.4,0.5
		C968.7,918.3,962.6,925.5,956.7,934.4z M1151.1,1066.5c0-0.1,0-0.2,0-0.4C1151.1,1066.2,1151.1,1066.3,1151.1,1066.5
		C1151.1,1066.5,1151.1,1066.5,1151.1,1066.5z M1152.8,1058.1c0,0,0,0.1,0,0.1c0,0.1,0,0.3-0.1,0.4c0,0.1,0,0.2-0.1,0.3l0,0.1
		c-0.1,0.2-0.1,0.5-0.2,0.7c-0.2,0.5-0.4,1-0.6,1.5c-0.2,0.4-0.4,0.9-0.6,1.3c0,0.2,0,0.5-0.1,0.7c0-0.1,0-0.3,0-0.4l-0.1,0.1
		l-1,2.2l-0.5,1.3c-0.2,0.4-0.4,0.9-0.5,1.3c-0.4,0.9-0.8,1.9-1.2,2.8c-0.4,0.8-0.8,1.6-1.2,2.4c-1.2,2.3-2.4,4.7-3.7,6.9
		c-2.1,3.6-4.1,6.8-6.1,9.8c-1.4,2.1-2.9,4.2-4.4,6.2l-0.8,1.1c-1.6,2-3.5,4.4-5.4,6.6c-2.3,2.6-4.7,5.1-7.3,7.8
		c-2.1,2.2-4.4,4.2-6.7,6.2l-0.5,0.4c-2.5,2.2-5,4.3-7.2,6l-0.7,0.5c-1.4,1.1-3.9,2.8-5.4,3.8c-0.4,0.3-0.8,0.5-1.2,0.8
		c-1.5,1-3.1,2.1-4.7,3c-0.8,0.4-1.6,0.9-2.4,1.4c-1.6,0.9-3.2,1.8-4.8,2.6c-2.4,1.1-4.7,2.2-7.1,3.3c-2.4,1-5.2,2.1-8,3.1
		c-0.7,0.2-1.4,0.5-2.1,0.7c-1.4,0.5-2.7,1-4.1,1.4l-3,0.8l-3,0.8c-3.4,1-6.9,1.8-10.4,2.5l-1.3,0.3c-2.3,0.5-4.8,0.9-7.1,1.3
		c-0.9,0.1-1.9,0.3-2.8,0.5c-7.6,1-14.1,1.7-20.7,2c-0.8,0-1.5,0.1-2.3,0.2c-1.1,0.1-2.2,0.1-3.3,0.1l-7.1-0.1
		c-2.7-0.1-5.5-0.3-8.2-0.6c-0.7-0.1-1.5-0.1-2.2-0.2c-2.8-0.4-5.8-0.8-8.7-1.4l0,0c6.8-5.4,13.6-13.1,20.1-22.9
		c14.6-22.2,26-52.8,32.1-86.2c6.3-34.2,6.4-67.4,0.3-93.5c-1.5-6.3-3.3-12-5.4-17.1c2.1,1,4.2,2.1,6.3,3.2
		c5.2,2.8,10.4,5.7,15.4,8.8c9,5.5,17.6,11.7,26,18c3.4,2.8,6.7,5.6,10,8.5c3.4,3,6.5,6.3,9.6,9.5c5.8,6,11.2,12.5,16.4,19
		c2.2,2.9,4.4,5.8,6.5,8.8c7.2,10.1,14.5,20.1,20.6,30.9c0.9,1.6,1.8,3.3,2.8,4.9c0,0.1,0.1,0.1,0.1,0.2c0.6,1,1.1,2,1.6,3
		c0,0.1,0,0.2-0.1,0.3c0,0,0,0,0,0c0.3,0.4,0.6,0.8,0.9,1.2c0.3,0.6,0.7,1.2,1,1.8C1149.8,1052.2,1151.3,1055.1,1152.8,1058.1
		C1152.8,1058.1,1152.8,1058.1,1152.8,1058.1z"/>
	<path class="st0" d="M466.3,1109C466.3,1108.9,466.3,1108.9,466.3,1109C466.3,1108.9,466.3,1108.9,466.3,1109
		C466.3,1109,466.3,1109,466.3,1109z"/>
	<path class="st0" d="M607.6,1475c0,0.1,0.1,0.1,0.1,0.2c0,0,0,0,0-0.1C607.7,1475.1,607.6,1475.1,607.6,1475z"/>
	<polygon class="st0" points="608.5,1477.1 608.5,1477.1 608.5,1477.1 	"/>
	<path class="st0" d="M608.5,1477.2C608.5,1477.2,608.5,1477.2,608.5,1477.2C608.5,1477.2,608.5,1477.2,608.5,1477.2
		C608.5,1477.2,608.5,1477.2,608.5,1477.2z"/>
	<path class="st0" d="M466.7,1109C466.7,1109,466.7,1109,466.7,1109C466.7,1109,466.7,1109,466.7,1109
		C466.7,1109,466.7,1109,466.7,1109C466.7,1109,466.7,1109,466.7,1109C466.7,1109,466.7,1109,466.7,1109z"/>
	<path class="st0" d="M1053.2,1482.3C1053.2,1482.3,1053.2,1482.3,1053.2,1482.3C1053.2,1482.3,1053.2,1482.3,1053.2,1482.3
		C1053.2,1482.3,1053.2,1482.3,1053.2,1482.3C1053.1,1482.3,1053.2,1482.3,1053.2,1482.3z"/>
	<polygon class="st0" points="1053.1,1482.3 1053.1,1482.3 1053.1,1482.3 	"/>
	<path class="st0" d="M713.5,1373.7C713.6,1373.7,713.6,1373.7,713.5,1373.7c0.1-0.1,0.1-0.2,0.1-0.3
		C713.6,1373.5,713.5,1373.6,713.5,1373.7z"/>
	<path class="st0" d="M694.6,1361.1C694.6,1361.1,694.7,1361.1,694.6,1361.1c0.1-0.1,0.1-0.2,0.1-0.3
		C694.6,1360.9,694.6,1361,694.6,1361.1z"/>
	<path class="st0" d="M600.7,1459.6C600.7,1459.6,600.7,1459.6,600.7,1459.6C600.7,1459.6,600.7,1459.6,600.7,1459.6
		C600.7,1459.7,600.7,1459.7,600.7,1459.6C600.7,1459.7,600.7,1459.6,600.7,1459.6L600.7,1459.6z"/>
	<polygon class="st0" points="600.7,1459.6 600.7,1459.6 600.7,1459.6 	"/>
	<path class="st0" d="M741.1,1382.2c0,0.2,0,0.4,0,0.6c0,0,0,0,0,0.1c0.1-0.2,0.1-0.3,0.2-0.5c0-0.1,0.1-0.2,0.1-0.3
		c-0.1-0.1-0.1-0.1-0.2-0.2C741.2,1382,741.2,1382.1,741.1,1382.2z"/>
</g>
</svg>
