<svg viewBox="0 0 2698.2 1960" xmlns="http://www.w3.org/2000/svg"><style>.st0{stroke:#161616;stroke-width:0.5;stroke-miterlimit:10;}</style><path class="st0" d="M416.1 1702c.5-.2.9-.4 1.4-.6-.5.2-1 .4-1.4.6zM2292.5 1003.6c-.4 0-.7.1-1.1.1v.1c.4-.1.7-.2 1.1-.2z"/><path class="st0" d="M2005.2 1600.6c-20.8-5.6-41.6-10.9-62.6-15.9 9.7-14 19.1-28.3 28.1-42.8 8.9-14.3 17.5-28.7 25.8-43.4.4-.8.8-1.6 1-2.3 2-3.5 4.1-7 6-10.5 3.1-5.6 6.1-11.3 8.9-17.1 1.5-3 3.1-6.1 4.5-9.2 2.1-4.8 4.2-9.7 6.3-14.5.4-.9.7-1.8 1.1-2.7h7.2c4.3 0 8.6.1 12.9.1 1.2 10.7 2.4 21.4 3.3 32.1.6 6.9 1 13.9 1.2 20.8.2 2.4.3 4.7.4 7.1v1.2s0 .1.1.1c.1.1.1.2.2.4.3.9.3 1.9.4 2.8.1.7.1 1.4.2 2.1s.1 1.3.1 2c0 .4 0 .7.1 1.1v1.6-.1c.2 2.6.5 5.1.2 7.7-.3 1-.5 1.9-.8 2.9 4.1-3.4 7.7-7.3 11-11.5.7-.6 1.3-1.1 2-1.7v.1c0 .2 0 .5.1.7.3-.5.6-1.1.8-1.7 2-1.9 4-3.8 5.7-6 1.9-2.3 3.8-4.7 5.5-7.1s3.5-4.8 4.9-7.3c4.2-7.6 8.1-15.6 10.2-24.2.2-1 .5-1.9.7-2.9.4-.4.6-.9.8-1.4.1-.2.1-.4.2-.6.3-1.1.7-2.2 1.1-3.2l1.8-4.2c.7-1.7 1.4-3.5 2.1-5.3.6-1.4 1.2-2.9 1.6-4.4 86.3 2.3 172.6 8 258.6 16.4 108.2 10.6 216 25.7 323.1 44.3-106.9-19.9-214.5-36.2-322.7-48.1-85.3-9.4-171-16-256.9-19.4 1.1-3 2.1-6.1 3.1-9.1 2.6-7.8 4.9-15.6 7-23.5 3.5-12.8 6.7-25.7 8.8-38.8 1-6.3 1.8-12.6 3.2-18.8 1.5-6.4 3.4-12.6 4.9-18.9 3.2-13.3 5-26.9 5.7-40.5 29.2-1 58.5-1.4 87.7-1.3 94.1.3 188.1 6.1 281.8 15.9-93.5-11.1-187.5-18.1-281.7-19.7-29.2-.5-58.3-.5-87.5.1.2-6.4-.1-12.9-.4-19.3-.2-3-.4-6-.6-8.9-.2-2.3-.4-4.5-.7-6.8.1-3.9.2-7.8.1-11.9-.1-6.6-.6-13.3-1.5-20.4.2-7 .1-14-.4-21-.3-3.9-.7-7.8-1.2-11.7 0-.1.1-.2.1-.3.4-1.7.2-3.6.1-5.3-.2-1.6-.4-3.2-.7-4.7-.1-.8-.3-1.6-.5-2.4.1-4.2-.8-8.5-1.5-12.4-.2-1.1-.4-2.2-.6-3.2 1.3 2.3 2.5 4.5 3.8 6.6.5.9 1 1.8 1.4 2.7l.9 1.8c2.4 4.5 4.7 8.3 7 11.6 5.2 7.6 11 15.3 17.9 23.5 4.5 5.4 8.3 9.7 12 13.7 2.4 2.6 4.8 5.1 7.3 7.6l2.1 2.1 3.9-24.9c.8-4.7 1.6-9.3 2.4-14 .1-.7.1-1.4.2-2.1.5-6 .7-12.5.8-21 .1-11-.5-23.1-1.9-37.9-.9-9.9-2.1-19.7-3.5-29.1-.7-4.5-1.6-9.1-2.5-13.5l-1.2-6-.2-.9c-1.1-5.6-2.2-11.3-3.5-16.9-.4-1.9-.9-3.7-1.3-5.6-1.1-4.7-2.2-9.5-3.5-14.2l-1.8-6.6c-1.5-5.6-3-11.2-4.5-16.9-1.3-4.8-2.8-9.6-4.2-14.3-.7-2.4-1.5-4.8-2.2-7.2-3.5-11.6-7.3-23.3-11.1-34.6l-1.7-5.1c-1.8-5.6-3.9-11.1-5.9-16.5l-.5-1.4-.7-2c-2.1-5.8-4.4-11.8-6.9-17.5l-10.9-24.6c-.6-1.3-1.3-2.6-2-3.9l-3.8-7.1-2.5-4.6-2-3.8c-1.6-3.1-3.3-6.1-4.9-9.2-.3-.5-.5-1-.8-1.5s-.5-1-.8-1.5c-.9-1.7-1.7-3.4-2.5-5.2-.4-.9-.9-1.9-1.4-2.8-.1-.2-.2-.4-.4-.7-.5-.9-1-1.7-1.5-2.6v-.1c-.4-.7-.8-1.3-1.2-2-.1-.2-.2-.4-.4-.6-.2-.4-.5-.7-.7-1.1-.7-1-1.4-2.1-2-3.1-1.2-1.8-2.2-3.6-3.2-5.5l-3-4.8c-.1-.2-.2-.3-.3-.5-.4-.8-.9-1.5-1.3-2.3-.4-.6-.7-1.2-1.1-1.9-.3-.6-.7-1.2-1-1.9-.4-.7-.8-1.4-1.1-2.1-.7-1.3-1.2-2.6-1.8-3.9-.8-1.1-1.6-2.3-2.3-3.4-2.3-3.6-4.7-7.1-6.1-11.2 0-.1 0-.1-.1-.2-.7-1-1.4-1.9-2-2.9-.2-.3-.5-.6-.7-1-.9-1.5-1.7-3-2.6-4.5-.9-1.4-1.9-2.9-2.9-4.2v-.1l-.6-.9c-.6-.9-1.1-1.9-1.7-2.8.3-.8.5-1.6.8-2.4 1.2-3.3 2.3-6.7 3.5-10 1.5-3.6 3-7.1 4.4-10.8 1.3-3.6 2.6-7.1 3.9-10.7 2.2-4.6 4.2-9.3 6.2-14 2.9-6.7 5.9-13.5 8.4-20.3 2.3-6.3 4.6-12.7 6.9-19 2.4-6.3 4.4-12.7 6.1-19.2s3.5-13 5.6-19.4c2.1-6.3 4.6-12.4 7-18.6 2.5-6.2 5-12.4 7.4-18.5 5-12.4 9.9-24.8 13.7-37.7 3.8-13.1 7.6-26.2 11.7-39.3 2.2-7 4.3-14 6.4-21 1.9-6.4 3.3-12.9 4.7-19.4 3-13.3 5.4-26.6 7.7-40 1.4-8 2.6-16 3.6-24 .9-6.7 1.3-13.5 1.9-20.2.6-6.8 1.3-13.5 2-20.3.7-6.7 1.1-13.4 1.4-20.1.7-13.3.8-26.6.5-39.9-.1-5.8-.4-11.6-.8-17.4-.7-2.7-.9-5.5-1.3-9.3-.1-.7-.2-1.5-.2-2.2-.1-1.6-.3-3.2-.3-4.9-.1-1.2-.1-2.4-.2-3.6-.2-2-.5-3.9-.8-5.9.2 0 .4 0 .5-.1-.2-1.9-.4-3.9-.6-5.8-.6-6.6-1-13.2-1.7-19.8-1-6.8-2.2-13.5-3.1-20.3-.2-1.5-.4-2.9-.5-4.4-.2-1.6-.3-3.1-.4-4.7-.2-2.2-.4-4.4-.5-6.5-.1-1.4-.2-2.8-.3-4.3-.3-4.2-.4-8.3-.3-12.5v-.7c-1.8-12.9-3.6-25.8-5.9-38.6-2.8-15.8-6.5-31.4-9.1-47.3-1.8-10.6-3.4-21.3-5.9-31.8-1.2-5.2-2.4-10.5-4.2-15.6-2.2-5.9-4.9-11.7-7.5-17.4-.2-.6-.5-1.1-.7-1.7-.1-.2-.3-.4-.4-.5l-1.5-3.3c-3.8-8.4-7.9-16.6-11.7-24.9-.5-1.2-1-2.3-1.6-3.5-1.1.5-2.3 1.1-3.4 1.6-.5.2-.9.4-1.4.7-1.2.5-2.4 1.1-3.7 1.6-.2.1-.4.2-.5.2-1.6.7-3.2 1.3-4.9 1.9-.3.1-.7.3-1 .4s-.7.3-1 .4c-1.3.5-2.6.9-3.9 1.4-.8-.2-1.7-.3-2.5-.3-.9 0-1.8.1-2.7.3-3.9.9-7.8 1.7-11.7 2.9-3.5 1.1-6.9 2.2-10.4 3.4-7 2.3-14 4.5-20.9 7.1-15.3 5.6-30.2 12-45.2 18.4-6.6 2.8-13.2 5.8-19.7 8.9-5 2.3-9.9 4.7-14.9 7.2-6.3.6-12.4 3.2-18 5.9-5.4 2.6-10.1 6.3-14 10.8-3 1.7-6.1 3.4-9.1 5.1l-.3.3c-.1.2-.3.3-.4.5l-2.1 2.7c-1.3 1.7-2.6 3.4-3.9 5-2.6 3.2-5.3 6.4-8.3 9.2-2.6 2.4-5.5 4.6-8.4 6.7-.3.4-.6.8-.9 1.1l-.6.3c.5-.6 1-1.3 1.6-1.9 2.9-2.1 5.7-4.3 8.4-6.7 3.1-2.8 5.7-6 8.3-9.2 1.4-1.6 2.7-3.3 3.9-5l2.1-2.7c.2-.1.4-.2.7-.4 1-1.2 2-2.3 3.1-3.5h-.9l.2-.2c.3-.4.7-.7 1-1.1 1.2-.7 2.4-1.3 3.6-1.9l2.4-.9h-.2c-1.1 0-2.3.1-3.4.2.7-.8 1.5-1.5 2.3-2.2.6-.5 1.2-.8 1.9-1.1-.5.1-1.1.2-1.6.4-1 .5-2 1.1-2.9 1.8-.7.5-1.3 1-2 1.6-2 .4-3.9 1.2-5.7 2.1 1.3-.9 2.7-1.8 4-2.7 2.1-1.4 4.2-2.8 6.3-4.1-2.5.9-5 1.9-7.4 3-1.4.6-2.8 1.3-4.2 1.9-3.3 1.5-6.3 3.6-9.3 5.7-1.2.9-2.3 1.7-3.5 2.7-.1 0-.1 0-.2.1l-1.8.9c-.3 0-.6 0-.8.1-7.6.8-14 4.8-19.7 9.6l-.3.3c3.5-4.4 6.9-8.8 10.7-13-13.1 5.8-25.1 14.1-35.8 23.5-5.5 4.8-10.1 10.1-14.6 15.9-2.1 2.6-4.3 5.3-6.1 8.1-1.9 3.1-3.8 6.3-5.6 9.5-.2.4-.5.9-.7 1.3-1.9 3.5-3.7 7.1-5.3 10.7.8-.7 1.7-1.3 2.5-2h.5l-3.3 2.7.3-.6c-.1.1-.2.1-.3.2 1.7-3.9 3.6-7.7 5.6-11.4-.7.5-1.4 1-2.1 1.6-3 2.3-6 4.7-9 7 5.5-7.3 10.6-14.9 16.1-22.2 4.3-5.4 9.3-10.2 13.9-15.4 2.5-2.7 4.9-5.5 7.7-7.8-4.7.4-9.2 1.7-13.7 3.1-4.2 1.3-8.5 2.7-12.5 4.5-6.4 2.8-12 7-17.3 11.5-8 6.8-14.5 15.3-19.6 24.5.9-2.4 1.9-4.8 2.8-7.2.3-.6.5-1.1.8-1.6-8.4 4.2-16 10.6-22.9 16.9-7.5 6.9-14.1 15-18.1 24.4-2.7 6.3-4.6 12.7-5.8 19.2-1.1 1.6-2.1 3.2-3.2 4.9.1-.7.3-1.3.4-2 .9-4.3 1.5-8.8 3.1-12.9.2-.5.5-.9.7-1.4-4.3 2.2-7.4 6.2-10.4 9.9-2.2 2.7-4 5.6-5.8 8.5-3.9 6.2-7 13-8.5 20.3-.2 1-.4 1.9-.6 2.9-1.3.9-2.4 2.3-3.4 3.4-1.4 1.5-2.6 3.2-3.8 4.9-1.7 2.4-3.3 4.9-4.9 7.4-1.2 2-2.4 4.1-3.5 6.2-.2.3-.4.7-.6 1 4.1-8.3 7.1-17.1 10.5-25.7 1.4-3.2 3-6.1 5.1-8.9 1.6-2 3.1-3.8 4.9-5.6h-2c-4.4 0-8.9.6-13.1 1.9-10 3.2-18.1 10.8-24.2 19.1-2.3 3.1-4.1 6.7-5.5 10.4-7.5 6.7-12.7 16.1-15.7 25.7.4-2 .8-3.9 1.3-5.9 1-3.9 2.6-7.7 4.1-11.4.3-.6.6-1.3.9-1.9-2.8 1.5-5.5 3.2-8.1 5-6.1 4.2-10.7 9.5-14.8 15.6-1.3 2-2.5 4-3.6 6.2-1.7 2.5-3.3 5.2-4.8 7.8-1.8 3-3.5 6.2-5.1 9.3-3.6 6.7-6.7 13.6-9.5 20.7-.5 1.3-1 2.6-1.5 4-1.5-8.1-3.7-16.1-6.1-24-1.7 9.5-2.5 19.2-2.1 28.8-1.9-5-4.1-9.8-6.4-14.6-2.5-5.2-5.4-10.2-7.9-15.4.1 5.7.7 11.4 1.5 17.1.2 1.6.4 3.1.7 4.7-3.8-5.6-7.9-11-12.3-16 3.1 7.4 5.8 14.9 9 22.2-.7-.4-1.5-.9-2.2-1.3-5.6-3.1-11.5-5.6-17.6-7.7-5.5-1.9-11.3-3.1-16.8-4.9 3.1 10.9 8.7 21.5 15.4 30.6 1.9 2.6 3.9 5.2 6 7.7-2.6-1.1-5.2-2.1-7.8-3-.9-.3-1.9-.4-2.9-.4-2.1 0-4.3.7-6.1 1.8-2.7-1.1-5.3-2.3-7.9-3.5-3.3-1.6-6.5-3.2-9.8-4.8-6.6-3.2-13.2-6.2-19.9-9.1-6.3-2.6-12.7-4.9-19.3-6.5-6.6-1.7-13.2-3.1-19.9-4.6-6.5-1.5-13-2.9-19.5-4.1-7.5-1.4-15-2.5-22.5-3.5-9.3-1.2-18.7-1.9-28.1-1.9-4.1 0-8.1.1-12.2.4-.8.1-1.7.1-2.5.2-5.7-1.3-11.4-2.4-17.2-3.4-14.2-2.4-28.6-4.4-43-4.5h-5c-2 0-3.9 0-5.9.1l-10.8.6c-1.2.1-2.5.2-3.7.3 1.5-.6 3-1.1 4.6-1.7-12.1-1-24.2-1.5-36.4-1.5-14.9 0-29.9.7-44.8 1.9-16.1 1.3-32.2 3.4-47.9 7l-6.3 1.5c3.1-2.2 6.2-4.4 9.4-6.4 5.5-3.5 10.9-7.2 16.8-10.1-4.4-.8-8.9-1.1-13.4-1.1-10.2 0-20.5 1.7-30.4 3.8-6.8 1.4-13.5 3.5-20 5.9-6.1 2.3-12 4.9-17.7 8.2-13.2 7.8-25.4 17.2-36.5 27.8l-.2.2h-.1l.2-.2c-.3.1-.6.1-.9.2-3.2-.2-6.4-.1-9.5.1 1.3-.8 2.6-1.6 3.9-2.5 5.5-3.5 10.8-7.2 16.3-10.7 4.3-2.8 8.6-5.6 13.2-7.7-6.5-1.6-13.4-2-20.1-2.1h-1.5c-6.8 0-13.5.4-20.3 1-8 .8-16.1 2.7-23.9 4.7-8.1 2.1-16 5.5-23.4 9.3-6.5 3.4-12.7 7.5-18.5 12-.1-5.2-1.8-10.3-4.2-14.8-3.1-5.9-8.6-9.4-14.8-10.6-.8-5.3-2-10.5-3.1-15.7-4.5 9.6-8.4 19.7-10 30.2-.4 2.7-.6 5.4-.7 8.1-.3-1.1-.6-2.3-1-3.4-2.4-7.1-5.9-13.7-10.5-19.5-1.5-1.8-3.1-3.6-4.7-5.2-1.2-4.5-2.5-9-4.1-13.4-2.4-6.8-5.2-13.4-8.7-19.6-5.7-10.1-12.4-19.7-20.3-28.2-7.7-8.2-16.1-15.6-25.3-22.2 2.2 6.7 4 13.6 5.9 20.4 1.8 6.2 3.7 12.4 5.6 18.6.9 3 2.1 6 3 9 1.1 4 2.4 8 3.7 11.9.5 1.6 1.1 3.2 1.7 4.7-.5-.1-.9-.1-1.4-.2.5.6 1.1 1.2 1.6 1.9.3.3.5.7.8 1 1.2 3.1 2.4 6.3 3.6 9.3l-3.3-3.6c-.9-.9-1.7-1.9-2.6-2.8-4.9-16.2-11-32-18.5-47.2-6.1-12.4-13.8-23.6-22.2-34.5-4.6-6-9.4-11.9-14.4-17.6-5.5-6.4-11.3-12.5-16.9-18.9 3.3 13.1 7.4 26.1 12.2 38.8 2.8 7.4 5.9 14.7 9.3 21.9-.7-1.1-1.4-2.3-2.1-3.4-2.6-4.1-5.4-8.1-8.3-12.1-1.1-1.5-2.3-3-3.4-4.6-4.1-5.8-8.4-11.5-12.8-17.2-3.1-4-6.2-8-9.4-12-.1-.2-.1-.3-.2-.5-2.3-4.7-5.4-9-8.6-13.1-6.3-8-14-14.9-21.7-21.6-11.2-9.8-21.7-20.5-32-31.3-3.1-3.3-6.3-6.5-9.5-9.6-.9-.9-1.9-1.9-2.7-2.9 2.1 3.2 4.2 6.5 6.3 9.7 5.6 8.5 11.1 17 16.4 25.6.4.6.8 1.2 1.1 1.9 1.7 2.7 3.3 5.4 4.9 8.2.1.1.1.2.2.3-2-2.1-4-4.1-6.1-6-5.2-4.8-11.3-8.6-17.7-11.6-5.5-2.7-11.3-4.5-17-6.9-1.2-.5-2.4-1.1-3.6-1.6 1.3 2.7 2.7 5.3 4.2 7.8-6.5-6.9-14.7-12.2-23.2-16.1.6 2.7 1.3 5.4 2.2 8-1.4-2.5-3.3-4.7-5.1-6.8-3-3.4-6.6-6.3-10.5-8.7.4 4.3 1.2 8.5 2.6 12.6.4 1.2.9 2.4 1.4 3.6-2.3-2.3-4.6-4.5-7.1-6.5-6.1-4.9-13.3-8.6-20.5-11.7 3 3.6 6.1 7.2 9.6 10.4-8.8-3.7-17.6-7.1-26.4-10.8-14-6-28-12-42.1-17.9-13.8-5.7-27.8-11-42.3-14.6-7.2-1.7-14.5-3.2-21.7-4.8-7.7-1.7-15.3-3.4-23-4.9-4-.8-8.1-1.6-12.1-2.1-3.4-.4-6.8-1-10.3-1.2-2.2-.1-4.4-.3-6.6-.4-1.2-.1-2.3-.1-3.5-.1h-5.1c-2.6 0-5.1 0-7.7.1-4.8.2-9.6.3-14.4.5-2.4.1-4.5.9-6.2 2.6-1.6 1.6-2.6 3.9-2.6 6.2 0 1.2.3 2.4.8 3.6-1.6 3.4-3.1 7.1-4.6 11.4-.6 1.3-1.1 2.5-1.6 3.8-1.3 3-2.5 6.2-3.6 9.5-.1.4-.3.8-.4 1.2-2.2 4.5-4.3 9.1-6.3 13.7-.6 1.4-1.2 2.9-1.8 4.3-.7 1.6-1.3 3.2-1.8 4.9-1.4 4.1-3 8.2-4.1 12.4-.9 3.2-1.9 6.4-2.8 9.6-1.4 4.4-2.4 9-3.6 13.5-.7 2.9-1.4 5.8-2 8.7-.7 3.5-1.6 7.1-2.2 10.6-1.3 8.3-2.7 16.5-3.8 24.8-1 8.2-2 16.5-2.9 24.7-.8 7.7-1.4 15.3-2.1 23-1.3 15.2-1.9 30.4-2.5 45.7-.2 6.7-.4 13.4-.4 20 0 3.7-.1 7.3 0 11l.3 12.4c.1 7.3.5 14.6.9 22 .5 8.4.9 16.8 1.6 25.2 1.1 15.1 2.7 30.2 4.4 45.2 1.8 16 3.7 31.9 6 47.8 2.1 15 4.9 29.8 7.6 44.7 2.6 14.5 5 29 8.1 43.3 3.2 14.6 6.5 29.2 10.5 43.7.3.9.5 1.9.8 2.8.3 1.3.6 2.7.9 4 1 4.3 2 8.7 3 13 .2.8.4 1.5.7 2.3.1.4.3.7.4 1.1.8 1.9 1.6 3.9 2.4 5.8.4 1.3.8 2.7 1.3 4 1.3 3.7 2.4 7.4 3.8 11 5.8 14.8 11.7 29.6 18.1 44.1 3.7 8.3 7.3 16.6 11.1 24.9 1.6 3.5 3.2 7 4.9 10.5.9 1.9 1.8 3.8 2.8 5.7.4.9.9 1.8 1.4 2.6l.9 1.5c0 .7.2 1.4.5 2.1.2.4.4.8.6 1.3-.9 1.6-1.7 3.2-2.6 4.7-1.7 3.1-3.2 6.2-4.7 9.4-.1.1-.1.3-.2.4-.3.2-.5.4-.8.7-.2.2-.3.4-.5.6-.1.1-.1.2-.2.3-2.2 2.9-3.9 6.1-5.7 9.3-1.9 3.3-3.9 6.7-5.9 10-.8 1.3-1.6 2.7-2.4 4.1-.2.2-.3.5-.5.7-1.4 2.2-2.9 4.4-4.3 6.6-.7 1.1-1.4 2.2-2 3.3-.9 1.5-1.9 3.1-2.4 4.7 0 .1 0 .2-.1.3-.7 1.3-1.5 2.6-2.2 3.9-.1.1-.2.3-.2.4-.2.2-.3.4-.5.7-.9 1.3-1.8 2.5-2.6 3.8-.5.7-.9 1.5-1.3 2.2v.1c-2.2 3.1-4.2 6.2-6.3 9.3-.8 1.2-1.5 2.5-2.1 3.7-.3.5-.5 1-.8 1.5-1.7 3-3.3 6.1-4.9 9.2l-2 3.8-2.5 4.6-3.8 7.1c-.7 1.3-1.4 2.6-2 3.9L459.3 915c-2.6 5.8-4.8 11.7-6.9 17.5l-.7 2-.5 1.4c-2 5.4-4.1 11-5.9 16.5l-1.7 5.1c-3.8 11.3-7.6 23-11.1 34.6-.7 2.4-1.5 4.8-2.2 7.2-1.4 4.7-2.9 9.5-4.2 14.3-1.5 5.6-3 11.2-4.5 16.9l-1.8 6.6c-1.3 4.7-2.4 9.5-3.5 14.2-.4 1.9-.9 3.7-1.3 5.6-1.3 5.6-2.4 11.4-3.5 16.9l-.2.9-1.2 6c-.9 4.4-1.8 9-2.5 13.5-1.4 9.3-2.6 19.1-3.5 29.1-1.4 14.9-2 26.9-1.9 37.9.1 8.5.3 15 .8 21 0 .7.1 1.4.2 2.1.9 4.7 1.7 9.3 2.4 14 1.4 8.3 2.7 16.6 3.9 24.9l2.1-2.1c2.4-2.5 4.9-5 7.3-7.6 3.7-3.9 7.5-8.3 12-13.7 6.9-8.2 12.8-15.9 17.9-23.5 2.3-3.4 4.6-7.2 7-11.6l.9-1.8c.5-.9.9-1.8 1.4-2.7 1.3-2.2 2.6-4.4 3.8-6.6-.2 1.1-.5 2.2-.6 3.2-.7 3.9-1.6 8.2-1.5 12.4-.2.8-.4 1.6-.5 2.4-.3 1.6-.5 3.1-.7 4.7-.2 1.7-.3 3.6.1 5.3 0 .1.1.2.1.3-.5 3.9-.9 7.8-1.2 11.7-.5 7-.6 14-.4 21-.9 7.1-1.4 13.9-1.5 20.4-.1 4.1 0 8 .1 11.9-.2 2.3-.5 4.5-.7 6.8-.2 3-.5 6-.6 8.9-.4 7-.7 14.1-.4 21.1.6 14.7 2.5 29.4 5.9 43.7.5 2.3 1.1 4.5 1.7 6.7-14.5 1.3-29 2.7-43.5 4.3-85.7 9.4-170.7 24.3-254.7 43.2 84.3-17.6 169.4-31.2 255.1-39.4 14.8-1.4 29.5-2.6 44.3-3.7.7 2.6 1.4 5.2 2 7.8 1.4 6.2 2.2 12.5 3.2 18.8 2.1 13.1 5.3 26 8.8 38.8 2 7.4 4.2 14.8 6.6 22.1-57.5 3.7-114.9 9.1-172.2 16.1-98.5 11.9-196.4 28.3-293.5 48.1 97.4-18.6 195.4-33.7 293.9-44.3 57.8-6.2 115.7-10.9 173.7-13.9.7 2 1.4 4.1 2.1 6.1.4 1.2.9 2.5 1.3 3.7.2 2.1 1.1 4.1 1.8 6 .7 1.8 1.4 3.5 2.1 5.3l1.8 4.2c.4 1.1.8 2.1 1.1 3.2.1.2.1.4.2.6.2.5.4 1 .8 1.4.2 1 .4 1.9.7 2.9 2.1 8.5 6 16.5 10.2 24.2 1.4 2.5 3.2 4.9 4.9 7.3 1.7 2.5 3.6 4.8 5.5 7.1 1.7 2.2 3.7 4.1 5.7 6 .2.6.5 1.2.8 1.7 0-.2 0-.5.1-.7v-.1c.6.6 1.3 1.1 2 1.7 3.3 4.1 6.9 8.1 11 11.5-.3-1-.6-1.9-.8-2.9-.2-2.6 0-5.1.2-7.7v.1-1.6c0-.4 0-.7.1-1.1 0-.7.1-1.3.1-2 .1-.7.1-1.4.2-2.1.1-.9.1-1.9.4-2.8 0-.1.1-.2.2-.3 0 0 0-.1.1-.1v-.5-.7c.1-2.4.3-4.7.4-7.1.2-7 .6-13.9 1.2-20.8 1.1-13 2.7-26 4-39 .3-2 .5-3.9.8-5.9 4.6-.1 9.2-.3 13.8-.4 1.7 5.3 3.7 10.6 5.8 15.8 2.1 4.9 4.1 9.7 6.3 14.5 1.4 3.1 2.9 6.1 4.5 9.2 2.8 5.7 5.8 11.5 8.9 17.1 2 3.5 4 7 6.1 10.5.2.8.6 1.5 1 2.3 17.3 28.9 36.2 56.8 56.5 83.5-6.3 1.8-12.7 3.7-19 5.6-84 25.1-166.1 56.2-245.4 93.3s-155.8 80.1-228.7 128.4c73.6-47.3 150.6-89.1 230.3-125s162-65.7 246-89.5c7.4-2.1 14.7-4.1 22.1-6.1 45.7 58.7 98.9 111.5 158.6 156.5 94.8 71.4 204.3 121.3 318.2 153.7 31.6 9 63.5 16.6 95.7 23.1 14.1 2.8 28.5 6.2 42.8 7.7 9.5 1 19.2 1.1 28.8 1.4 10.9.3 21.8.5 32.7.3 10.7-.1 21.2-1.8 31.8-3.2 27.1-3.7 54-8.1 80.8-13.5 102.8-20.9 202.7-57.6 290-116.6 81.1-54.8 148.7-126.3 204.8-206 22 4.9 44 10.2 65.9 15.8 92.1 23.6 182.7 53.2 270.7 89.2 88.1 35.9 173.7 78.1 255.9 126.2-81.6-49.2-166.6-92.5-254.4-129.7-87.2-37.3-177.7-68.3-269.7-93.1zm147.3-1243.1v.4c.1 2.7.2 5.4.2 8.1 0 3.5.1 6.9-.1 10.3 0 .6 0 1.2-.1 1.8l-.2-.7c0-3.1 0-6.3.1-9.4.1-3.5.1-7 .1-10.5zm-.1 22.2c0 .1.1.2.1.4 0 .9-.1 1.8-.1 2.7v-3.1zm-120.9 1054.9c-1.5 0-2.9 0-4.4-.1 3.2-9.1 5.8-18.3 8.1-27.6.2-.5.3-1 .4-1.5.1-.3.2-.5.3-.8.3-.7.6-1.5 1-2.2.2.5.4 1.1.5 1.6 0 .1.1.2.1.4-.2-.5-.4-1.1-.5-1.7l3 10.2c0 .3.1.6.1.8 0-.1 0-.1.1-.2 0 .1.1.2.1.3.4 1.5.9 2.9 1.3 4.4.2 1.5.4 2.9.6 4.4.4 4 .9 8.1 1.4 12.1-4.1.1-8.1 0-12.1-.1zm39.9 8.9v.2c-.7 2-1.5 4-2.2 6-.3-1.9-.6-3.8-.9-5.6l-.3-1.5c1.3 0 2.5 0 3.8.1-.2.3-.3.5-.4.8zM2142 435c.3.2.5.4.8.6.5.5 1 1 1.4 1.6.1.1.2.3.3.4-.1.6-.2 1.2-.2 1.7 0 0 0-.1-.1-.1-.1-.2-.3-.4-.4-.6-.4-.6-.9-1.1-1.4-1.6-.2-.2-.5-.4-.3-.6-.1 0-.1-1.4-.1-1.4zm-244.9-295.1c.2-.1.4-.3.6-.5-.1.2-.2.3-.3.5-.7.4-1.4.7-2.1 1.1.7-.3 1.3-.7 1.8-1.1zm-3.3 6.9c.1-.3.3-.6.4-.9.1-.1.2-.2.4-.3 0 .1-.1.2-.1.3.1-.1.2-.2.3-.4.2-.2.5-.3.7-.5-.5.7-1.1 1.4-1.6 2.2.2-.4.5-.9.7-1.3-.4.3-.6.6-.8.9zm-10.3-.4l2.1-1.8v.2l.1-.1c-.2.7-.3 1.4-.4 2 0 0-.1 0-.1.1.1-.7.3-1.3.4-2-1.3 1.3-2.7 2.7-4 4.1-.3.2-.6.4-1 .6 1-1.1 1.9-2.1 2.9-3.1zm-12 13.6c.1.3.1.5.2.8.2-.5.5-.9.8-1.4.2-.1.3-.2.5-.3-.5.7-.9 1.4-1.3 2.1-.2-.3-.2-.7-.2-1.2-.1.1-.1 0 0 0zm-39.6 19.2h.3c-.2.1-.3.2-.5.3.1-.2.1-.2.2-.3zm-122.4 110.7c.4-1 .8-1.9 1.2-2.9 0-.1.1-.2.1-.2-.5 1-.9 2.1-1.3 3.1-.1.3-.1.5-.1.6-.1-.2 0-.4.1-.6zm-8.9 17.2c.1.5.2 1.1.3 1.6 1-1.4 2.1-2.7 3.1-4 1.4-1.8 3-3.4 4.6-5v.1c-1.6 1.6-3.2 3.2-4.6 5-1 1.3-2.1 2.6-3.1 4-.1-.6-.2-1.1-.3-1.7zm-60.1 80.1c.1.4.3.8.4 1.2.5 1.6 1 3.2 1.3 4.8-.4-1.6-.8-3.2-1.3-4.8-.2-.3-.3-.7-.4-1.2-.1.1-.1.1 0 0zm-547.1-21l5.2-.5c-2.2.4-4.3.9-6.5 1.3.4-.2.8-.5 1.3-.8zm-96.6 26.5l.2.3-.3.3c0-.1-.1-.2-.1-.3.1 0 .1-.2.2-.3zm-7-11.6c.1-.5.2-1.1.3-1.6.3 1.9.6 3.8 1.1 5.7-.6-.7-1.1-1.5-1.8-2.2.2-.5.3-1.2.4-1.9zM534.7 105.7s-.1 0 0 0c.1-.1.4-.5.4-.5v1.3s-3.9 2.2-5.8 3c1.8-.7 3.6-1.9 5.4-3.8zM522.1 1431c0 .1-.1.2-.1.3-.9 4.3-1.7 8.6-2.4 13-.3 1.9-.6 3.8-.9 5.6-.7-2-1.5-4-2.2-6v-.1s0-.1-.1-.1c-1.5-4.3-3.1-8.5-4.7-12.7 3.5-.1 7-.3 10.5-.4 0-.1-.1.2-.1.4zm23.7-8.3c.2-1.4.4-2.9.5-4.3.4-1.5.9-2.9 1.3-4.4 0-.1.1-.2.1-.3 0 .1 0 .1.1.2 0-.3.1-.6.1-.8l3-10.2c-.2.5-.4 1.1-.5 1.7 0-.1.1-.2.1-.4.2-.5.3-1.1.5-1.6.3.7.6 1.5 1 2.2.1.3.2.5.3.8.1.5.2 1 .4 1.5 1.3 5.1 2.6 10.3 4.2 15.4-3.9-.1-7.5 0-11.1.2zm1376 157.1c-65.1-14.9-130.9-26.8-197.1-36.1-94.5-13.2-189.8-20.7-285.3-23.4-.6-.1-1.2-.2-1.8-.2-9.8 0-9.8 15.2 0 15.2.5 0 1 0 1.4-.1v.3c94.9 1.4 189.9 7.7 284.1 19.5 64.8 8.1 129.2 18.9 193 32.5-51.6 72.2-105.5 127.8-163.6 171.8-82.2 62.3-177.1 103.4-276.9 127.7-26.1 6.3-52.4 11.6-78.9 16-22.4 3.7-45.4 8.3-68.2 8.6-20 .2-40.3.2-60.3-1.7h-.1c-1.4-.2-2.7-.5-4.1-.7-4.5-.8-9-1.6-13.4-2.4-8.1-1.5-16.2-3.1-24.3-4.7-15.9-3.2-31.7-6.8-47.5-10.6-114.8-28-225.8-72.8-323.9-139.4-68.7-46.7-129.8-103.8-181.3-168.7 70.2-18 141.5-32 213.2-41.9 86.4-12 173.5-18.4 260.7-19.8v-.3h.4c9.8 0 9.8-15.2 0-15.2-.8 0-1.6.1-2.2.3-87.2 2.7-174.3 10.4-260.5 23.7-73.2 11.3-145.7 26.6-217.1 46.2-13.3-17.2-26-34.9-38-53.1-7.5-11.4-14.8-23-21.8-34.8-.7-1.2-1.5-2.1-2.4-2.8-.6-1-1.1-2-1.7-3-.8-1.4-1.6-2.9-2.4-4.3-.3-.5-.5-1-.8-1.5-1-1.8-2-3.6-2.9-5.4-.4-.8-.9-1.7-1.3-2.5-1.3-2.5-2.6-5.1-3.8-7.6-.1-.2-.2-.5-.4-.7-1.3-2.6-2.5-5.3-3.8-7.9-3.9-8-7.9-15.9-11.6-24 10.4-.2 20.9-.4 31.3-.4 99-.7 198 4 296.3 15.1 96.9 10.9 193.1 28.2 287.5 52.1 1.1.8 2.6 1.3 4.4 1.3 8.6 0 9.7-11.8 3.1-14.6l.1-.5c-96.7-23.5-195.1-39.8-293.9-49.7-98.9-9.9-198.4-13.4-297.6-11.3-11.4.2-22.9.5-34.3.9-1.1-2.5-2.1-5-3.1-7.6-2.5-6.4-4.7-12.8-6.5-19.4-.1-.3-.2-.7-.3-1-.3-1.1-.6-2.3-.9-3.4-.2-.6-.3-1.3-.5-1.9-.2-.8-.4-1.7-.6-2.5-.2-.7-.3-1.4-.4-2.1-.2-.8-.3-1.6-.5-2.4-.1-.7-.3-1.4-.4-2.1-.2-1.3-.5-2.7-.7-4v-.2c0-.3-.1-.6-.1-.8-.1-.1-.1-.2-.2-.3-.5-1-.9-2-1.4-3 0 0 0-.1-.1-.1-.1-.3-.2-.5-.4-.8-.5-1.2-1-2.5-1.5-3.7v-.1c-.3-.7-.5-1.4-.7-2.1-.2-.5-.4-1-.5-1.5-.1-.2-.1-.5-.2-.7 0-.1-.1-.3-.1-.4-.2-.1-.3-.2-.4-.4-.2-.2-.3-.4-.4-.7-.1-.2-.2-.4-.3-.5-.2-.3-.3-.6-.5-1-.4-.8-.7-1.6-1.1-2.4-.2-.5-.5-1-.7-1.5-.1-.2-.2-.5-.3-.7l-.3-.6-.2.2c-.3-.4-.6-.9-.9-1.3-.1-.1-.1-.2-.2-.3-1.5 2.3-3 4.6-4.3 7-.8 1.3-1.5 2.7-2.3 4-.3.4-.6.7-.8 1.1-.6 1.7-1.2 3.3-1.9 5-.1.1-.1.3-.2.4-.5 1.2-.9 2.5-1.4 3.7-.1.2-.1.3-.2.5-.3.3-.5.7-.7 1.1-.2.5-.3 1-.5 1.5-.1.3-.2.7-.3 1-.2.5-.3 1-.5 1.5-.3.7-.5 1.4-.8 2.1 0 .1-.1.1-.1.2-.2.5-.5 1-.7 1.6-.7 1.7-1.4 3.3-2.1 5-.3.6-.5 1.3-.7 1.9-.5 1.3-1.1 2.6-1.1 4.1v.2c-1.1 2.7-2.2 5.3-3.2 8.1-1.1 3.1-2 6.3-2.8 9.5-.7 2.9-1.4 5.9-1.8 8.9-.2 1.1-.3 2.3-.5 3.4-4.5.2-9.1.5-13.6.7-.6-1.6-1.3-3.1-1.9-4.7s-1.2-3.3-1.7-4.9c-1.2-3.1-2.3-6.1-3.4-9.2-.2-.5-.4-1.1-.6-1.6-2.4-6.4-4.4-12.9-6.4-19.5-.2-.5-.3-1-.4-1.6-1.1-3.9-2.1-7.9-3-12-.2-.8-.3-1.5-.5-2.3-.1-.7-.2-1.5-.4-2.2-.2-1-.4-2-.5-3.1v.2V1363.4c0-.3-.1-.5-.1-.8v-.1.1-.4c0-.3-.1-.5-.1-.8 0 .1 0 .3.1.4 0-.1 0-.3-.1-.4 0 .2.1.4.1.6-.1-.5-.2-1.1-.2-1.6-.1-1.1-.3-2.1-.4-3.2v-.7c-.7-2.4-1.4-4.9-2.1-7.4-.2-.9-.5-1.9-.7-2.8-.1-.5-.3-1-.4-1.5-.3-1.1-.5-2.3-.8-3.4-.1-.3-.1-.6-.2-.9l-.6-3.3c63.8-3.9 127.8-4.5 191.7-1.3 85.8 4.3 171.2 15.7 254.7 35.2 83.4 19.4 164.8 46.9 242.7 82.2 1.2 1 2.8 1.7 4.8 1.7 9.2 0 9.8-13.5 1.6-15.1l.1-.3c-79.4-34.7-162.2-61.3-246.7-79.6-84.5-18.4-170.7-28.6-256.9-31.7-64.3-2.3-128.7-.7-192.8 4.2-.1-.8-.3-1.5-.4-2.3 0-.3-.1-.5-.1-.8-.2-1.2-.3-2.4-.5-3.5-.1-1-.2-2.1-.3-3.1-.1-1.3-.3-2.5-.3-3.8-.2-1.2-.4-2.3-.5-3.5 0-.2-.1-.4-.1-.7-.2-1.3-.3-2.6-.4-3.8-.2-1.6-.3-3.2-.4-4.8v-.4c0-.3 0-.5-.1-.8-.1-1.3-.1-2.5-.2-3.8-.1-1.7-.1-3.5-.2-5.2-.1-4.8-.2-9.7-.2-14.5v-4.5c0-.6.4-1.7.4-1.7s-.6-3.9-.5-5.9c-.2-1-.3-2.1-.5-3.1v-3c-.3-1.2-.5-2.4-.5-3.6.1-1 .3-2.1.4-3.1-.1-3.4-.1-6.9-.2-10.3.2-1.6.5-3.2.7-4.8v-.9c-.1-3.5-.1-6.9-.1-10.4 0-3.3.1-6.6.3-10 .3-6.4.9-12.8 1.7-19.1.4-6.4.9-12.9 1.3-19.3 1-14.1 1.8-28.3 3.1-42.4.3-3.2.6-6.3 1-9.5.1-.8.2-1.7.3-2.5.1-.9.2-1.7.3-2.6.1-.8.2-1.5.3-2.3.1-1 .3-2.1.4-3.1.1-.4.1-.7.2-1.1.2-1.6.5-3.3.8-4.9 0-.3.1-.6.1-.8.3-1.6.5-3.1.8-4.7.1-.4.2-.8.2-1.3.3-1.3.5-2.6.8-4 .1-.4.2-.9.3-1.3.4-1.6.7-3.3 1.1-4.9v-.1c0-.1.1-.2.1-.4-.5.3-1 .5-1.4.8-.6.5-1.2 1-1.8 1.4-.1.1-.3.2-.4.3-.3.2-.6.5-.9.7-.3.3-.6.5-1 .8l-.1.1c-.1.1-.2.1-.2.2-.3.2-.6.5-.9.8-.2.1-.4.3-.5.4l-.3.3-.2.2s-.3.2-.4.4c-.5.5-1.1.9-1.6 1.4l-.1.1c-.6.6-1.2 1.1-1.9 1.7-.5.4-.9.8-1.4 1.3-1.1 1.1-2.2 2.1-3.3 3.2l-1 1c-.7.7-1.3 1.4-2 2.1l-.2.2-2.4 2.7-5.1 6c-1.7 2.1-3.5 4.3-5.2 6.4-.9 1.2-1.9 2.4-2.8 3.7l-.2.2c-.8 1-1.6 2-2.3 3l-2.2 2.8v-.1c-1.6 2.1-3.2 4.3-4.7 6.5-1 1.5-2 2.9-3 4.4-1.2 1.5-2.4 3-3.6 4.6-2.1 2.8-4 5.7-5.7 8.7-.9 1.1-1.7 2.2-2.5 3.3-1 1.4-2 2.9-2.8 4.5-.2.1-.3.2-.5.3-.5.5-1 1.1-1.3 1.8-1.9 2.5-3.7 4.9-5.4 7.5-.4.6-.7 1.1-1.1 1.7-.1-.1-.2-.3-.2-.4-.2-.5-.2-1.1-.3-1.6h.1c-.4-2.2-.6-4.5-.8-6.7-.2-2.7-.3-5.4-.4-8.2v-4.1c0-.7.1-1.4.1-2 .1-.6.1-1.3.2-1.9.1-1.1.2-2.2.4-3.2.1-.9.3-1.9.5-2.8-.2.3-.3.5-.5.8.4-1.5.7-2.9 1.1-4.4v-1.9s0-1.2.1-1.8c.1-.8.1-1.7.2-2.6.1-.7.2-1.5.3-2.3.4-2.8.9-5.5 1.4-8.3.5-2.6.9-5.1 1.4-7.7.3-1.4.5-2.7.8-4.1l.9-4.2s.7-2.9 1-4.3l.6-2.2c.1-.3.2-.6.2-.9.1-.6.2-1.2.4-1.8.3-1.4.6-2.8 1-4.2l.3-1.2c.2-1.2.5-2.4.7-3.7s.5-2.7.8-4c.6-2.7 1.3-5.4 2-8l.3-.9c.2-1.1.5-2.2.8-3.2.2-.7.4-1.4.5-2 .1-.5.3-1.1.4-1.6.4-1.3.8-2.7 1.2-4l.6-1.8c1.9-9 4.1-18.5 6.9-29 .6-2.3 1.2-4.6 1.8-6.8 1.2-4.6 2.4-9.4 3.8-14.1l6.7-22.6c3.3-11.1 7.1-22.3 10.7-33l2.7-8.1c2.1-6.2 4.4-12.3 6.7-18.3 1.1-2.8 2.1-5.6 3.2-8.4 1.9-4.3 3.9-8.6 5.8-12.9l2.9-6.4 1.2-2.6 2.4-5.3c.6-1.4 1.4-2.7 2.2-4 .4-.6.8-1.3 1.1-2 1.3-2.3 2.5-4.6 3.8-6.8 3.1-5.7 6.4-11.6 9.4-17.4 1.5-2.8 3.1-5.6 4.7-8.3 1-1.8 2.1-3.6 3.1-5.4 3.8-6.8 7.7-14.4 12.1-23.1 1.7-3.5 3.6-6.9 5.5-10.3.8-1.4 1.6-2.9 2.4-4.4 2.8-5.1 5.4-9.8 8-14.5 2.4-4.3 5.1-8.5 7.7-12.5l.9-1.4c1.6-2.5 3.2-5.1 4.9-8-.2-.6-.4-1.3-.5-2-.1-.4-.3-.8-.4-1.2-.2.2-.5.3-.7.5-.7-1.3-1.5-2.6-2.2-4 0-.1-.1-.2-.1-.2l-.6-1.2-2.1-4.2c-.1-.2-.2-.3-.2-.5-1.5-3.2-3-6.5-4.5-9.7-.6-.8-1.3-1.7-1.7-2.6-.6-1.2-1.1-2.4-1.7-3.5-.8-1.6-1.5-3.2-2.3-4.8-1.6-3.4-3.1-6.8-4.6-10.3l-.3-.6c-.5-.7-.9-1.4-1.3-2.2-.2-.5-.4-1-.7-1.5-.4-.9-.8-1.8-1.2-2.6-.6-1.5-1.3-3-1.9-4.5-1.7-4.1-3.5-8.2-5-12.4-1.4-3.7-2.5-7.5-3.5-11.3 0-.1 0-.2-.1-.3-.8-1-1.4-2.1-1.8-3.3-2.2-6-3.8-12.2-5.5-18.4-1.5-5.6-2.9-11.2-4.2-16.8-1.8-7.5-3.5-15-5.1-22.5-.5-1.4-.9-2.8-1.4-4.2-1.9-6.4-3-13-4-19.5-.1-.4-.1-.8-.2-1.2-.5-2.4-1-4.7-1.5-7.1l-.3-1.5c-.4-1-.8-2.1-1-3.2-.1-.7-.3-1.4-.4-2.2-.2-1.3-.4-2.5-.6-3.8-.3-1.4-.6-2.7-.9-4.1-1.1-5.2-2.1-10.4-3-15.6-.2-1.3-.4-2.5-.6-3.8-.1-.4-.2-.7-.2-1.1-1.3-6.1-2.5-12.3-3.1-18.6-.1-1.3-.3-2.5-.4-3.8-1-4.9-1.9-9.9-2.7-14.9-2.2-14-4.4-28.1-6.2-42.2-1.8-13.9-3.4-27.7-5-41.6-.7-6.7-1.5-13.5-2-20.2-.6-7.7-1.1-15.4-1.6-23.2-.8-13.8-1.2-27.6-1.8-41.4-.6-13.1-1.1-26.2-1.1-39.3.1-14.5.4-29.1 1-43.6.3-6.2.6-12.4 1.3-18.6.4-3.6.7-7.2 1.2-10.8.1-.8.1-1.6.2-2.3.4-4.5.6-9 1.3-13.4.4-2.8.9-5.6 1.3-8.4.1-.5.1-1.1.2-1.6.5-4.4 1.3-8.8 1.9-13.2.4-3 1-5.9 1.6-8.8.7-3.2 1.3-6.4 2.2-9.6.9-3.3 1.8-6.6 2.9-9.9.2-.6.4-1.1.5-1.7.3-1.1.6-2.3.9-3.4.9-3.3 1.9-6.6 2.9-9.9l1.8-5.7c.3-.8.5-1.6.8-2.4l.6-1.8c.1-.5.2-1 .4-1.4.4-1.2.7-2.5 1.1-3.7.5-1.8 1.2-3.5 1.8-5.2.5-1.3.9-2.6 1.4-3.9.1-.4.2-.7.3-1 .6-2.3 1.3-4.6 2.2-6.8.3-1.1.8-2.1 1.5-2.9.8-4.5 1.6-9 2.5-13.5.2-.1.4-.2.5-.3.6-.6.9-1.3 1.1-2.1l.1-.4.3-1c.6.3 1.3.6 2.1.8l.6.2c.7.2 1.4.4 2.2.4.5.2 1.1.4 1.6.6l.2.1c.4.2.7.4 1.1.6.9-.4 2-.7 3-.9 2.5 1.4 5 2.8 7.4 4.2s4.9 2.6 7.2 4.1c3.1 1.9 6.2 3.9 9.2 5.8 5.9 7.7 13.3 14.3 21.1 20 3.9 2.9 8 5.1 12.3 7.1 4.2 2 8.5 3.8 12.9 5.4 1.7 1.5 3.4 3 5.2 4.5.6.6 1.3 1.1 1.9 1.7-1.4-.8-2.7-1.5-4.1-2.3 1.6 2.3 3.2 4.7 4.8 7-5.5-2.5-11.1-4.8-16.8-6.7-6.4-2.2-13-3.9-19.3-6.2 9.3 9.6 20.1 18.1 31.5 25.1 5.3 3.2 11 5.7 16.7 8 2.6 1.1 5.3 2.1 8 3 3.8 3.4 8 6.5 12.3 9.3l.4.4c2.9 2.7 6.1 5.1 9.3 7.5.2.2.3.4.5.6 2.4 2.8 4.7 5.7 7.1 8.5-2.3-1.7-4.7-3.4-7.1-5.1-5.8-4.1-11.6-8-17.7-11.7-3.5-2.1-7-4.3-10.7-6.2 3.7 3.2 7.1 6.6 10.7 10 3.8 3.7 7.7 7.3 11.7 10.9 6.9 6.3 14.1 12.4 21.5 18.1.9 6.4 4.7 12.1 8.3 17.3 2.7 3.9 5.7 7.4 9.3 10.5 5.1 4.4 10.8 7.8 16.9 10.6 2.4 3.1 4.7 6.2 7.1 9.3 3.8 2 7.1 4.5 10.1 7.4.3.6.6 1.3.9 1.9-3.1-3.2-6.6-5.9-10.6-8-.4-.2-.9-.5-1.3-.7-3.1-1.4-6.3-2.7-9.6-3.5-5.3-1.3-11-1.4-16.1-3.5-.3-.1-.6-.3-.9-.4 1.6 9.1 8.5 15.8 14.9 21.8 3.2 3 6.8 5.4 10.6 7.6.3.1.5.3.8.4.6 1.2 1.3 2.4 2 3.6 2.4 4.1 5.4 7.9 8.6 11.3 1.8 1.9 3.9 3.4 5.9 5 2.2 1.6 4.5 3 6.9 4.3 2.8 1.5 5.7 2.8 8.7 3.8 1.2 6 2.7 11.9 4.7 17.6 2.3 6.6 5 13.1 8.2 19.3 2 3.8 4.1 7.6 6.5 11.2 2 2.9 4.2 5.7 6.4 8.5 1.4 1.8 2.9 3.5 4.3 5.2l13.3 81.4c-4.1-2.8-8.4-5.3-13-7.3 2.7 7.2 5 14.5 8 21.5 2.3 5.5 5 10.9 8.1 15.9.8 1.3 1.6 2.5 2.5 3.7l.2 1.3c-.9-.5-1.8-1.1-2.6-1.7-1.2-1-2.2-2-3.2-3.2-.5-.7-.9-1.5-1.3-2.2-.1 1.7-.1 3.3.1 5.1.3 1.8 1.1 3.6 1.9 5.3.9 1.8 2.1 3.4 3.3 4.9.3.3.6.6.8 1-3.7-1.1-7.4-2-11.2-2.7 1 1.8 2.1 3.6 3.3 5.4 2.2 0 4.3.9 5.8 2.5 1.6 1.6 2.5 3.8 2.5 6v.3c.8.1 1.7.3 2.5.6.5.2 1.1.5 1.6.7l.2.9c-1.2-.3-2.4-.6-3.6-.7-2.7-.4-5.4-.5-8-.5-4.1 0-8.2.4-12.4.9 5.5 3.9 11.3 7.2 17.8 9.2 1.1.3 2.2.6 3.4.8l-.9 2.1c-3.4.8-6.7 1.9-9.8 3.5-2.5 1.2-4.8 2.8-7.1 4.4-2.9 2.1-6.1 4.4-8.3 7.3 2-.7 4.2-.9 6.3-1.3 1.5-.3 3-.6 4.5-1 1.3-.3 2.7-.7 4-1.2-.1.1-.2.2-.4.3-1.5 1.1-2.9 2.2-4.4 3.3-2 1.5-3.9 3.1-5.9 4.7.6-.1 1.2-.3 1.8-.4-2.4 1.8-4.6 3.7-6.8 5.7-.7.3-1.3.6-2 .9l-4.2 3.9h.1c.4 0 .8.1 1.2.2.2 0 .4.1.6.1.3 0 .5.1.8.2.2 0 .4.1.6.1.3.1.5.2.8.2.2.1.4.1.5.2.4.1.8.3 1.2.5 0 0 .1 0 .1.1.9-.3 1.9-.7 2.8-1 3.2-1.2 6.4-2.4 9.5-3.6.8-.3 1.5-.6 2.3-.9L756 601l-.3.6c-.3.7-.7 1.3-1 2 .2-.2.4-.5.6-.7l-.7 1.8c-.1.1-.1.3-.2.4-1.2 2.7-2.3 5.4-3.3 8.1.2-.2.3-.4.5-.5l-.6 1.5c.3-.7.7-1.4 1.2-2.1 1.5-1.7 3.1-3.5 4.6-5.2-.2.5-.5 1.1-.7 1.6.7-1 1.4-2 2.1-3.1-.1.4-.1.8-.2 1.2.1-.1.2-.2.3-.4-.2 1.1-.3 2.2-.5 3.3.8-1.1 1.6-2.1 2.4-3.2 5.2-4.6 10.1-9.4 14.9-14.4 2.5-2.6 4.8-5.5 7.1-8.3.2-.2.4-.5.6-.7l.1.8c-.2.2-.3.4-.5.6-2.3 2.8-4.6 5.7-7.1 8.4-4.8 5.1-9.8 9.9-15 14.5-.9 1.1-1.7 2.3-2.6 3.4 0-.3.1-.7.1-1l-.2.2c.1-1.1.2-2.1.4-3.2-.6.9-1.3 1.8-1.9 2.7.2-.6.5-1.1.7-1.6-2.1 2.3-4.2 4.7-6.2 7.1.2-.5.3-.9.5-1.4-.2.2-.3.4-.5.6 1.1-3.2 2.4-6.3 3.8-9.5.1-.2.2-.4.3-.7-1.6 1.9-3.2 3.7-4.7 5.6-2.6 3.2-5.3 6.4-7.9 9.6l-9.6 12.9c-3.6 5-7.3 10-10.9 15-1.9 2.7-3.9 5.3-5.8 8-.9 1.2-1.7 2.3-2.6 3.4 1.2-.6 2.4-1.3 3.7-1.9 1.2-1.2 2.3-2.5 3.5-3.6 5.1-5.1 10.1-10.2 15.3-15.1 3.5-3.4 7.1-6.8 10.7-10.1s7.2-6.7 10.9-9.8c2.5-2.2 5.1-4.4 7.6-6.5 1.4-1.2 2.7-2.4 4.1-3.5 3.9-3.1 7.8-6.1 11.7-9.2 2.9-2 5.8-4.1 8.7-6.1 2.4-1.7 4.8-3.5 7.3-5.1 3.8-2.3 7.7-4.6 11.5-7 3.3-2 6.7-4 10-5.9-1.5.5-2.9.9-4.4 1.5l-.6.3c-.1 0-.1.1-.2.1.1-.4.3-.7.4-1h-.1l-.6.3c-.1 0-.1.1-.2.1.6-2.2 3.1-4.3 4.9-5.5.8-.5 1.5-.9 2.3-1.2-.3-.4-.3-1.1.3-1.5h.1c.1-.1.2-.3.3-.4.2-.3.4-.6.6-.8 0 0 0-.1.1-.1.1-.2.2-.3.4-.5l.3-.6v1.5c0 .1-.1.1-.1.2 0 0 0 .1-.1.1-.2.3-.4.6-.6.8-.1.1-.2.3-.3.4h-.1c-.5.4-.6 1-.3 1.5-.8.3-1.6.7-2.4 1.2-1.6 1-3.5 2.7-4.5 4.5 1.4-.5 2.8-1 4.2-1.4.5-.2.9-.3 1.4-.5 1-.6 2-1.1 3-1.6.1 0 .1-.1.2-.1.3-.1.6-.3.8-.4.1 0 .1-.1.2-.1.2-.1.3-.2.5-.3.5-.2.9-.5 1.4-.7 1-.6 1.9-1.1 2.9-1.6V566.9c0-.9.1-1.8.1-2.7v-.1c0-.3 0-.6.1-.9v-.1c0-.3 0-.6.1-.8-.1-1.7-.2-3.4-.5-5.1-.4-2.2-.9-4.3-1.8-6.4-1.8-4.3-4.3-7.9-7-11.6-.2-8.2-1.1-16.3-2.5-24.4-1.1-6.1-2.5-12.1-4.7-17.9-1.6-4.3-3.5-8.6-5.5-12.8-.3-1.3-.7-2.5-1-3.8-1.6-5.7-3.5-11.3-5.6-16.9-2.1-5.2-4.3-10.4-6.7-15.6-3.3-7.3-6.9-14.4-10.7-21.4-3.5-6.6-7.2-13.1-11-19.6-2.6-5.9-5.5-11.7-8.8-17.2-3.7-6.1-8.1-11.8-12.7-17.1l-.1-.1c-.7-1-1.3-2-2-3l.1.9c-3.7-4.2-7.5-8.3-11.5-12.2l-1.8-1.8c-2.5-2.5-5-4.9-7.4-7.4 1.1.3 2.2.7 3.4 1 .2.1.4.1.6.1 1.1 1.8 2.2 3.6 3.4 5.4l1.8 1.8c2.4 2.4 4.8 4.8 7.1 7.3l1 1.8c0-.2 0-.5-.1-.7 1.9 2 3.7 4.1 5.5 6.2 4.7 5.4 9.1 11.1 12.8 17.3 3.7 6.1 6.9 12.6 9.6 19.2.4.7.8 1.4 1.2 2 3.1 5.2 6 10.5 8.9 15.8C789 437.5 795 450 800 462.8c2.2 5.6 4 11.2 5.7 17 .4 1.3.7 2.5 1 3.8 2 4.2 3.9 8.5 5.6 12.8 2.2 5.8 3.6 11.9 4.7 18.1 1.4 8.2 2.3 16.4 2.5 24.6 2.7 3.7 5.3 7.4 7.1 11.7.9 2 1.4 4.2 1.8 6.4.1-4.5-.7-9.1-1.4-13.5-.5-3.5-1-7-1.6-10.4-1.1-7.4-2.2-14.8-3.5-22.2-2.8-14.8-6.3-29.5-10.7-44-4.5-14.5-9.7-28.8-15.6-42.8-3.1-7.4-6.3-14.8-9.9-22-3.4-7-6.9-14.1-10.6-21-7.1-13-14.4-26-22.3-38.5-8.1-12.7-16.3-25.2-25.3-37.3-9.6-12.9-19.4-25.8-29.3-38.5-9.4-12.1-18.8-24.2-28.6-35.9-4.9-6-9.9-11.9-14.9-17.8s-10.2-11.6-15.3-17.4c-5-5.6-10.2-10.9-15.5-16.2-2.4-2.3-4.6-4.7-7.1-7-3.3-3-6.5-5.9-9.8-8.9-1-1-2.2-1.8-3.3-2.7-2-1.7-4-3.3-6.1-5-3.4-2.8-6.9-5.3-10.4-7.9-5.3-4-10.9-7.7-16.5-11.3-6.6-4.3-13.2-8.7-20-12.8-3.6-2.2-7.2-4.5-10.8-6.7-2.9-1.8-5.9-3.4-8.9-5 .9.1 1.7.1 2.6.2 2.8.4 5.5.8 8.2 1.3 4.1.8 8.1 1.7 12.1 2.6 6.9 1.6 13.8 3.3 20.7 5 7.6 1.8 15.3 3.6 22.9 5.6 1.5.4 3 .9 4.5 1.4 1.7.5 3.4 1 5.1 1.6 3.6 1.3 7.2 2.4 10.7 3.8 3.9 1.5 7.7 3 11.5 4.6 12.6 5.4 25.2 10.9 37.9 16.4 13.2 5.7 26.5 11.2 39.9 16.7 6.2 2.8 12.5 5.4 18.6 8.4 4.2 2.1 8.4 4.2 12.7 6.3 3.4 1.7 6.6 3.7 9.9 5.5 13 7.2 25.4 15.3 37.4 24 2 1.5 4 2.9 6.1 4.4 5.6 4.4 11.2 8.7 16.7 13.2 2.6 2.2 5.2 4.4 7.7 6.6 2.6 2.3 5.2 4.5 7.7 6.9 11.5 11 22.8 22.2 34.2 33.2 21.5 20.7 44.6 39.8 64.8 61.9 10.3 11.3 20.3 23 31.2 33.8 5.1 5 10.7 9.4 16 14.2 1.1 1 2.1 2 3.2 3.1 1 1 1.9 2 2.8 3 .3.5.7 1 1 1.4v-.5c.8.7 1.8 1.5 2.8 2.2.9.3 1.7.8 2.5 1.4.3.3.7.5.9.8.8.8 1.7 1.6 2.5 2.4l2.2 2.2c.8.7 1.7 1.4 2.5 2.1.6.5 1.3 1 1.9 1.6.7-.4 1.5-.7 2.2-1.1 3.1-1.2 6.2-2.5 9.2-3.8l8.4-2.4c9.4-2.8 18.7-6 27.8-9.5l3.3-1.2 5.4-1.5c3.2-.9 6.4-1.6 9.6-2.3 7.8-1.9 15.7-3.7 23.6-5.4 14.6-3.2 29.3-6.1 44.1-8.9 6.2-1.2 12.3-2.2 18.5-3.2-.8 0-1.6.1-2.4.1-7.2.1-14.5.1-21.7 0-7.8 1.7-15.7 2.9-23.7 3.8 2.9-3.1 5.9-6.2 9-9.1h.1c-3.1 3-6.1 6-9 9.1 8-.9 15.9-2.2 23.7-3.8 7.2.1 14.5.2 21.7 0 .9 0 1.9-.1 2.8-.1-.1 0-.3 0-.4.1h.4c4.9-.1 9.7-.3 14.6-.5 15.5-.4 31-1.6 46.4-3.6 1-.1 2-.3 3-.4 4.1-.5 8.2-1.1 12.2-1.8 4.3-.3 8.6-.7 12.9-1.1 16.6-1.6 33.1-4.3 49.5-7 .2 0 .3-.1.5-.1h-.5c5.4-.9 10.7-1.7 16.1-2.6 8.9-1.1 17.9-2.1 26.8-2.8 7.4.7 14.8 1.4 22.2 2 7 .6 13.9 1.1 20.9 1.6 4.1.3 8.1.6 12.2.9h-1.2c.4 0 .8.1 1.2.1 2.2.2 4.3.4 6.5.6 12 1.2 24 2.1 36 3.4 6.1.9 12.2 2.1 18.2 3.6 7.1 1.8 14.1 3.9 21.1 5.7 11.5 2.9 23.3 5.2 35 7.2.2 0 .3.1.5.1 4 1.2 8 2.4 11.9 3.6 14.6 4.4 29 9.2 43.4 14.1 13.9 4.8 27.8 9.8 41.5 15.3 8.4 3.4 16.9 6.8 25.3 10.2 1.4-1.7 2.7-3.3 4.1-4.9 1.9-2.2 3.8-4.3 5.8-6.3l.2-.2c.6-.7 1.3-1.3 1.9-2 .1-.1.2-.2.2-.3 5.8-8.2 11.7-16.3 17.6-24.5 2.2-3.1 4.6-6 6.9-9 2.2-2.8 4.4-5.7 6.5-8.5 4.3-5.3 8.6-10.8 13-16 5-5.8 9.9-11.6 15-17.3 10.4-11.6 20.8-23.3 31.6-34.6 10.9-11.5 22-22.8 33.3-33.8 11.2-11 22.6-21.7 34.2-32.3 6.5-5.9 13.1-11.7 19.6-17.6 5.8-5.2 11.9-10 17.8-15 2.7-2.1 5.5-4.2 8.2-6.3 2.3-1.8 4.6-3.6 7-5.3 6.3-4.4 12.6-8.8 19.1-12.9 12.9-8.3 26-16.4 39.2-24.3 6.7-4 13.5-7.9 20.3-11.8 7-3.9 14-7.8 21.1-11.6s14.3-7.5 21.5-11.2c2.7-1.4 5.4-2.7 8.2-4 3.3-1.6 6.6-3.3 10-4.8 8.2-3.7 16.3-7.3 24.6-10.8 13.9-5.6 27.8-11.3 42-16.2 6.7-2.3 13.6-4.4 20.4-6.6 1.4-.5 2.8-.9 4.2-1.4l-2.2 2.2c-2.1 2.1-4.1 4.2-6.3 6.3-5.7 5.4-11.4 10.8-17 16.2-5.7 5.5-11.4 11-16.9 16.7-2.8 2.8-5.6 5.6-8.3 8.4-2.7 2.7-5.3 5.7-7.9 8.5-2.5 2.7-5 5.3-7.4 8-2.6 3-5.3 6-7.9 9-2.5 2.8-5 5.7-7.5 8.5-2.5 2.9-4.9 5.9-7.3 8.8-9.9 11.9-19.5 24-29.1 36.1-9.8 12.6-19.7 25.2-29.3 37.9-9.3 12.3-18 25.1-26.8 37.8-4.2 6.2-8.3 12.4-12.5 18.6-3.7 5.6-7.4 11.1-11 16.8-4.1 6.5-8.3 13-12.3 19.6-2.3 3.9-4.6 7.7-7 11.6-1.9 3.2-3.6 6.5-5.4 9.7-3.9 7-7.6 14.1-11.3 21.2-.9 1.8-1.8 3.5-2.7 5.3-1.7 3-3.1 6.1-4.5 9.2-.2.3-.3.7-.5 1-.7 1.4-1.3 2.8-2 4.2-1.6 3.4-3 6.8-4.6 10.2-1.6 3.5-3.2 7-4.7 10.6-1.8 4.4-3.7 8.7-5.5 13.1-1.5 3.5-2.7 7-4.1 10.5-1.6 4.1-3.1 8.3-4.6 12.5-1.6 4.5-3.3 9.1-4.7 13.7-1.4 4.7-2.7 9.5-3.8 14.3-.1.4-.3.7-.4 1.1-.4 1.2-.7 2.3-1 3.5-.3 1.1-.6 2.2-.8 3.3-.4 1.9-.7 3.8-.5 5.7-.1.6-.3 1.2-.5 1.7-1.1 3.3.3 7.2 2.9 9.5.3 1.1.7 2.1 1.2 3.2.9 1.4 2 2.6 3.5 3.5l1.2.6c0 .1 0 .2.1.3.8 2 1.7 3.5 3.1 5.2 1.1 1.2 2.4 2.3 3.7 3.3 1 .8 1.9 1.5 2.9 2.2v.1c2.3 3.3 4.9 6.4 7.4 9.6 2.2 2.9 4.4 5.9 6.8 8.7 10.3 12.7 20.7 25.2 31.1 37.8 3.3 4.1 6.6 8.2 9.9 12.4 1.8 2.4 3.7 4.8 5.5 7.3.3.7.6 1.3 1 2 1.1 1.6 2.4 3.2 3.6 4.7.5.6 1 1.3 1.5 2 0 0 .1 0 .1-.1.3.5.7.9 1 1.4 1.9 2.8 3.9 5.5 5.8 8.4 2.5 3.8 4.9 7.6 7.3 11.3l-3.9-13.5c-1-3.3-2-6.7-3.1-10-.3-.8-.5-1.7-.7-2.5-3.4-5.8-6.5-11.8-9.7-17.7-.2-.4-.4-.8-.6-1.1-.2-.7-.4-1.4-.5-2.2-.2-.8-.3-1.6-.3-2.4-.5-.8-1.2-1.6-1.5-2.4-.4-.9-.8-1.9-1.2-2.8 0-.3-.1-.6-.1-1-3.6-5.4-7.2-10.8-10.7-16.3-2.1-3.8-4.1-7.7-6.2-11.5l-3.3-3.9c2.1-.5 4.3-1 6.4-1.5l.2-.2c1.6-1.6 3.8-2.5 6.1-2.5 1 0 2 .2 3 .5.3-.1.6-.1.9-.2 1.1-.3 2.2-.5 3.2-.8-1.3-1-2.6-1.9-4-2.8-3.9-2.5-8.2-4.4-12.7-5.7 7.1-.2 14.2-2.4 20.5-5.6-4.9-3-9.7-6.4-14.9-9 .1 0 .2.1.3.1.5-.2 1-.3 1.5-.4.8-.2 1.6-.4 2.4-.5.2-.1.4-.2.6-.2-7-4.1-14.2-7.8-21.6-11.1-2.1-.9-4.1-1.8-6.2-2.7-.4-.8-.7-1.6-1.1-2.4 2.4-.2 4.8-.4 7.1-.7 5.1-.7 10.2-1.7 15.2-3-1-.3-1.9-.6-2.9-.8 2.9-.1 5.7-.4 8.6-.9 8.8-1.6 17.5-5.1 25.5-9.1-5.9-.7-11.8-1.2-17.7-1.2-3.1 0-6.1.1-9.2.4-8.6.8-17 3.3-25.1 6.5-.2 0-.3-.1-.5-.1.1-.1.3-.2.5-.3 4.2-2.8 8.4-6 11.7-9.9 1.9-2.2 3.6-4.6 5.2-7 7.5-5.3 13.9-12.1 19.6-19.3-3.3.4-6.5 1.1-9.7 1.8v-.1c-6.7 1.2-13.1 3.6-18.9 7.1-1 .5-1.9 1.1-2.9 1.7 1.5-2.7 3-5.3 4.8-7.9.7-.8 1.4-1.5 2.2-2.2-1.2-.3-2.3-.4-3.4-.4 1.9-3.2 3.8-6.3 5.8-9.4-1.1.1-2.2.3-3.3.6 3.1-5.5 5.5-11.4 7.8-17.3-.3.8-.6 1.5-1 2.3 4.8-11.5 8.4-23.4 12.7-35.1.5-1.1.9-2.2 1.4-3.3 0 .1-.1.2-.1.3.4-.8.8-1.7 1.2-2.5v-.3s-5.5 2.6-8.2 4c.1-.1.2-.2.2-.3 1.4-1.9 2.8-3.9 4.2-5.8 12.7-9.3 24.3-20.4 33.3-33.3 4.3-6.2 7.7-13.1 10.8-20 2.9-6.5 5.4-13.2 7.7-20 .3-1 .7-2 1-2.9.4-.9.9-1.7 1.4-2.5-3.2 1.1-6.1 3.1-8.8 5.2-2.2 1.2-4.2 2.7-6.1 4.3.1-.2.2-.4.3-.7 2.1-2 4.2-3.9 6.3-5.9 3.4-3.1 6.9-6.1 10.3-9.2 7-6.4 13.8-13 20.5-19.7 4.9-4.8 9.6-9.7 14.4-14.6 2.7-2.7 5.3-5.5 7.9-8.3 1.2-1.3 2.4-2.5 3.6-3.8 1.9-2 3.7-4 5.8-5.8-3.2 1.7-6.2 4.1-9.1 6.2-1.4 1.1-2.9 2.1-4.3 3.2-3.5 2.7-7 5.4-10.5 8.2-1.6 1.3-3.2 2.7-4.9 4 .2-.2.3-.4.5-.6 5.2-6.2 10.1-12.7 15.6-18.6-5.6 2.7-10.8 6-16 9.4 1.6-2 3.2-4.1 4.8-6.1 4.4-5.7 8.4-11.6 12.7-17.2v.1l.7-.8c-3 1.3-5.9 2.7-8.7 4.2 1-1.1 2-2.2 2.9-3.3 4.2-4.9 8.4-9.8 12.6-14.8.8-.7 1.6-1.4 2.3-2 1.7-1.5 3.5-2.8 5.2-4.3 3.8-3.2 7.6-6.6 11.2-10 1.8-1.7 3.5-3.4 5.3-5 3.2-2.9 6.3-5.8 9.4-8.8 3.7-3.6 7.4-7.2 11-11 3.7-3.9 7.3-7.8 11.1-11.7-6.6 3.1-12.9 7-18.9 11.1l-4.8 3.3c.4-.8.8-1.6 1.2-2.3 2.7-2.9 5.4-5.9 8.1-8.9-.7 1.6-1.4 3.2-1.9 4.8l2.1-5.1c.8-.9 1.5-1.7 2.3-2.6.3-.3.6-.7.9-1 .1.5.3 1 .8 1.3.8.5 1.8.1 2.3-.6 1.9-2.8 4-5.5 6-8.3 1.8-2.4 3.5-4.7 5.3-7.1 1.3-1.7 2.7-3.4 4-5.2 1-1.2 1.9-2.5 2.9-3.7 3.4-4 6.8-8.1 10.2-12.1.9-1.1 1.9-2.3 2.8-3.4.8-.9 1.7-1.8 2.5-2.8 4-4.4 8-8.7 12-13.1 1.8-2 3.6-3.9 5.4-5.9 1.7-1.9 3.5-3.8 5.3-5.6.5.1 1 0 1.4-.3 4.4-3.2 8.5-6.9 12.6-10.5 2.5-2.1 4.9-4.3 7.4-6.5.1.3.2.5.3.8 1.2 3.1 2.5 6.2 4 9.2 2.2 4.6 4.3 9.3 6.4 14 .1.4.1.8.2 1.1.2 1.4.4 2.8.7 4.2l1 4.6c.6 2.6 1.2 5.2 1.9 7.8 1.3 5 2.6 10 4.1 14.9.7 2.4 1.4 4.8 2.2 7.1 1 3.6 2 7.1 2.9 10.7 1.7 6.6 3.5 13.1 4.8 19.8 1.5 7.6 3 15.2 3.9 22.8.9 7.3 1.7 14.5 2.5 21.8.9 9.1 1.5 18.2 1.9 27.3.3.2.6.5.9.8l.1.1c.3 4 .6 7.9.9 11.9.2 2.4.4 4.7.6 7.1.1.1.2.1.2.2-.1 2.3-.2 4.7-.3 7v2.6c.5 3.4.8 6.9 1.3 10.3.4 3.1.9 6.2 1.1 9.3.5 6.9 1.1 13.8 1.4 20.7.3 7.5.6 15 .7 22.5.1 6.6.2 13.1.2 19.7.1 14 .2 28.1.4 42.1 0 .9-.1 1.8-.4 2.7v1.8c0 1.1-.1 2.2-.1 3.2l-.6.3c-.1 2.1-.3 4.1-.5 6.2-.2 3.8-.3 7.7-.5 11.5l-1.2 10.5-.3.3h.3c-.4 3.2-.9 6.5-1.3 9.7-.9 6.7-1.9 13.4-3.1 20.1-1.3 7.3-2.7 14.5-4.2 21.8-1.2 5.8-2.5 11.5-3.8 17.3.9-3 1.9-6 2.8-9 .2-.5.3-1 .5-1.6 3.8-12.5 7.2-25.1 10.5-37.7.5-1.8.9-3.6 1.4-5.4l.3-1.2c.6-2.3 1-4.5 1.3-6.9 0-1.2-.2-2.4-.7-3.4l.2-1.9c.6 1.2 1 2.6 1 4-.3 2.4-.7 4.6-1.3 6.9l-.3 1.2c-.5 1.8-.9 3.6-1.4 5.5-3.2 12.7-6.7 25.4-10.5 37.9-.2.5-.3 1-.5 1.6-.9 3-1.9 6-2.8 9-1 3.1-1.9 6.2-2.9 9.3-1.4 6.7-3.1 13.3-4.8 19.9-1.3 5-2.7 10-4.4 14.9 0 .1-.1.2-.1.4-.6 1.9-1.2 3.8-1.8 5.8-1.4 4.3-2.7 8.6-4.1 12.9-2.1 6.6-4 13.3-6 20-.6 1.8-1.2 3.7-1.8 5.5-1.6 4.7-3.3 9.4-5 14.1-2.3 6.2-4.5 12.4-6.7 18.7-2.1 6.1-4.1 12.3-6.1 18.5-2 6.3-3.8 12.7-5.4 19.1l-.3 1.5c-.1.2-.1.4-.2.6s-.2.4-.2.6c0 .1-.1.2-.1.3-2.7 7.2-5.5 14.4-8.4 21.5-2.6 6.4-5.2 12.8-7.6 19.2-1.3 3.5-2.5 6.9-3.6 10.5-.9 2.8-1.6 5.6-1.6 8.5 0 .4.1.8.1 1.3 0 .1-.1.2-.1.3-.7 1.8-1.5 3.6-2.2 5.3-1.6 3.9-3 7.9-4.4 11.9l-.3.9c0 .1-.1.2-.1.2-.3-.2-.6-.3-.9-.4s-.5-.1-.8-.1-.5 0-.8.1c-.8.2-1.3.7-1.8 1.3-1.3 1.8-2.2 3.9-3.2 5.9-.6 1.2-1.2 2.4-1.7 3.7-.3.6-.5 1.2-.8 1.7.1-.3.2-.6.4-.9-.2.6-.5 1.1-.7 1.6-.6 1.3-1.2 2.7-1.8 4-1.2 2.8-2.4 5.6-3.4 8.4-.3.7-.7 1.5-1 2.2-.3.6-.5 1.3-.8 1.9-.4 1-.9 2.2-1.1 3.3l-1.5 3.6v.1c-.1-.1-.2-.2-.4-.3-.3 1.6-.6 3.1-.9 4.7 1.2 1.9 2.3 3.7 3.4 5.4l.1.1c.1.2.2.4.2.6.5 1 1 2 1.6 3 .1.2.2.3.3.5.1.1.1.2.2.4l.3.6c.5.5.9 1 1.4 1.5.1.1.2.3.3.4 1.1.8 1.8 2 2.1 3.4.7 1.1 1.4 2.3 2 3.4 2.6 4.6 5.3 9.4 8.1 14.5.8 1.5 1.6 2.9 2.4 4.4 1.9 3.4 3.8 6.8 5.5 10.3 4.4 8.8 8.3 16.4 12.1 23.2 1 1.8 2.1 3.6 3.1 5.4 1.6 2.7 3.2 5.5 4.7 8.4 3.1 5.9 6.3 11.8 9.5 17.5 1.3 2.3 2.5 4.6 3.8 6.9.7 1.3 1.5 2.6 2.3 3.9.3.5.5.9.7 1.4l2.7 6 1.2 2.6 2.9 6.5c1.9 4.3 3.9 8.6 5.8 12.9 1 2.8 2.1 5.6 3.2 8.4 2.3 6 4.7 12.2 6.8 18.4l2.7 8.1c3.7 10.8 7.5 22 10.8 33.2l6.7 22.7c1.4 4.7 2.6 9.5 3.8 14.1l1.8 6.9c2.7 10.3 5 19.8 6.8 28.6.1.4.3 1 .4 1.4.6 1.8 1.2 3.6 1.7 5.4.1.2.1.4.2.7.3 1.1.6 2.1.8 3.2.2.7.4 1.5.5 2.2.4 1.3.6 2.4 1.1 4 .4 1.3.7 2.5 1 3.8.4 1.8.8 3.7 1.1 5.5.2 1.2.5 2.4.7 3.7l.3 1.2c.3 1.4.7 2.8 1 4.2l.3 1.5c0 .2.1.5.2.7l.7 2.6c.4 1.4.7 2.9 1 4.4l.9 4.2c.3 1.4.5 2.7.8 4.1.5 2.6.9 5.2 1.4 7.7.5 2.8 1 5.5 1.4 8.3.1.8.2 1.5.3 2.3s.2 1.7.2 2.6c0 .6 0 1.2.1 1.8v1.9c.4 1.5.7 2.9 1.1 4.4-.2-.3-.3-.5-.5-.8.2.9.3 1.9.5 2.8.2 1.1.3 2.2.4 3.2.1.6.2 1.3.2 1.9.1.7.1 1.4.1 2.1.1 1.4.1 2.8 0 4.1 0 2.7-.2 5.5-.4 8.2-.2 2.3-.4 4.5-.7 6.7v-1.4c-.1.5-.1 1.1-.3 1.6 0 .2-.1.3-.2.4-.3-.6-.7-1.2-1.1-1.7-1.7-2.6-3.5-5.1-5.4-7.6-.4-.7-.8-1.3-1.3-1.8-.1-.1-.3-.2-.5-.3-.8-1.6-1.8-3.1-2.8-4.5-.8-1.1-1.7-2.2-2.6-3.3-1.7-3-3.6-6-5.7-8.8-.9-1.2-1.9-2.5-2.8-3.7s-1.8-2.5-2.7-3.7c-1.8-2.8-3.8-5.5-5.9-8.1v.1c-.7-1-1.5-1.9-2.2-2.9-.8-1-1.6-2-2.3-3l-.2-.2c-1-1.2-1.9-2.5-2.9-3.7-1.7-2.2-3.5-4.4-5.3-6.6-1.8-2.1-3.6-4.3-5.4-6.4l-2.1-2.4c-.1-.1-.1-.2-.2-.2-.7-.7-1.4-1.4-2-2.2-.5-.5-1-1.1-1.5-1.5-.8-.8-1.6-1.6-2.4-2.3-.6-.6-1.2-1.1-1.8-1.7s-1.2-1.1-1.9-1.7c-.6-.5-1.1-1-1.7-1.5-.1-.1-.3-.2-.4-.4l-.2-.2-.3-.3c-.2-.2-.4-.3-.5-.4-.3-.3-.6-.5-.9-.8-.1-.1-.2-.1-.2-.2l-.1-.1c-.3-.3-.7-.5-1-.8-.3-.2-.6-.5-.9-.7-.1-.1-.3-.2-.4-.3-.6-.5-1.2-1-1.8-1.4-.5-.3-1-.5-1.5-.8 0 .1.1.2.1.4v.1c.4 1.6.8 3.3 1.1 5 .1.4.2.7.2 1.1.3 1.3.6 2.7.8 4l.3 1.5c.3 1.6.6 3.1.8 4.7 0 .3.1.6.1.8.3 1.6.5 3.3.8 4.9.1.4.1.7.2 1.1.1 1 .3 2.1.4 3.1.1.8.2 1.5.3 2.3.1.9.2 1.7.3 2.6.1.8.2 1.7.3 2.5.4 3.2.7 6.4 1 9.6 1.4 14.2 2.1 28.4 3.2 42.7.5 6.5.9 13 1.3 19.5.8 6.4 1.4 12.8 1.7 19.3.2 3.3.3 6.7.3 10 0 3.5 0 7-.1 10.5v.9c.3 1.6.5 3.3.8 4.9-.1 3.4-.1 6.9-.2 10.3.1 1 .3 2.1.4 3.1 0 1.3-.2 2.5-.5 3.6v3c-.2 1.1-.3 2.1-.5 3.2 0 2 0 3.9-.1 5.9v-.5s-.2 1.1-.2 1.7v5.8c-56.4 1.8-112.7 5.8-168.8 12.2-93.7 10.8-186.7 28.6-277.6 54.5-89.9 25.6-177.6 59.3-261.4 101.1-8.6 1.2-8.2 15.2 1.2 15.2 1.1 0 2-.2 2.9-.5l.1.3c83.2-43.1 170.5-78.1 260.4-105 89.9-27 182.1-45.9 275.3-57.9 55.7-7.2 111.7-11.9 167.8-14.5 0 2.6-.1 5.2-.1 7.8 0 1.6-.1 3.3-.2 4.9-.1 1.4-.1 2.9-.2 4.3V1305.9c-.1 1.6-.2 3.3-.4 4.9-.1 1.3-.3 2.6-.4 3.9v.4c-.2 1.2-.3 2.5-.5 3.7-.1 1.3-.2 2.6-.4 3.9-.1 1-.2 1.9-.3 2.9-.2 1.3-.3 2.5-.5 3.8 0 .2-.1.4-.1.5-.5 3.5-1.1 7-1.9 10.5-.1.4-.2.7-.2 1.1-.2 1.1-.5 2.1-.7 3.2-.1.5-.2 1-.4 1.5-.2.9-.5 1.9-.7 2.8-.7 2.5-1.4 4.9-2.1 7.4 0 .2 0 .4-.1.7-.1 1.1-.2 2.1-.4 3.2-.1.5-.2 1.1-.2 1.6 0-.2.1-.4.1-.6 0 .1 0 .3-.1.4 0-.1 0-.3.1-.4 0 .3-.1.5-.1.8v.4c-.1.4-.1.9-.2 1.3v-.4c0-.3.1-.6.1-.9 0 .2-.1.5-.1.7v.4-.1.2-.1.2h.4c-.4 0-.4 0-.4.1v-.2c-.1 1-.3 2-.5 3.1-.1.7-.2 1.5-.4 2.2-.1.8-.3 1.5-.5 2.3-.8 4-1.8 8-3 11.9-.2.5-.3 1-.4 1.6-2 6.5-4 13.1-6.4 19.5-.2.5-.4 1.1-.6 1.6-1.1 3.1-2.3 6.1-3.4 9.2-.5 1.7-1.1 3.3-1.7 4.9-.7 1.8-1.4 3.6-2.1 5.3l-3.9 10.5c-2.6-.1-5.1-.2-7.7-.2-.3-1.4-.5-2.8-.8-4.2 0-.1-.1-.2-.1-.2-.3-3.5-.8-7.1-1.3-10.6-.4-3-1.1-6-1.8-8.9-.8-3.2-1.6-6.4-2.8-9.5-1-2.7-2.1-5.4-3.2-8.1v-.2c0-1.4-.6-2.7-1.1-4.1-.2-.6-.5-1.3-.7-1.9-.7-1.7-1.4-3.4-2.1-5-.2-.5-.5-1-.7-1.6 0-.1-.1-.1-.1-.2-.3-.7-.5-1.4-.8-2.1-.2-.5-.3-1-.5-1.5-.1-.3-.2-.7-.3-1-.2-.5-.3-1-.5-1.5s-.4-.8-.7-1.1c-.1-.2-.1-.3-.2-.5-.5-1.2-.9-2.5-1.4-3.7-.1-.1-.1-.3-.2-.4-.6-1.7-1.3-3.3-1.9-5-.3-.4-.6-.8-.8-1.1-.7-1.3-1.5-2.7-2.3-4-1.4-2.4-2.8-4.7-4.3-7-.1.1-.1.2-.2.3-.3.4-.6.9-.9 1.3l-.2-.2-.3.6c-.1.2-.2.5-.3.7-.2.5-.4 1-.7 1.5-.4.8-.7 1.6-1.1 2.4-.1.3-.3.6-.5 1-.1.2-.2.4-.3.5-.1.3-.2.5-.4.7l-.4.4c0 .1-.1.3-.1.4-.1.2-.1.4-.2.7-.2.5-.4 1-.5 1.5-.2.7-.5 1.4-.7 2.1v.1c-.5 1.2-1 2.5-1.5 3.7-.1.3-.2.5-.4.8 0 0 0 .1-.1.1-.4 1-.9 2-1.4 3v.1c0 .1-.1.2-.1.3 0 .3-.1.6-.1.8v.2c-.2 1.3-.5 2.7-.7 4-.1.7-.3 1.4-.4 2.2-.2.8-.3 1.6-.5 2.4-.1.7-.3 1.4-.4 2.1-.2.8-.4 1.7-.6 2.5-.2.6-.3 1.3-.5 1.9-.3 1.1-.6 2.3-.9 3.4-.1.3-.2.7-.3 1-1.8 6.6-4.1 13-6.5 19.4-2.6 6.9-5.7 13.6-8.8 20.2-101-1.1-202.1 2.5-302.8 11.6-108.5 9.9-216.6 26.2-323.1 49.7l.1.4h-.2c-9.8 0-9.8 15.2 0 15.2 1.4 0 2.5-.3 3.5-.8 105.6-24.6 212.9-42.1 320.8-53.2 98.9-10.2 198.4-14.9 297.9-15.1-1.7 3.5-3.5 7-5.2 10.6-1.3 2.6-2.6 5.3-3.8 7.9-.1.2-.2.5-.3.7-1.3 2.6-2.5 5.1-3.8 7.6-.4.8-.9 1.7-1.3 2.5-.9 1.8-1.9 3.6-2.9 5.4-.3.5-.6 1-.8 1.5-.8 1.4-1.6 2.9-2.4 4.3-.6 1-1.1 2-1.7 2.9-.9.7-1.7 1.7-2.4 2.9-17.7 31.3-36.8 61.9-57.5 91.4zM714.5 321.5c.1.2.3.4.4.5l.9 2.7c1.4 1.2 2.8 2.4 4.1 3.7 1 1.2 2 2.5 3 3.7-2.3-2.1-4.6-4.2-6.9-6.2-.4-1.5-.9-3-1.5-4.4zm10.6 11.7c6.1 5.7 12.2 11.3 17.8 17.5-.3-.1-.7-.1-1-.2-4.9-5.4-10.2-10.3-15.6-15.3l-1.2-2zm44.5 236.7c-.2.5-.4 1.1-.6 1.6l-.6.6c-.1-.3-.3-.5-.4-.8 0 0 0-.1-.1-.1-.2-.1-.5-.2-.7-.2.8-.4 1.6-.7 2.4-1.1zm28.5 8.5c-.3.2-.6.3-.9.4h-1l.9-.6c.4.1.7.1 1 .2zm-.6-.4c.1-.1.2-.1.2-.2 0 .1-.1.1-.2.2zm10.5-7c.1-.1.1-.2.2-.2-.1 0-.2-.1-.3-.1.3-.2.6-.5 1-.7-.2.3-.4.6-.7.8l1.2.6c-.1 0-.2.1-.4.1.3.1.5.2.8.4-1 .4-2 .7-3 1.1-2.7 1.3-5.3 2.6-7.9 4 1.3-.9 2.6-1.9 3.9-2.8l3.6-1.8c.9-.3 1.7-.6 2.6-1-.3-.1-.7-.3-1-.4zm13.7-9c-.5-.4-1-.7-1.6-1.1v-.1c.5.3 1 .7 1.6 1.2zm0 1.6c-.9.3-1.8.6-2.6.8.1-.2.2-.5.3-.8.8-.2 1.5-.5 2.3-.7v.7zm0-5.1c-.8-1.5-1.5-3-2-4.6v.5c-.1-.8-.3-1.5-.5-2.3-.7-3-1.1-6.1-1.2-9.2-.5-.7-.9-1.3-1.4-2 0-.2-.1-.3-.1-.5.7.9 1.3 1.9 2 2.8.1 3.1.5 6.2 1.2 9.3.5 1.9 1.2 3.7 2.1 5.4-.1.3-.1.5-.1.6zm0 3.5c.3.1.7.4 1 .6h-.1c.2.1.3.2.5.4.1-.1.2-.1.2-.2 0 .3 0 .6.1.8-.7.6-1.2 1.5-1.5 2.3-.1.1-.2.2-.2.3v-1.5c.3-.6.7-1.2 1.2-1.6-.4.1-.8.2-1.2.4v-.7l.9-.3c-.3-.1-.6-.3-.9-.5zm0-3.5v-.5l1.5 2.7v.3c-.5-.7-1-1.6-1.5-2.5zm1.6 2.7v-.3c.1.2.2.3.3.5v.3c-.1-.2-.2-.4-.3-.5zm.3 1.5v.9s-.1 0-.1.1c0-.3 0-.5-.1-.8l.2-.2zm.2-.8v-.3c.1.2.2.4.4.5l.2 1s-.1 0-.1.1c-.2.1-.3.2-.5.4v-.9c.1-.1.3-.1.4-.2-.1-.2-.3-.5-.4-.6zm1209.4-419.4l-1.8 2.4c-.7.9-1.4 1.9-2.1 2.9-.2.1-.5.2-.7.4.7-1 1.4-2.1 2-3.1l2.6-2.6zm-28 36.3c0 .2-.1.4-.1.6-.5.4-1 .7-1.5 1.1.6-.6 1.1-1.2 1.6-1.7z"/><path class="st0" d="M535.1 106.5v-1.3c-.1.2-.3.3-.4.5.2.2.4.8.4.8zM490.6 1363.6zM819.2 552.2c.1.6.3 1.2.5 1.8v-.2c0-.8 0-1.2-.5-1.6zM823.3 563.1c0-.1-.1-.1 0 0-.2 0-.3 0-.4.1.1 0 .2 0 .4-.1zM1663.5 1813.9c-.3.1-.6.3-.9.4.1 0 .2.1.3.1.2-.2.4-.3.6-.5zM2156.8 1157l.1.1s0-.1-.1-.1c-.1-.3-.3-.6-.5-.9.1.2.2.5.3.7l.2.2zM2121.6 1109.1s0 .1.1.1c0 0-.1 0-.1-.1zM1846.7 1382.9c-.1-.3-.1-.4 0-.6 0-.1 0-.2-.1-.3l-.2.2c0 .1.1.2.1.3.1 0 .1.2.2.4zM1881.4 1463.2c.1-.1.1-.2.1-.3-.1.1-.1.2-.1.3zM2152.3 1159.1c-.1 0-.1 0 0 0 0 .1.1.2.2.4-.1-.2-.2-.3-.2-.4zM2153 1160.2c-.1-.1-.3-.2-.4-.4.2.3.4.7.6 1 0-.2-.1-.4-.2-.6zM1980.1 1475.2zM1912.2 1468.6c.1-.1.1-.2.1-.3-.1.1-.1.2-.1.3zM1979.2 1477.2c.1 0 .1 0 0 0 .1 0 0 0 0 0zM1987.1 1459.6c-.1.1-.1.1 0 0zM1900.8 925.7v-.2.2zM1900.8 925.8zM1420.4 1113.3c0 .1.1.1 0 0 .1 0 .1 0 0 0 .1 0 .1 0 0 0 1.8-6.6 3.7-13.3 6.2-19.7l2.7-6.6 1.2 2.4c.4.8.8 1.5 1.2 2.3 2.5 4.9 5.4 9.9 8.6 14.6 1.8 2.7 3.8 5.5 5.8 8.3 2.6 3.6 5.3 6.9 7.6 9.8 4 4.9 8.4 9.3 11.9 12.6 2.2 2.1 4.6 4.2 7.5 6.8 1.5 1.3 3.2 2.6 4.7 3.8.7.5 1.4 1 2 1.6 1.8 1.4 3.6 2.6 5.7 4.1.4.3.8.5 1.1.8.8.6 1.6 1.1 2.5 1.6.7.4 1.4.9 2.2 1.3 1.8 1.1 3.8 2.2 5.7 3.2 6.1 3 12.6 6.2 19.5 8.7 4.9 1.8 11.3 4 18 5.6 4.9 1.2 11.4 2.7 18.1 3.6l3.5.5c5.9.8 12.1 1.7 18.1 2h.8c3.7.2 7.6.4 11.4.4 2.4 0 4.6-.1 6.6-.3 6.9-.6 14.3-1.3 21.7-2.7 5.6-1 12.1-2.3 18.4-4.1l.3-.1c2.9-.8 5.6-1.6 8.3-2.6l2.3-.8c2.9-1.1 6-2.2 8.9-3.5 3.5-1.5 6.9-3.1 10.3-4.6 1.9-.9 3.9-1.8 5.8-2.8.9-.5 1.8-.9 2.7-1.4 2.6-1.3 5.2-2.7 7.2-3.7.7-.4 1.4-.7 2.1-1.1 1.9-1 3.8-2 5.7-3.1l5-2.9 5.1-3c8-4.6 15.3-10.5 20.8-15 13.2-11 25.6-25 36.9-41.7 10.3-15.2 18.7-31.8 25.2-49.4 3.1-8.5 5.5-17.6 7.1-26.9 1.4-8.1 2.2-15.8 2.5-23.1.2-5.8.3-12.1.2-18.3-.2-6.3-.9-12.7-2.1-19.1.1 0 .2.1.4.1.9.3 1.8.6 2.6.9l.9.3 6.6 2.1c4.6 1.4 9.2 2.3 13.9 3 4.9.7 9.7 1.1 14.7 1.2 5.2.1 10.3-.5 15.3-1.4 9-1.6 17.5-5.1 25.6-9.2 6-3 11.8-6.8 17.3-10.6 2.9-2 5.8-4 8.6-6.1.3-.2.6-.4.9-.7.6-.5 1.2-.9 1.8-1.4l.1-.1.2-.2c.2-.1.4-.3.6-.4.1-.1.2-.1.3-.2.3-.2.5-.4.8-.5.7-.5 1.5-.9 2.2-1.4.1-.1.1-.2.1-.3.2-.1.3-.2.5-.4v.1c.1-.1.3-.2.4-.3.3-.2.6-.3.8-.6.1-.1.2-.2.3-.2.2-.2.4-.4.6-.5l.1-.1.5-.5c-.5.1-.9.5-1.3.9-.2.2-.4.3-.5.5 0 0 0-.1-.1-.1.2-.1.2-.2.1-.4 2.9-1.8 5.7-3.7 8.5-5.6 4.6-3.1 9.1-6.3 13.4-9.8-5.2 2.2-10.6 3.9-16 5.5-2.9.8-5.8 1.6-8.7 2.5-6.9 2-14 3.4-21.1 4.4-7.7.9-15.5 1-23.2.1-8.7-1.3-17.4-3.4-25.7-6.4-5-1.8-10-3.8-15-5.7-6.4-2.4-12.9-4.7-19.3-7-12.6-4.6-25-9.6-37.4-14.7-2.5-1.1-5.1-2-7.7-3-3-1.1-5.9-2.4-8.9-3.3l-11.1-3.3c-1.1-.3-2.3-.5-3.4-.8l-6.9-1.5c-5.9-1.3-12-2.3-18-3.2-7.4-1.2-14.9-2.3-22.4-2.4-3.5-.1-6.9-.1-10.4-.1-9.9 0-19.8.3-29.6 1.2-7.8.7-15.6 1.7-23.4 3-6 1-12.1 2.3-17.9 4-13.5 3.9-26.6 9.1-39.3 15.1-11.9 5.6-23.3 12-34.3 19.3-5.8 3.8-11.5 7.8-17.1 11.9-5.8 4.2-11.5 8.7-16.8 13.5-9.9 9.1-18.9 18.9-27.5 29.2-9 10.9-16.9 22.6-23.4 35.1-1.8 3.6-3.4 7.3-4.9 11-1.2 2.9-2.3 5.8-3.3 8.7-1.3 4.1-2.6 8.2-3.7 12.4-.2.5-.4 1.1-.6 1.6-1.9 5.9-3.7 11.8-5 17.9-1.2 5.4-1.9 10.8-2.5 16.3-.5 4.5-.6 9.1-.7 13.6-.1 4.8-.3 9.7-.1 14.5.6 4.9 1.3 10 2.1 15zm480.1-187.8l-.2.2c.1-.1.2-.1.2-.2zm-7.3 3.9c.1 0 .1 0 .2-.1.2-.2.4-.3.6-.5H1894.3s.1.1.2.1c-.5.2-.9.4-1.3.5zm-1.1.3c.3-.2.6-.3.9-.5l-.1.1s0 .2.1.3c-.7.2-1.4.5-2 .7.3-.3.7-.4 1.1-.6zm-51.7 10zM1648 915.8c1.6 0 3.3-.1 4.9-.1h1.7c1.1 0 2.2 0 3.3-.1H1661.6c.6 0 1.3 0 1.9-.1.7-.1 1.3-.1 2 0 3.3.3 6.6.6 10 .8 9 1.3 18 2.8 27 4.5 1 .2 2.7.6 3.7.9 5 1.7 10.5 2.5 15.2 5 .3.1.5.2.8.3 7.7 2.1 15 5.6 22.5 8.5.1 0 .2.1.3.1l12.6 4.8c1.4.5 2.7 1 4.1 1.5 1.2.4 2.3.9 3.5 1.3.2.1.3.1.5.2 1.7.6 3.4 1.3 5.1 1.9-.1 1.2-.1 2.3-.1 3.5v2.1c-.1.6-.2 1.2-.2 1.9.1 5.1-.4 10.2-.8 15.2-.2 1.8-.3 3.6-.4 5.3-.1 1.6-.2 3.1-.3 4.7-.4 6.2-.9 12.6-1.7 18.8-2 13.8-5.9 27.7-11.4 41.2-7.2 16.5-16.4 32.2-27.3 46.8-9 11.4-19.2 21.6-30.2 30.4-10.4 7.8-21.7 14-33.4 20.1-5 2.6-10.1 5-15.1 7.3 15-23.6 23.1-65.8 19.5-113.1-2.5-33.6-10.5-65-22.5-88.4-5.2-10.2-10.9-18.3-17-24.3 5.9-.4 12-.8 18.1-1zm-206.1 154.8v-.4.4zm-1.3-8.5c.4-1.1.8-2.2 1.3-3.3 3-5.8 6.1-11.6 9.4-17.3 6.1-10.8 13.4-20.8 20.6-30.9 2.1-3 4.3-5.9 6.5-8.8 5.2-6.5 10.5-13.1 16.4-19 3.1-3.2 6.3-6.5 9.6-9.5 3.3-2.9 6.6-5.7 10-8.5 8.4-6.4 17-12.5 26-18 5.1-3.1 10.2-6 15.4-8.8 4.8-2.5 9.7-4.8 14.6-7 1-.4 1.9-.8 2.9-1.2-2.4 4.5-4.6 9.6-6.5 15.2-8.8 25.1-12.2 57.8-9.7 92.2 2.5 33.6 10.5 65 22.5 88.4 7.1 13.9 15.2 24.1 23.7 30.1-1 .1-2 .3-2.9.4-.7.1-1.5.1-2.2.2-2.7.3-5.4.5-8.2.6l-7.1.1c-1.1 0-2.2 0-3.3-.1-.8-.1-1.5-.1-2.3-.2-6.6-.3-13-1-20.7-2-.9-.2-1.9-.3-2.8-.5-2.3-.4-4.8-.8-7.1-1.3l-1.3-.3c-3.4-.8-6.9-1.6-10.4-2.5l-3-.8-3-.8c-1.4-.4-2.8-.9-4.1-1.4-.7-.3-1.4-.5-2.1-.7-2.8-1-5.6-2.1-8-3.1-2.4-1.1-4.7-2.2-7.1-3.3-1.6-.8-3.2-1.7-4.8-2.6-.8-.5-1.6-.9-2.4-1.4-1.6-.9-3.2-1.9-4.7-3-.4-.3-.8-.5-1.2-.8-1.5-1-4-2.7-5.4-3.8l-.7-.5c-2.1-1.7-4.7-3.8-7.2-6l-.5-.4c-2.3-2-4.6-4-6.7-6.2-2.7-2.7-5-5.2-7.3-7.8-1.9-2.2-3.8-4.6-5.4-6.6l-.8-1.1c-1.5-2-3-4.1-4.4-6.2-2-3-4-6.3-6.1-9.8-1.3-2.3-2.5-4.6-3.7-6.9l-1.2-2.4c-.5-.9-.9-1.9-1.2-2.8-.2-.4-.3-.9-.5-1.3l-.5-1.3-1-2.2-.1-.1v.4c0-.2 0-.5-.1-.7-.2-.4-.4-.8-.6-1.3l-.6-1.5c-.1-.2-.2-.5-.2-.7v-.1c0-.1 0-.2-.1-.2.2-.3.2-.4.3-.6z"/><path class="st0" d="M1904 923.2v-.4c-.2.1-.3.3-.4.4h.4zM2121.5 1109zM1900.7 925.5c-.1.1-.2.1-.2.2l.2-.2c-.1.1-.1.1 0 0 0 .1.1.1 0 0 .1-.1.1 0 0 0zM1019.1 1581v-.5c-1 .5-1.9 1-2.9 1.5 1-.4 1.9-.7 2.9-1zM1194.2 1413v-.3.3zM1415 1603c-8.5-1.4-16.9-3.9-24.9-7.1-10-4.5-19.3-10.1-28.1-16.6-6.9-5.5-13.5-11.5-19.7-17.8-5.9-5.9-11.6-12.1-16.8-18.6-7-9.3-13-19.4-18.1-29.9.7-16 1.3-32 2-48.1v-.5c.9-.7 1.8-1.4 2.8-2.1l6-4.7 2.9-2.3c4.9-3.8 10-7.8 14.9-11.8 1.2-1 2.5-2 3.7-3 3.6-2.9 7.3-6 10.8-9.1l2.2-2c2-1.8 4-3.6 6.1-5.4 1.8-1.6 3.6-3.4 5.3-5.1l2.6-2.6c1.6-1.6 3.2-3.4 4.7-5.1l1.8-2.1c1.9-2.1 3.7-4.4 5.4-6.6l.7-1 1.2-1.5c4.4-5.6 8.9-11.4 12-18 2.7-5.7 4.2-10.5 5-14.9.7-3.9.8-7 .5-9.8-.2-2.1-.6-4.1-1-6.1-.4-1.9-1.2-3.6-1.9-5.2-.2-.5-.5-1-.7-1.5-.6-1.3-2.3-3.3-3.2-4.4l-.4-.5c-.7-.8-1.3-1.4-2-2-3.3-2.8-6.4-4.5-10.8-6-.5-.2-1-.3-1.5-.4-2.4-.6-4.8-.8-7.6-.9h-.6c-.7 0-1.4.1-2.2.1h-.1c-2.2.2-4.5.6-7.1 1.2-2 .5-4 1.3-5.9 2.1-2.9 1.3-5.8 2.5-8.6 4-5 2.8-9.6 6.3-14 9.8-6.5 5.2-13 11.6-20.3 20.2-2.5 3-4.7 6-6.8 8.9l-.6-.8-.3-.5c-1.3-1.9-2.7-3.7-4.1-5.5-.7-.9-1.3-1.7-2-2.6-1.9-2.5-3.9-4.9-6-7.2-.8-.9-1.5-1.7-2.3-2.6-.6-.7-1.4-1.5-2.1-2.1-.4-.3-.7-.7-1.1-1-.3-.4-.7-.7-1-1.1-.7-.8-1.5-1.5-2.2-2.2l-.3-.3c-4.2-3.8-8.6-7.6-13.4-10.9-2.7-1.8-5.6-3-7.8-3.8-1.6-.6-3.2-1-5.1-1.3-.6-.3-1.1-.5-1.7-.5-.5-.4-1.2-.7-2-.9-.4-.2-.9-.2-1.4-.4h-.2c-.2 0-.4-.1-.5-.1l-2.1-.3c-1-.1-2-.1-2.8-.2h-1.6s-.7 0-1 .1h-.4c-1.2.1-2.4.3-3.5.5-.4.1-.8.1-1.2.2l-.4.1c-.2 0-.3.1-.5.1l-.2.1h-.2c-.2 0-.4.1-.5.2-1 .4-2.2.8-3.3 1.3-.6.3-1.3.6-2 1-.6.3-1.2.7-1.8 1.1-.8.6-1.5 1.1-2.1 1.7-.8.8-1.6 1.7-2.3 2.7-.7.5-1.3 1.2-1.8 1.8-.2.2-.3.4-.5.6l-.2.2c-.4.5-.7.9-1 1.4-.4.6-.8 1.2-1.1 1.7-.2.4-.4.7-.5 1.1-.3.6-.6 1.3-.8 2 0 .1-.1.3-.1.4-1.2 2.1-2.2 4.6-3 7.2-.7 2.3-.9 4.8-1.1 7.2l-.1.7c-.1 1.8-.1 3.7.3 6.2.7 5.3 2.1 10.4 4.2 15.2 3.1 7.2 7.3 14.3 13.3 22.4 1.5 2.1 3.2 4.2 4.8 6.2.7.8 1.3 1.6 2 2.5 4.1 5.2 8.3 10.3 13.1 15.9.8.9 1.6 1.9 2.4 2.8l.3.3.1.1.6.5 1.9 1.8c.5.5 1 1 1.5 1.6.2.3.5.5.7.8.8.8 1.6 1.7 2.3 2.6l.2.2c.8.9 1.6 1.9 2.3 2.8l.3.3.1.2 1.1 1.3c.8 1.1 1.7 2.2 2.5 3.3l1.5 1.8.3.4.3.4.3.4c.7 1 1.3 2 1.9 3 .3.5.6.9.9 1.4.8 1.2 1.6 2.5 2.5 3.7.3.5.7.9 1.1 1.4.2.2.4.4.7.6.3.3.7.6 1.1.8l.1.1c.2.5.5.9.8 1.2-.7 16.1-1.3 32.3-2 48.4-4.7 9.2-10.1 18.1-16.4 26.4-5.2 6.5-10.9 12.7-16.8 18.6-6.3 6.3-12.8 12.2-19.7 17.8-8.8 6.6-18.1 12.2-28.1 16.6-8 3.2-16.4 5.7-24.9 7.1-6.1.6-12.2.6-18.3 0-6.4-1.1-12.7-2.8-18.8-5.1-5.6-2.6-10.9-5.8-15.8-9.4-7.2-5.8-13.4-12.6-19.1-19.8-4.4-5.8-8.8-11.8-11.8-18.5-.6-1.6-1.2-3.3-1.5-5v.1c-.1-.6-.2-1.3-.2-1.9-3.3 8.1-2 17.3-.3 25.6 1.9 9.4 5.4 18.4 9.9 26.8 10.3 18.9 28.8 33.2 49.8 37.6 5.6 1.2 11.5 1.7 17.2 1.8 6.2.1 12.3-.7 18.4-1.5 9.6-1.4 19.1-4.3 28.1-8 10-4 19.5-8.7 28.5-14.6 3.9-2.6 7.7-5.3 11.5-8.2 5-3.8 9.9-7.6 14.3-11.9 3.1-3 6-6.3 8.7-9.7 3.6-4.5 7-9.1 9.9-14.1 2.8-4.8 5-9.9 7.1-15 1.8-4.3 3.1-8.7 4.1-13.2.1-.3.1-.6.2-.8.1.3.1.6.2.8 1 4.5 2.3 8.9 4.1 13.2 2.1 5.1 4.3 10.2 7.1 15 2.9 5 6.3 9.6 9.9 14.1 2.7 3.4 5.5 6.7 8.7 9.7 4.5 4.3 9.4 8.1 14.3 11.9 3.7 2.8 7.5 5.6 11.5 8.2 9 5.9 18.6 10.6 28.5 14.6 9 3.6 18.5 6.6 28.1 8 6.1.9 12.2 1.7 18.4 1.5 5.7-.1 11.6-.6 17.2-1.8 21.1-4.4 39.6-18.8 49.8-37.6 4.6-8.4 8-17.4 9.9-26.8 1.7-8.3 3-17.5-.3-25.6-.1.6-.1 1.3-.2 1.9v-.1c-.4 1.7-.9 3.4-1.5 5-3 6.7-7.3 12.7-11.8 18.5-5.7 7.3-11.9 14-19.1 19.8-5 3.6-10.3 6.8-15.8 9.4-6.1 2.4-12.3 4.1-18.8 5.1-5.6.8-11.7.8-17.8.2zM430.9 1157s0 .1-.1.1c.1 0 .1 0 .1-.1l.2-.2c.1-.2.2-.5.3-.7-.1.3-.3.6-.5.9zM1955.6 247.7c-.2.3-.5.6-.7.9l-.1.1c.2-.3.5-.6.8-1zM1367.2 354.8c4.5.1 9 .1 13.5.2-3.7-.3-7.3-.5-11-.8-7-.5-13.9-1.1-20.9-1.6-7.4-.6-14.8-1.3-22.2-2-9 .7-17.9 1.7-26.8 2.8-5.2.8-10.4 1.6-15.6 2.5 22.2-.9 44.4-1.1 66.6-1.2 5.5 0 10.9 0 16.4.1zM435.4 1159.5c.1-.1.1-.2.2-.3-.1 0-.2.1-.2.3zM466.1 1109.3l.2-.2s0 .1-.1.1-.1 0-.1.1zM434.5 1160.8c.2-.3.4-.7.6-1-.1.1-.2.3-.4.4 0 .2-.1.4-.2.6zM2110.8 568.1c1.3-4.3 2.7-8.6 4-12.8-1.2 3.6-2.5 7.2-3.8 10.7-4.8 12.9-9.6 25.8-14.2 38.7l-7.2 20.1c-1.3 3.6-2.5 7.3-4.1 10.8-1.3 3-2.7 5.9-4.2 8.8-2.2 6.5-4.4 13-6.5 19.6-9.9 29.7-19.8 59.5-31.4 88.6-.6 1.5-1.2 3-1.8 4.4.2-.3.3-.7.5-1 .6-1.2 1.1-2.5 1.7-3.7 1-2 1.9-4.1 3.2-5.9.5-.6 1-1.1 1.8-1.4.3-.1.5-.1.8-.1s.5 0 .8.1.6.2.9.4c.1-.2.2-.5.2-.7 0-.1 0-.1.1-.2 1.4-4.1 2.8-8.2 4.5-12.2l2.1-5.1c-.1-.4-.1-.8-.1-1.2 0-2.9.7-5.7 1.6-8.5 0-.1.1-.2.1-.3 1.2-3.7 2.4-7.2 3.7-10.8 2.4-6.5 5.1-12.9 7.6-19.3 2.8-7.1 5.6-14.2 8.3-21.4.1-.3.2-.7.3-1 .1-.4.2-.7.3-1.1 1.6-6.4 3.4-12.7 5.3-19 2-6.4 4.1-12.8 6.3-19.1 2.2-6.5 4.6-13 6.9-19.4 1.6-4.4 3.3-8.9 4.8-13.4.5-1.5 1-3.1 1.5-4.6 2-6.7 3.9-13.3 6-20zM490.6 1363.2v.4c-.1-.5-.1-.9-.2-1.4.1.3.1.7.2 1z"/><path class="st0" d="M1271.4 954.6c.1 0 .1 0 .2-.1 0-.6.1-1.2.3-1.8.7-8.6 3.4-16.8 3.6-25.4 0-1.1.3-2.1.7-2.9h36.1c2.2 7.2 3.6 14.7 4.6 22.2.3 1.4.6 2.8.7 4.2.1 0 .3.1.4.1 2.6 14.8 6 29.9 9.6 44.9 14.3 58.6 32.6 118.3 63.2 169.8 64.6 108.7 160 151.2 278.4 151.2 193.6 0 280.3-92.1 305.8-224.8 21.1-109.8 16.7-148.7 23.8-170.9.6-4.3 1.3-8.5 2.1-12.7 2.2-18.3 5.3-36.5 8.4-54.6.1-1.4.2-2.8.4-4.2-.2-.8-.2-1.6-.1-2.4-.3-3.5.1-7 .1-10.7.2-8.7-1.8-17.2-4.5-25.4-2.9-6.1-6.5-11.9-10.6-17.5-.4-.3-.8-.6-1.1-.9-2.6-1.6-5.3-3.2-7.9-4.7-.6-.1-1.2-.3-1.8-.6-191.2-39.3-385.3-47.8-577.3-7.6-39.5 8.3-63.8 25.5-77.8 48.5-.2.1-.4.1-.5.2-1.6 2.3-3.1 4.6-4.9 6.8-1.8 3.6-3.8 7.1-5.9 10.7h-48.7c-.5-.6-1-1.4-1.2-2.2-1.8-5.3-4.7-10.2-6.7-15.4-.1 0-.1 0-.2-.1-14.1-23.7-38.5-41.4-78.1-50-192.3-41.4-386.8-32.7-578.4 7.7-.3.2-.5.5-.8.7-12.6 9.2-20 22.7-24.2 37.7-.6 3.5-1.1 7-1.7 10.5-.2 29.5 6.8 59.2 10.9 88.8 7.4 22.8 2.7 62.6 24 176.6 25.6 136.8 112.5 231.6 306.7 231.6 118.8 0 214.4-43.8 279.3-155.8 30.7-53.1 49-114.6 63.4-175 3.7-15.7 7.1-31.3 9.7-46.5zm98.2-104.6c3.3-4.8 7-9 10.9-12.9 22.6-22.9 54.3-32.8 84.7-40.5 27.4-7 55.3-11.3 83.4-13.9 30-2.7 60.1-3.9 90.2-3.6 55.5.5 85.7.7 140.7 7.3 45.3 5.4 124.6 8.8 157.4 48 27.7 33.1 23.5 76.3 21 116.7-2.8 44.8-9.2 89.4-18.4 133.2-5.5 26.2-10.6 55.5-21.7 80.8-4.1 9.4-9.1 18.3-15.3 26.2-31 39.8-63.8 65.8-111.7 79.4-48.1 13.7-99.2 13.5-148.7 11.5-211-8.6-249.7-176.5-280.4-307-.9-3.7-1.7-7.5-2.6-11.3-8.4-38.5-12.9-80.1 10.5-113.9zm-139.5 117.9c-.8 3.9-1.7 7.8-2.6 11.6-30.8 134.4-69.6 307.3-281.2 316.2-49.6 2.1-100.8 2.3-149.1-11.8-48-14-80.9-40.8-112-81.8-6.2-8.2-11.2-17.3-15.4-27-11.2-26.1-16.3-56.3-21.8-83.3-9.2-45.2-15.6-91.1-18.4-137.3-2.5-41.7-6.7-86.2 21-120.3 32.9-40.4 112.4-43.8 157.8-49.4 55.2-6.8 85.5-7 141.1-7.5 30.2-.3 60.4.9 90.4 3.7 28.2 2.6 56.2 7.1 83.6 14.3 30.4 8 62.2 18.1 84.9 41.7 3.9 4.1 7.6 8.4 10.9 13.3 23.8 35 19.2 77.9 10.8 117.6z"/><path class="st0" d="M1173.7 1065.9c-.6-5.5-1.4-10.9-2.5-16.3-1.3-6-3.1-12-5-17.9-.9-2.8-2-5.6-3.1-8.3-1.2-3-2.5-6-3.9-8.9-.7-1.8-1.3-3.5-2.1-5.3-1.5-3.7-3-7.5-4.9-11-6.5-12.5-14.3-24.3-23.4-35.1-8.6-10.3-17.6-20.2-27.5-29.2-5.3-4.8-11-9.3-16.8-13.5-5.6-4.1-11.3-8.1-17.1-11.9-11-7.2-22.4-13.7-34.3-19.3-12.7-6-25.8-11.2-39.3-15.1-5.9-1.7-11.9-3-17.9-4-7.8-1.2-15.5-2.3-23.4-3-9.8-.8-19.7-1.2-29.6-1.2-3.5 0-6.9 0-10.4.1-7.5.2-15 1.3-22.4 2.4-6 .9-12.1 1.9-18 3.2l-6.9 1.5c-1.1.3-2.3.4-3.4.8l-11.1 3.3c-3 .9-6 2.2-8.9 3.3-2.6 1-5.1 2-7.6 3-12.4 5.1-24.8 10.1-37.4 14.7-6.4 2.3-12.9 4.6-19.3 7-5 1.9-9.9 3.9-15 5.7-8.3 2.9-17 5.1-25.7 6.4-7.7.9-15.5.8-23.2-.2-7.1-1-14.2-2.4-21.1-4.4-2.9-.8-5.8-1.6-8.7-2.5-5.4-1.5-10.8-3.3-16-5.5 4.3 3.6 8.8 6.7 13.4 9.8 4.6 3.2 9.3 6.2 14.2 9 4.1 3.4 8.4 6.4 12.8 9.4 5.6 3.8 11.3 7.6 17.3 10.6 8.1 4.1 16.6 7.6 25.6 9.2 5.1.9 10.2 1.5 15.3 1.4 4.9-.1 9.8-.5 14.7-1.2 4.7-.7 9.4-1.6 13.9-3 .1 0 .1 0 .2-.1 1.3-.4 2.7-.8 4-1.2.1 0 .2-.1.2-.1.7-.2 1.4-.4 2.1-.7 1.3-.4 2.6-.9 3.9-1.3-1.2 6.4-2 12.8-2.1 19.1-.2 6.2 0 12.4.2 18.3.2 7.3 1.1 15 2.5 23.1 1.6 9.3 4 18.4 7.1 26.9 6.4 17.5 14.9 34.2 25.2 49.4 11.2 16.7 23.7 30.7 36.9 41.7 5.5 4.6 12.8 10.4 20.8 15l5.1 3 5 2.9c1.9 1.1 3.8 2.1 5.7 3.1.7.4 1.4.7 2.1 1.1 2 1 4.6 2.4 7.2 3.7.9.5 1.8.9 2.7 1.4 1.9.9 3.8 1.9 5.8 2.8 3.5 1.5 6.9 3.1 10.3 4.6 2.9 1.3 5.9 2.4 8.9 3.5l2.3.8c2.7 1 5.4 1.8 8.3 2.6l.3.1c6.3 1.8 12.8 3.1 18.4 4.1 7.4 1.4 14.8 2.1 21.7 2.7 2.1.2 4.2.3 6.6.3 3.8 0 7.7-.2 11.4-.4h.8c6.1-.3 12.2-1.2 18.1-2l3.5-.5c6.7-.9 13.1-2.4 18.1-3.6 6.7-1.6 13.1-3.8 18-5.6 6.9-2.5 13.5-5.6 19.5-8.7 1.9-1 3.9-2.1 5.7-3.2.7-.4 1.4-.9 2.2-1.3.9-.5 1.7-1.1 2.5-1.6.4-.3.8-.5 1.1-.8 2.1-1.4 3.9-2.7 5.7-4.1.7-.5 1.4-1 2-1.6 1.6-1.2 3.2-2.4 4.7-3.8 2.9-2.6 5.3-4.8 7.5-6.8 3.5-3.3 8-7.7 11.9-12.6 2.3-2.8 5-6.2 7.6-9.8 2-2.7 3.9-5.6 5.8-8.3 3.2-4.8 6.1-9.7 8.6-14.6.4-.8.8-1.5 1.2-2.3.4-.7.7-1.5 1.1-2.2 0-.1.1-.1.1-.2l2.7 6.6c2.6 6.4 4.4 13 6.2 19.7.8-5.1 1.5-10.2 1.8-15.3.2-4.8.1-9.7-.1-14.5.1-4.2 0-8.8-.4-13.3zM754.2 936.1h-.5.5zm202.5-1.7c-14.6 22.2-26 52.8-32.1 86.2-8 43.9-5.5 84.4 5 110.2-12-6.3-23.7-12.6-34.5-20.7-11.1-8.8-21.3-19-30.2-30.4-11-14.6-20.2-30.3-27.3-46.8-5.5-13.5-9.4-27.4-11.4-41.2-.8-6.3-1.2-12.7-1.7-18.8-.1-1.6-.2-3.1-.3-4.7-.1-1.8-.3-3.5-.4-5.3-.4-5-.9-10.1-.8-15.2 0-.8-.1-1.6-.3-2.4.1-.9 0-1.8 0-2.8v-2.3c1.4-.5 2.8-1 4.2-1.6h.1c1.5-.5 3-1.1 4.4-1.7 1.4-.5 2.8-1 4.1-1.5 4.4-1.6 8.8-3.3 13.1-5 6.8-2.7 13.5-5.8 20.5-7.9 1.2-.5 2.4-1 3.7-1.4 3.2-1.5 6.6-2.3 10-3.2 4.7-1.3 12.5-3.1 17.3-3.9 5.9-1 11.8-1.9 17.7-2.8 2.7-.2 5.4-.5 8.1-.7 1.5-.1 3-.1 4.5-.1h4.9c3.3 0 6.6.1 9.9.2 8.8.3 17.6.9 26.4 1.8 1.1.2 2.3.3 3.4.5-6.3 5.4-12.4 12.6-18.3 21.5zm194.4 132.1v-.4.4zm1.7-8.4c0 .2 0 .4-.1.5 0 .1 0 .2-.1.3v.1c-.1.2-.1.5-.2.7l-.6 1.5c-.2.4-.4.9-.6 1.3 0 .2 0 .5-.1.7v-.4l-.1.1-1 2.2-.5 1.3c-.2.4-.4.9-.5 1.3-.4.9-.8 1.9-1.2 2.8l-1.2 2.4c-1.2 2.3-2.4 4.7-3.7 6.9-2.1 3.6-4.1 6.8-6.1 9.8-1.4 2.1-2.9 4.2-4.4 6.2l-.8 1.1c-1.6 2-3.5 4.4-5.4 6.6-2.3 2.6-4.7 5.1-7.3 7.8-2.1 2.2-4.4 4.2-6.7 6.2l-.5.4c-2.5 2.2-5 4.3-7.2 6l-.7.5c-1.4 1.1-3.9 2.8-5.4 3.8-.4.3-.8.5-1.2.8-1.5 1-3.1 2.1-4.7 3-.8.4-1.6.9-2.4 1.4-1.6.9-3.2 1.8-4.8 2.6-2.4 1.1-4.7 2.2-7.1 3.3-2.4 1-5.2 2.1-8 3.1-.7.2-1.4.5-2.1.7-1.4.5-2.7 1-4.1 1.4l-3 .8-3 .8c-3.4 1-6.9 1.8-10.4 2.5l-1.3.3c-2.3.5-4.8.9-7.1 1.3-.9.1-1.9.3-2.8.5-7.6 1-14.1 1.7-20.7 2-.8 0-1.5.1-2.3.2-1.1.1-2.2.1-3.3.1l-7.1-.1c-2.7-.1-5.5-.3-8.2-.6-.7-.1-1.5-.1-2.2-.2-2.8-.4-5.8-.8-8.7-1.4 6.8-5.4 13.6-13.1 20.1-22.9 14.6-22.2 26-52.8 32.1-86.2 6.3-34.2 6.4-67.4.3-93.5-1.5-6.3-3.3-12-5.4-17.1 2.1 1 4.2 2.1 6.3 3.2 5.2 2.8 10.4 5.7 15.4 8.8 9 5.5 17.6 11.7 26 18 3.4 2.8 6.7 5.6 10 8.5 3.4 3 6.5 6.3 9.6 9.5 5.8 6 11.2 12.5 16.4 19 2.2 2.9 4.4 5.8 6.5 8.8 7.2 10.1 14.5 20.1 20.6 30.9.9 1.6 1.8 3.3 2.8 4.9 0 .1.1.1.1.2.6 1 1.1 2 1.6 3 0 .1 0 .2-.1.3l.9 1.2c.3.6.7 1.2 1 1.8 1.7 3.1 3.2 6 4.7 9zM466.3 1109zM607.6 1475c0 .1.1.1.1.2l-.1-.2c.1.1 0 .1 0 0zM1053.2 1482.3c-.1 0 0 0 0 0zM713.5 1373.7c.1 0 .1 0 0 0 .1-.1.1-.2.1-.3 0 .1-.1.2-.1.3zM694.6 1361.1s.1 0 0 0c.1-.1.1-.2.1-.3-.1.1-.1.2-.1.3zM600.7 1459.6zM741.1 1382.2v.7c.1-.2.1-.3.2-.5 0-.1.1-.2.1-.3l-.2-.2c0 .1 0 .2-.1.3z"/></svg>